<?xml version="1.0" encoding="UTF-8" standalone="no"?>
<!-- Created with Inkscape (http://www.inkscape.org/) -->

<svg
   xmlns:dc="http://purl.org/dc/elements/1.1/"
   xmlns:cc="http://creativecommons.org/ns#"
   xmlns:rdf="http://www.w3.org/1999/02/22-rdf-syntax-ns#"
   xmlns:svg="http://www.w3.org/2000/svg"
   xmlns="http://www.w3.org/2000/svg"
   xmlns:sodipodi="http://sodipodi.sourceforge.net/DTD/sodipodi-0.dtd"
   xmlns:inkscape="http://www.inkscape.org/namespaces/inkscape"
   width="31.160999mm"
   height="56.202747mm"
   viewBox="0 0 31.160999 56.202747"
   id="svg29917"
   version="1.1"
   inkscape:version="0.91+devel+osxmenu r12911"
   sodipodi:docname="interaction-schema.svg">
  <defs
     id="defs29919">
    <clipPath
       id="clipPath129308"
       clipPathUnits="userSpaceOnUse">
      <path
         inkscape:connector-curvature="0"
         id="path129310"
         d="m 0,841.89 510.236,0 L 510.236,0 0,0 0,841.89 Z" />
    </clipPath>
    <clipPath
       id="clipPath129116"
       clipPathUnits="userSpaceOnUse">
      <path
         inkscape:connector-curvature="0"
         id="path129118"
         d="m 0,841.89 510.236,0 L 510.236,0 0,0 0,841.89 Z" />
    </clipPath>
    <clipPath
       id="clipPath128948"
       clipPathUnits="userSpaceOnUse">
      <path
         inkscape:connector-curvature="0"
         id="path128950"
         d="m 0,841.89 510.236,0 L 510.236,0 0,0 0,841.89 Z" />
    </clipPath>
  </defs>
  <sodipodi:namedview
     id="base"
     pagecolor="#ffffff"
     bordercolor="#666666"
     borderopacity="1.0"
     inkscape:pageopacity="0.0"
     inkscape:pageshadow="2"
     inkscape:zoom="1.979899"
     inkscape:cx="105.90479"
     inkscape:cy="106.20991"
     inkscape:document-units="mm"
     inkscape:current-layer="g128944"
     showgrid="false"
     fit-margin-top="0"
     fit-margin-left="0"
     fit-margin-right="0"
     fit-margin-bottom="0"
     inkscape:window-width="1920"
     inkscape:window-height="1156"
     inkscape:window-x="0"
     inkscape:window-y="22"
     inkscape:window-maximized="0" />
  <metadata
     id="metadata29922">
    <rdf:RDF>
      <cc:Work
         rdf:about="">
        <dc:format>image/svg+xml</dc:format>
        <dc:type
           rdf:resource="http://purl.org/dc/dcmitype/StillImage" />
        <dc:title></dc:title>
      </cc:Work>
    </rdf:RDF>
  </metadata>
  <g
     inkscape:label="Layer 1"
     inkscape:groupmode="layer"
     id="layer1"
     transform="translate(53.723024,-120.73196)">
    <g
       id="g127644"
       transform="matrix(0.35277777,0,0,-0.35277777,-53.63469,124.00833)">
      <path
         d="M 0,0 43.914,-8.683 87.83,0 87.83,-16.603 43.914,-24.905 0,-16.603 0,0 Z"
         style="fill:#ededed;fill-opacity:1;fill-rule:nonzero;stroke:none"
         id="path127646"
         inkscape:connector-curvature="0" />
    </g>
    <g
       id="g127648"
       transform="matrix(0.35277777,0,0,-0.35277777,-53.63469,124.00833)">
      <path
         d="M 0,0 43.914,-8.683 87.83,0 87.83,-16.603 43.914,-24.905 0,-16.603 0,0 Z"
         style="fill:none;stroke:#1d1d1b;stroke-width:0.5;stroke-linecap:butt;stroke-linejoin:miter;stroke-miterlimit:4;stroke-dasharray:none;stroke-opacity:1"
         id="path127650"
         inkscape:connector-curvature="0" />
    </g>
    <g
       id="g127652"
       transform="matrix(0.35277777,0,0,-0.35277777,-53.63469,131.70777)">
      <path
         d="M 0,0 43.914,-8.003 87.83,0 87.83,-16.603 43.914,-24.905 0,-16.603 0,0 Z"
         style="fill:#dadada;fill-opacity:1;fill-rule:nonzero;stroke:none"
         id="path127654"
         inkscape:connector-curvature="0" />
    </g>
    <g
       id="g127656"
       transform="matrix(0.35277777,0,0,-0.35277777,-53.63469,131.70777)">
      <path
         d="M 0,0 43.914,-8.003 87.83,0 87.83,-16.603 43.914,-24.905 0,-16.603 0,0 Z"
         style="fill:none;stroke:#1d1d1b;stroke-width:0.5;stroke-linecap:butt;stroke-linejoin:miter;stroke-miterlimit:4;stroke-dasharray:none;stroke-opacity:1"
         id="path127658"
         inkscape:connector-curvature="0" />
    </g>
    <g
       id="g127660"
       transform="matrix(0.35277777,0,0,-0.35277777,-53.63469,139.40704)">
      <path
         d="M 0,0 43.914,-8.004 87.83,0 87.83,-16.603 43.914,-24.905 0,-16.603 0,0 Z"
         style="fill:#b2b2b2;fill-opacity:1;fill-rule:nonzero;stroke:none"
         id="path127662"
         inkscape:connector-curvature="0" />
    </g>
    <g
       id="g127664"
       transform="matrix(0.35277777,0,0,-0.35277777,-53.63469,139.40704)">
      <path
         d="M 0,0 43.914,-8.004 87.83,0 87.83,-16.603 43.914,-24.905 0,-16.603 0,0 Z"
         style="fill:none;stroke:#1d1d1b;stroke-width:0.5;stroke-linecap:butt;stroke-linejoin:miter;stroke-miterlimit:4;stroke-dasharray:none;stroke-opacity:1"
         id="path127666"
         inkscape:connector-curvature="0" />
    </g>
    <g
       id="g127668"
       transform="matrix(0.35277777,0,0,-0.35277777,-22.650358,173.71761)">
      <path
         d="M 0,0 -43.914,8.684 -87.83,0 l 0,16.603 43.916,8.302 L 0,16.603 0,0 Z"
         style="fill:#ededed;fill-opacity:1;fill-rule:nonzero;stroke:none"
         id="path127670"
         inkscape:connector-curvature="0" />
    </g>
    <g
       id="g127672"
       transform="matrix(0.35277777,0,0,-0.35277777,-22.650358,173.71761)">
      <path
         d="M 0,0 -43.914,8.684 -87.83,0 l 0,16.603 43.916,8.302 L 0,16.603 0,0 Z"
         style="fill:none;stroke:#1d1d1b;stroke-width:0.5;stroke-linecap:butt;stroke-linejoin:miter;stroke-miterlimit:4;stroke-dasharray:none;stroke-opacity:1"
         id="path127674"
         inkscape:connector-curvature="0" />
    </g>
    <g
       id="g127676"
       transform="matrix(0.35277777,0,0,-0.35277777,-22.650358,166.01816)">
      <path
         d="M 0,0 -43.914,8.003 -87.83,0 l 0,16.603 43.916,8.302 L 0,16.603 0,0 Z"
         style="fill:#dadada;fill-opacity:1;fill-rule:nonzero;stroke:none"
         id="path127678"
         inkscape:connector-curvature="0" />
    </g>
    <g
       id="g127680"
       transform="matrix(0.35277777,0,0,-0.35277777,-22.650358,166.01816)">
      <path
         d="M 0,0 -43.914,8.003 -87.83,0 l 0,16.603 43.916,8.302 L 0,16.603 0,0 Z"
         style="fill:none;stroke:#1d1d1b;stroke-width:0.5;stroke-linecap:butt;stroke-linejoin:miter;stroke-miterlimit:4;stroke-dasharray:none;stroke-opacity:1"
         id="path127682"
         inkscape:connector-curvature="0" />
    </g>
    <g
       id="g127684"
       transform="matrix(0.35277777,0,0,-0.35277777,-22.650358,158.31889)">
      <path
         d="M 0,0 -43.914,8.004 -87.83,0 l 0,16.603 43.916,8.302 L 0,16.603 0,0 Z"
         style="fill:#b2b2b2;fill-opacity:1;fill-rule:nonzero;stroke:none"
         id="path127686"
         inkscape:connector-curvature="0" />
    </g>
    <g
       id="g127688"
       transform="matrix(0.35277777,0,0,-0.35277777,-22.650358,158.31889)">
      <path
         d="M 0,0 -43.914,8.004 -87.83,0 l 0,16.603 43.916,8.302 L 0,16.603 0,0 Z"
         style="fill:none;stroke:#1d1d1b;stroke-width:0.5;stroke-linecap:butt;stroke-linejoin:miter;stroke-miterlimit:4;stroke-dasharray:none;stroke-opacity:1"
         id="path127690"
         inkscape:connector-curvature="0" />
    </g>
    <text
       style="font-variant:normal;font-weight:bold;font-stretch:normal;font-size:2.76418996px;font-family:Helvetica;-inkscape-font-specification:Helvetica-Bold;writing-mode:lr-tb;fill:#12110d;fill-opacity:1;fill-rule:nonzero;stroke:none;stroke-width:0.35277775"
       id="text128940"
       x="-51.891281"
       y="122.73357">
      <tspan
         style="stroke-width:0.35277775"
         x="-51.891281 -49.433914 -47.438183 -45.44244 -43.446693 -42.678246 -41.757778 -40.682503 -39.145622 -37.456707 -35.919807 -34.382927 -33.307648 -32.5392 -30.850286 -29.9298 -28.240885 -25.78352"
         y="122.73357"
         sodipodi:role="line"
         id="tspan128942">mRNA transcriptome</tspan>
    </text>
    <g
       id="g128944"
       transform="matrix(0.35277777,0,0,-0.35277777,-141.8436,375.79157)">
      <g
         transform="translate(260.8521,701.6064)"
         id="g128952">
        <path
           inkscape:connector-curvature="0"
           id="path128954"
           style="fill:#12110d;fill-opacity:1;fill-rule:nonzero;stroke:none"
           d="M 0,0 C 0.297,0.193 0.52,0.547 0.671,1.06 0.764,1.374 0.794,1.658 0.767,1.91 0.714,2.396 0.452,2.71 -0.022,2.855 -0.499,3.002 -0.896,2.877 -1.218,2.478 -1.389,2.265 -1.535,1.971 -1.654,1.597 -1.75,1.295 -1.783,1.024 -1.755,0.782 -1.701,0.322 -1.427,0.012 -0.939,-0.138 -0.609,-0.239 -0.295,-0.192 0,0 M -1.649,3.878 C -1.383,3.792 -1.252,3.749 -0.985,3.664 -1.051,3.457 -1.084,3.354 -1.149,3.146 -0.956,3.281 -0.758,3.37 -0.567,3.418 -0.293,3.488 0.002,3.48 0.313,3.385 0.775,3.244 1.117,2.956 1.341,2.52 1.564,2.084 1.589,1.548 1.406,0.914 1.159,0.056 0.744,-0.489 0.153,-0.713 -0.221,-0.855 -0.613,-0.867 -1.02,-0.742 c -0.319,0.097 -0.567,0.251 -0.742,0.444 -0.101,0.112 -0.204,0.282 -0.303,0.509 -0.253,-0.798 -0.38,-1.198 -0.634,-1.995 -0.286,0.091 -0.429,0.137 -0.715,0.23 0.706,2.172 1.059,3.26 1.765,5.432" />
      </g>
      <g
         transform="translate(263.6118,704.1714)"
         id="g128956">
        <path
           inkscape:connector-curvature="0"
           id="path128958"
           style="fill:#12110d;fill-opacity:1;fill-rule:nonzero;stroke:none"
           d="m 0,0 c 0.261,-0.073 0.392,-0.11 0.653,-0.182 -0.075,-0.273 -0.11,-0.41 -0.185,-0.683 0.09,0.118 0.267,0.245 0.528,0.379 0.261,0.135 0.527,0.166 0.801,0.094 0.013,-0.003 0.032,-0.009 0.06,-0.02 0.031,-0.011 0.085,-0.03 0.158,-0.057 C 1.941,-0.75 1.903,-0.891 1.83,-1.172 1.791,-1.153 1.756,-1.139 1.723,-1.127 1.688,-1.116 1.649,-1.104 1.608,-1.094 1.26,-1.002 0.961,-1.038 0.716,-1.202 0.469,-1.367 0.31,-1.589 0.232,-1.87 -0.016,-2.779 -0.143,-3.234 -0.391,-4.143 -0.676,-4.065 -0.818,-4.025 -1.104,-3.945 -0.661,-2.367 -0.442,-1.578 0,0" />
      </g>
      <g
         transform="translate(268.0542,699.8086)"
         id="g128960">
        <path
           inkscape:connector-curvature="0"
           id="path128962"
           style="fill:#12110d;fill-opacity:1;fill-rule:nonzero;stroke:none"
           d="M 0,0 C 0.251,0.296 0.423,0.649 0.517,1.062 0.602,1.435 0.608,1.753 0.539,2.014 0.429,2.426 0.138,2.687 -0.337,2.8 -0.757,2.9 -1.099,2.821 -1.366,2.556 -1.635,2.292 -1.825,1.94 -1.936,1.5 -2.041,1.078 -2.034,0.702 -1.908,0.371 -1.783,0.041 -1.505,-0.177 -1.077,-0.279 -0.608,-0.391 -0.251,-0.297 0,0 M 1.043,2.554 C 1.332,2.128 1.406,1.583 1.26,0.917 1.117,0.272 0.836,-0.225 0.409,-0.57 c -0.426,-0.346 -0.993,-0.439 -1.692,-0.271 -0.585,0.14 -1.003,0.441 -1.251,0.896 -0.249,0.456 -0.288,0.995 -0.128,1.617 0.171,0.666 0.485,1.151 0.934,1.458 0.45,0.308 0.962,0.39 1.549,0.249 0.528,-0.126 0.934,-0.4 1.222,-0.825" />
      </g>
      <g
         transform="translate(270.9663,703.5444)"
         id="g128964">
        <path
           inkscape:connector-curvature="0"
           id="path128966"
           style="fill:#12110d;fill-opacity:1;fill-rule:nonzero;stroke:none"
           d="M 0,0 C 0.278,-0.059 0.416,-0.088 0.694,-0.145 0.603,-0.593 0.558,-0.816 0.466,-1.265 0.73,-1.319 0.862,-1.346 1.127,-1.398 1.083,-1.619 1.062,-1.729 1.018,-1.949 0.751,-1.896 0.619,-1.87 0.354,-1.815 0.14,-2.864 0.029,-3.388 -0.185,-4.437 -0.213,-4.576 -0.178,-4.679 -0.088,-4.747 -0.039,-4.784 0.055,-4.818 0.186,-4.845 0.221,-4.852 0.254,-4.86 0.295,-4.866 0.334,-4.872 0.383,-4.878 0.437,-4.882 0.395,-5.096 0.374,-5.203 0.331,-5.417 0.244,-5.424 0.154,-5.422 0.062,-5.415 c -0.091,0.008 -0.19,0.022 -0.294,0.043 -0.337,0.068 -0.546,0.198 -0.633,0.384 -0.087,0.187 -0.104,0.407 -0.049,0.664 0.225,1.062 0.336,1.593 0.56,2.655 -0.225,0.047 -0.337,0.072 -0.562,0.121 0.048,0.219 0.069,0.329 0.117,0.549 0.224,-0.048 0.338,-0.072 0.562,-0.12 C -0.143,-0.671 -0.095,-0.448 0,0" />
      </g>
      <g
         transform="translate(275.3276,699.8091)"
         id="g128968">
        <path
           inkscape:connector-curvature="0"
           id="path128970"
           style="fill:#12110d;fill-opacity:1;fill-rule:nonzero;stroke:none"
           d="M 0,0 C 0.021,0.299 -0.008,0.546 -0.082,0.74 -0.22,1.099 -0.508,1.316 -0.954,1.395 -1.273,1.451 -1.562,1.386 -1.82,1.201 -2.079,1.016 -2.247,0.753 -2.325,0.41 -1.396,0.237 -0.932,0.154 0,0 M 0.013,1.629 C 0.266,1.449 0.446,1.241 0.558,1.003 0.664,0.776 0.713,0.515 0.724,0.243 0.73,0.055 0.711,-0.25 0.646,-0.658 c -1.236,0.196 -1.855,0.303 -3.087,0.533 -0.064,-0.413 -0.023,-0.761 0.121,-1.043 0.143,-0.283 0.418,-0.46 0.818,-0.531 0.373,-0.066 0.697,-10e-4 0.955,0.197 0.148,0.113 0.262,0.26 0.342,0.431 C 0.077,-1.118 0.218,-1.142 0.5,-1.187 0.458,-1.332 0.369,-1.487 0.234,-1.652 0.1,-1.817 -0.044,-1.948 -0.191,-2.042 -0.44,-2.203 -0.736,-2.296 -1.068,-2.313 c -0.18,-0.01 -0.38,0.002 -0.598,0.041 -0.535,0.094 -0.955,0.36 -1.254,0.794 -0.3,0.435 -0.385,0.98 -0.258,1.637 0.125,0.646 0.409,1.135 0.846,1.47 0.436,0.335 0.942,0.451 1.523,0.349 0.293,-0.052 0.568,-0.168 0.822,-0.349" />
      </g>
      <g
         transform="translate(277.2163,701.2368)"
         id="g128972">
        <path
           inkscape:connector-curvature="0"
           id="path128974"
           style="fill:#12110d;fill-opacity:1;fill-rule:nonzero;stroke:none"
           d="M 0,0 C 0.285,-0.043 0.426,-0.065 0.711,-0.106 0.479,-1.721 0.363,-2.528 0.131,-4.143 -0.165,-4.1 -0.312,-4.078 -0.608,-4.033 -0.366,-2.42 -0.242,-1.613 0,0 M 0.226,1.524 C 0.507,1.482 0.648,1.461 0.93,1.42 0.885,1.111 0.863,0.957 0.819,0.648 0.536,0.688 0.396,0.709 0.112,0.752 0.159,1.061 0.179,1.216 0.226,1.524" />
      </g>
      <g
         transform="translate(278.9897,701.0029)"
         id="g128976">
        <path
           inkscape:connector-curvature="0"
           id="path128978"
           style="fill:#12110d;fill-opacity:1;fill-rule:nonzero;stroke:none"
           d="M 0,0 C 0.267,-0.036 0.401,-0.053 0.668,-0.087 0.639,-0.318 0.622,-0.435 0.593,-0.666 c 0.229,0.213 0.462,0.358 0.696,0.435 0.234,0.076 0.484,0.099 0.756,0.068 C 2.639,-0.232 3.018,-0.479 3.186,-0.901 3.277,-1.133 3.302,-1.455 3.26,-1.867 3.152,-2.913 3.1,-3.435 2.992,-4.48 c -0.297,0.03 -0.444,0.047 -0.741,0.079 0.112,1.026 0.165,1.538 0.277,2.565 0.028,0.248 0.013,0.454 -0.046,0.614 -0.098,0.266 -0.314,0.42 -0.645,0.458 -0.166,0.02 -0.305,0.019 -0.415,0.001 C 1.224,-0.797 1.038,-0.887 0.87,-1.036 0.734,-1.155 0.642,-1.285 0.589,-1.422 0.536,-1.56 0.49,-1.763 0.456,-2.028 0.348,-2.88 0.293,-3.305 0.185,-4.156 -0.107,-4.119 -0.252,-4.1 -0.544,-4.061 -0.326,-2.437 -0.218,-1.625 0,0" />
      </g>
      <g
         transform="translate(283.1099,698.9595)"
         id="g128980">
        <path
           inkscape:connector-curvature="0"
           id="path128982"
           style="fill:#12110d;fill-opacity:1;fill-rule:nonzero;stroke:none"
           d="M 0,0 C 0.797,-0.076 1.197,-0.11 1.995,-0.172 1.974,-0.454 1.962,-0.596 1.94,-0.878 1.138,-0.815 0.735,-0.781 -0.066,-0.704 -0.04,-0.422 -0.026,-0.282 0,0" />
      </g>
      <g
         transform="translate(288.8784,699.9019)"
         id="g128984">
        <path
           inkscape:connector-curvature="0"
           id="path128986"
           style="fill:#12110d;fill-opacity:1;fill-rule:nonzero;stroke:none"
           d="m 0,0 c 0.288,-0.238 0.453,-0.632 0.492,-1.182 -0.278,0.012 -0.419,0.018 -0.697,0.031 -0.031,0.254 -0.117,0.467 -0.259,0.641 -0.141,0.175 -0.377,0.27 -0.708,0.288 -0.451,0.025 -0.79,-0.17 -1.012,-0.583 -0.144,-0.269 -0.23,-0.607 -0.256,-1.013 -0.027,-0.41 0.04,-0.761 0.206,-1.052 0.166,-0.291 0.446,-0.448 0.839,-0.47 0.302,-0.016 0.549,0.057 0.734,0.222 0.183,0.164 0.317,0.399 0.398,0.698 0.282,-0.013 0.422,-0.019 0.703,-0.03 -0.101,-0.54 -0.318,-0.929 -0.655,-1.166 -0.337,-0.236 -0.759,-0.341 -1.265,-0.313 -0.571,0.032 -1.015,0.258 -1.327,0.671 -0.311,0.414 -0.442,0.914 -0.4,1.498 0.052,0.718 0.275,1.263 0.662,1.638 0.387,0.375 0.852,0.545 1.404,0.515 C -0.668,0.367 -0.288,0.237 0,0" />
      </g>
      <g
         transform="translate(292.7056,696.8823)"
         id="g128988">
        <path
           inkscape:connector-curvature="0"
           id="path128990"
           style="fill:#12110d;fill-opacity:1;fill-rule:nonzero;stroke:none"
           d="M 0,0 C 0.18,0.343 0.271,0.726 0.273,1.148 0.276,1.531 0.217,1.842 0.094,2.082 -0.101,2.461 -0.439,2.655 -0.923,2.664 -1.352,2.672 -1.665,2.519 -1.87,2.203 -2.075,1.887 -2.185,1.503 -2.198,1.05 -2.211,0.614 -2.122,0.249 -1.93,-0.048 -1.737,-0.343 -1.426,-0.496 -0.99,-0.504 -0.512,-0.513 -0.181,-0.344 0,0 M 0.47,2.717 C 0.841,2.363 1.027,1.847 1.026,1.164 1.025,0.504 0.856,-0.041 0.516,-0.47 0.175,-0.898 -0.356,-1.109 -1.071,-1.096 c -0.597,0.012 -1.064,0.216 -1.402,0.608 -0.337,0.391 -0.491,0.909 -0.467,1.551 0.025,0.687 0.227,1.229 0.597,1.625 0.37,0.395 0.853,0.586 1.452,0.575 0.538,-0.011 0.99,-0.192 1.361,-0.546" />
      </g>
      <g
         transform="translate(295.3765,696.8179)"
         id="g128992">
        <path
           inkscape:connector-curvature="0"
           id="path128994"
           style="fill:#12110d;fill-opacity:1;fill-rule:nonzero;stroke:none"
           d="m 0,0 c 0.2,-0.293 0.517,-0.437 0.949,-0.428 0.337,0.007 0.612,0.152 0.819,0.431 0.207,0.279 0.3,0.678 0.285,1.19 C 2.037,1.711 1.916,2.089 1.691,2.331 1.467,2.574 1.197,2.692 0.877,2.686 0.521,2.678 0.232,2.541 0.015,2.273 -0.203,2.005 -0.309,1.613 -0.304,1.098 -0.299,0.659 -0.2,0.293 0,0 M 1.539,3.104 C 1.668,3.031 1.812,2.899 1.978,2.713 1.952,3.541 1.942,3.955 1.917,4.782 2.185,4.791 2.319,4.795 2.587,4.805 2.669,2.551 2.71,1.425 2.794,-0.83 2.53,-0.839 2.396,-0.845 2.133,-0.853 2.126,-0.625 2.122,-0.511 2.115,-0.283 1.954,-0.542 1.758,-0.729 1.529,-0.846 1.3,-0.964 1.034,-1.027 0.732,-1.033 0.249,-1.042 -0.174,-0.856 -0.53,-0.476 -0.886,-0.096 -1.062,0.417 -1.064,1.055 -1.066,1.651 -0.91,2.169 -0.601,2.609 -0.292,3.049 0.152,3.271 0.73,3.282 1.051,3.289 1.319,3.23 1.539,3.104" />
      </g>
      <g
         transform="translate(299.0747,700.1079)"
         id="g128996">
        <path
           inkscape:connector-curvature="0"
           id="path128998"
           style="fill:#12110d;fill-opacity:1;fill-rule:nonzero;stroke:none"
           d="M 0,0 C 0.287,0.013 0.431,0.019 0.718,0.034 0.804,-1.595 0.845,-2.409 0.932,-4.038 0.634,-4.054 0.484,-4.062 0.187,-4.075 0.11,-2.446 0.075,-1.629 0,0 M -0.071,1.539 C 0.212,1.552 0.354,1.559 0.637,1.574 0.653,1.262 0.661,1.105 0.678,0.794 0.393,0.779 0.251,0.773 -0.034,0.76 -0.049,1.071 -0.057,1.227 -0.071,1.539" />
      </g>
      <g
         transform="translate(300.8608,700.2222)"
         id="g129000">
        <path
           inkscape:connector-curvature="0"
           id="path129002"
           style="fill:#12110d;fill-opacity:1;fill-rule:nonzero;stroke:none"
           d="m 0,0 c 0.269,0.017 0.4,0.026 0.669,0.044 l 0.039,-0.581 c 0.183,0.253 0.38,0.439 0.595,0.56 C 1.518,0.144 1.764,0.216 2.035,0.238 2.63,0.286 3.045,0.119 3.292,-0.266 3.427,-0.476 3.516,-0.787 3.554,-1.199 3.65,-2.246 3.699,-2.768 3.797,-3.815 3.5,-3.842 3.352,-3.856 3.055,-3.882 2.965,-2.854 2.921,-2.339 2.832,-1.31 2.811,-1.061 2.755,-0.862 2.666,-0.717 2.518,-0.473 2.279,-0.366 1.95,-0.392 1.781,-0.405 1.644,-0.433 1.538,-0.473 1.351,-0.544 1.185,-0.668 1.049,-0.846 0.94,-0.989 0.875,-1.135 0.85,-1.28 0.823,-1.427 0.818,-1.633 0.837,-1.9 0.896,-2.757 0.925,-3.186 0.983,-4.042 0.691,-4.062 0.545,-4.071 0.252,-4.089 0.149,-2.453 0.102,-1.636 0,0" />
      </g>
      <g
         transform="translate(307.8462,699.9653)"
         id="g129004">
        <path
           inkscape:connector-curvature="0"
           id="path129006"
           style="fill:#12110d;fill-opacity:1;fill-rule:nonzero;stroke:none"
           d="m 0,0 c -0.244,0.217 -0.532,0.305 -0.863,0.266 -0.495,-0.058 -0.81,-0.32 -0.945,-0.791 -0.071,-0.251 -0.084,-0.573 -0.043,-0.963 0.049,-0.46 0.181,-0.799 0.404,-1.017 0.221,-0.218 0.504,-0.309 0.835,-0.27 0.518,0.06 0.858,0.325 1.011,0.796 0.086,0.264 0.104,0.565 0.062,0.899 C 0.397,-0.577 0.244,-0.216 0,0 M -0.177,0.722 C -0.034,0.651 0.116,0.538 0.276,0.386 0.25,0.591 0.236,0.693 0.21,0.898 c 0.26,0.033 0.388,0.05 0.647,0.085 0.197,-1.478 0.295,-2.217 0.492,-3.694 0.068,-0.517 0.042,-0.935 -0.082,-1.255 -0.23,-0.59 -0.773,-0.942 -1.621,-1.04 -0.474,-0.055 -0.882,0.002 -1.225,0.164 -0.343,0.162 -0.553,0.452 -0.633,0.867 0.298,0.03 0.445,0.045 0.743,0.077 0.055,-0.179 0.144,-0.313 0.26,-0.399 0.181,-0.135 0.451,-0.182 0.808,-0.14 0.56,0.064 0.904,0.296 1.031,0.687 0.075,0.231 -0.008,1.183 -0.008,1.183 -0.012,0.002 -0.273,-0.402 -0.466,-0.528 -0.192,-0.127 -0.456,-0.21 -0.791,-0.249 -0.469,-0.053 -0.899,0.059 -1.282,0.336 -0.382,0.277 -0.605,0.778 -0.678,1.501 -0.068,0.683 0.053,1.233 0.356,1.652 0.302,0.418 0.693,0.654 1.176,0.709 0.327,0.038 0.626,-0.004 0.886,-0.132" />
      </g>
      <g
         transform="translate(314.5464,701.0005)"
         id="g129008">
        <path
           inkscape:connector-curvature="0"
           id="path129010"
           style="fill:#12110d;fill-opacity:1;fill-rule:nonzero;stroke:none"
           d="m 0,0 c -0.256,0.2 -0.549,0.272 -0.877,0.213 -0.492,-0.087 -0.791,-0.366 -0.898,-0.845 -0.056,-0.255 -0.051,-0.576 0.013,-0.964 0.076,-0.455 0.231,-0.784 0.466,-0.989 0.235,-0.205 0.522,-0.28 0.851,-0.222 0.515,0.092 0.838,0.378 0.963,0.857 0.07,0.269 0.073,0.57 0.01,0.901 C 0.435,-0.551 0.257,-0.201 0,0 M -0.219,0.71 C -0.071,0.648 0.087,0.544 0.256,0.402 0.218,0.605 0.198,0.707 0.16,0.91 0.418,0.958 0.548,0.984 0.805,1.034 1.089,-0.429 1.229,-1.162 1.514,-2.625 1.613,-3.136 1.612,-3.556 1.508,-3.882 1.314,-4.484 0.79,-4.869 -0.055,-5.019 c -0.468,-0.083 -0.882,-0.051 -1.235,0.09 -0.353,0.141 -0.577,0.419 -0.683,0.828 0.297,0.048 0.446,0.073 0.742,0.122 0.065,-0.175 0.157,-0.304 0.278,-0.383 0.188,-0.124 0.464,-0.154 0.816,-0.091 0.559,0.099 0.889,0.351 0.991,0.749 0.062,0.235 -0.077,1.18 -0.077,1.18 -0.011,0.002 -0.248,-0.418 -0.431,-0.556 -0.185,-0.138 -0.448,-0.237 -0.782,-0.296 -0.465,-0.082 -0.898,0.005 -1.298,0.258 -0.399,0.253 -0.652,0.741 -0.767,1.458 -0.108,0.679 -0.023,1.235 0.255,1.671 0.278,0.436 0.656,0.696 1.136,0.78 0.325,0.058 0.623,0.031 0.891,-0.081" />
      </g>
      <g
         transform="translate(319.5923,701.2153)"
         id="g129012">
        <path
           inkscape:connector-curvature="0"
           id="path129014"
           style="fill:#12110d;fill-opacity:1;fill-rule:nonzero;stroke:none"
           d="M 0,0 C -0.095,0.285 -0.212,0.503 -0.355,0.653 -0.62,0.933 -0.972,1.021 -1.416,0.924 -1.732,0.854 -1.977,0.685 -2.146,0.415 -2.313,0.146 -2.371,-0.163 -2.313,-0.509 -1.387,-0.315 -0.923,-0.213 0,0 M -0.609,1.511 C -0.306,1.441 -0.056,1.317 0.137,1.14 0.322,0.971 0.468,0.749 0.581,0.5 0.659,0.329 0.754,0.039 0.85,-0.363 -0.373,-0.654 -0.985,-0.79 -2.214,-1.047 c 0.098,-0.406 0.268,-0.712 0.509,-0.918 0.242,-0.206 0.562,-0.267 0.961,-0.18 0.371,0.082 0.644,0.266 0.807,0.547 0.094,0.161 0.144,0.339 0.155,0.528 0.279,0.064 0.42,0.097 0.699,0.164 C 0.934,-1.057 0.911,-1.233 0.849,-1.438 0.787,-1.643 0.704,-1.818 0.604,-1.962 0.433,-2.207 0.192,-2.405 -0.109,-2.547 -0.272,-2.625 -0.464,-2.69 -0.681,-2.738 c -0.53,-0.117 -1.019,-0.03 -1.463,0.257 -0.442,0.288 -0.727,0.76 -0.86,1.416 -0.13,0.644 -0.054,1.205 0.223,1.681 0.277,0.478 0.701,0.777 1.28,0.904 0.291,0.064 0.588,0.062 0.892,-0.009" />
      </g>
      <g
         transform="translate(320.7935,703.2729)"
         id="g129016">
        <path
           inkscape:connector-curvature="0"
           id="path129018"
           style="fill:#12110d;fill-opacity:1;fill-rule:nonzero;stroke:none"
           d="M 0,0 C 0.263,0.065 0.395,0.098 0.657,0.164 0.714,-0.062 0.743,-0.175 0.8,-0.4 0.936,-0.118 1.101,0.101 1.292,0.258 1.483,0.416 1.71,0.529 1.976,0.6 2.557,0.755 2.998,0.667 3.312,0.334 3.483,0.152 3.627,-0.138 3.738,-0.537 4.021,-1.55 4.161,-2.055 4.444,-3.068 4.155,-3.149 4.013,-3.188 3.723,-3.268 3.451,-2.271 3.316,-1.773 3.045,-0.776 2.979,-0.535 2.889,-0.35 2.774,-0.223 2.583,-0.011 2.324,0.052 2.001,-0.033 1.837,-0.077 1.71,-0.13 1.612,-0.188 1.439,-0.292 1.298,-0.443 1.195,-0.643 1.112,-0.804 1.071,-0.96 1.071,-1.107 1.071,-1.256 1.107,-1.459 1.173,-1.718 1.384,-2.551 1.488,-2.967 1.699,-3.8 1.412,-3.873 1.268,-3.908 0.98,-3.979 0.588,-2.387 0.393,-1.591 0,0" />
      </g>
      <g
         transform="translate(328.4302,703.6367)"
         id="g129020">
        <path
           inkscape:connector-curvature="0"
           id="path129022"
           style="fill:#12110d;fill-opacity:1;fill-rule:nonzero;stroke:none"
           d="M 0,0 C -0.119,0.276 -0.254,0.483 -0.408,0.622 -0.695,0.878 -1.056,0.939 -1.493,0.805 -1.806,0.709 -2.03,0.521 -2.179,0.238 -2.325,-0.044 -2.361,-0.355 -2.273,-0.696 -1.361,-0.427 -0.907,-0.288 0,0 M -0.729,1.456 C -0.419,1.411 -0.159,1.308 0.048,1.148 0.246,0.995 0.411,0.786 0.545,0.547 0.638,0.383 0.754,0.101 0.882,-0.292 -0.32,-0.683 -0.924,-0.869 -2.134,-1.226 c 0.131,-0.396 0.324,-0.687 0.583,-0.873 0.259,-0.186 0.585,-0.22 0.978,-0.1 0.366,0.112 0.623,0.318 0.763,0.612 0.081,0.168 0.118,0.35 0.115,0.54 0.274,0.087 0.413,0.131 0.687,0.22 C 1.02,-0.976 1.012,-1.154 0.966,-1.364 0.92,-1.572 0.85,-1.755 0.761,-1.906 0.609,-2.166 0.385,-2.382 0.094,-2.549 c -0.156,-0.09 -0.344,-0.172 -0.558,-0.237 -0.521,-0.159 -1.017,-0.113 -1.484,0.137 -0.467,0.25 -0.791,0.698 -0.976,1.341 -0.181,0.632 -0.148,1.198 0.091,1.695 0.239,0.499 0.642,0.831 1.21,1.005 0.286,0.088 0.584,0.109 0.894,0.064" />
      </g>
      <g
         transform="translate(273.2896,682.0913)"
         id="g129024">
        <path
           inkscape:connector-curvature="0"
           id="path129026"
           style="fill:#12110d;fill-opacity:1;fill-rule:nonzero;stroke:none"
           d="M 0,0 C 0.273,-0.086 0.408,-0.129 0.683,-0.212 0.55,-0.65 0.484,-0.867 0.352,-1.305 0.613,-1.384 0.744,-1.424 1.007,-1.501 0.943,-1.717 0.911,-1.826 0.848,-2.042 0.583,-1.964 0.451,-1.924 0.187,-1.844 -0.124,-2.867 -0.282,-3.38 -0.594,-4.403 c -0.042,-0.137 -0.012,-0.243 0.073,-0.32 0.048,-0.043 0.138,-0.086 0.27,-0.125 0.035,-0.01 0.072,-0.022 0.113,-0.032 0.041,-0.01 0.089,-0.019 0.145,-0.028 -0.062,-0.21 -0.091,-0.316 -0.153,-0.526 -0.09,0.002 -0.183,0.013 -0.278,0.03 -0.093,0.018 -0.192,0.041 -0.298,0.072 -0.34,0.103 -0.549,0.257 -0.621,0.451 -0.072,0.194 -0.068,0.417 0.011,0.667 0.327,1.035 0.491,1.553 0.817,2.588 -0.223,0.07 -0.336,0.106 -0.558,0.178 0.069,0.214 0.104,0.321 0.174,0.535 0.221,-0.072 0.331,-0.107 0.552,-0.177 C -0.209,-0.654 -0.138,-0.436 0,0" />
      </g>
      <g
         transform="translate(275.0073,680.3853)"
         id="g129028">
        <path
           inkscape:connector-curvature="0"
           id="path129030"
           style="fill:#12110d;fill-opacity:1;fill-rule:nonzero;stroke:none"
           d="m 0,0 c 0.264,-0.074 0.396,-0.111 0.659,-0.183 -0.074,-0.274 -0.11,-0.41 -0.184,-0.683 0.089,0.118 0.268,0.243 0.53,0.378 0.264,0.135 0.529,0.168 0.806,0.098 C 1.822,-0.393 1.845,-0.4 1.875,-0.411 1.906,-0.422 1.956,-0.439 2.029,-0.465 1.959,-0.747 1.922,-0.889 1.852,-1.171 1.812,-1.153 1.777,-1.137 1.744,-1.126 1.709,-1.115 1.67,-1.104 1.628,-1.094 1.273,-1.004 0.975,-1.042 0.727,-1.206 0.479,-1.371 0.314,-1.592 0.238,-1.873 -0.008,-2.782 -0.129,-3.237 -0.375,-4.147 -0.669,-4.067 -0.817,-4.027 -1.11,-3.945 -0.666,-2.367 -0.445,-1.578 0,0" />
      </g>
      <g
         transform="translate(277.6196,679.6821)"
         id="g129032">
        <path
           inkscape:connector-curvature="0"
           id="path129034"
           style="fill:#12110d;fill-opacity:1;fill-rule:nonzero;stroke:none"
           d="M 0,0 C 0.284,-0.068 0.428,-0.102 0.712,-0.167 0.347,-1.757 0.166,-2.552 -0.199,-4.142 -0.5,-4.073 -0.652,-4.037 -0.953,-3.965 -0.572,-2.379 -0.381,-1.586 0,0 M 0.361,1.499 C 0.639,1.432 0.778,1.4 1.057,1.336 0.987,1.032 0.951,0.88 0.882,0.576 0.601,0.64 0.459,0.674 0.178,0.742 0.251,1.045 0.288,1.196 0.361,1.499" />
      </g>
      <g
         transform="translate(281.4272,675.6157)"
         id="g129036">
        <path
           inkscape:connector-curvature="0"
           id="path129038"
           style="fill:#12110d;fill-opacity:1;fill-rule:nonzero;stroke:none"
           d="M 0,0 C 0.275,0.226 0.453,0.604 0.543,1.132 0.598,1.455 0.594,1.739 0.536,1.987 0.424,2.463 0.126,2.744 -0.363,2.835 -0.856,2.927 -1.235,2.76 -1.514,2.329 -1.662,2.099 -1.777,1.792 -1.855,1.407 -1.919,1.097 -1.924,0.823 -1.867,0.585 -1.76,0.133 -1.448,-0.146 -0.936,-0.242 -0.589,-0.306 -0.275,-0.225 0,0 M -2.097,3.678 C -1.822,3.62 -1.686,3.59 -1.41,3.534 L -1.518,3.002 c 0.179,0.154 0.363,0.263 0.547,0.332 0.266,0.1 0.563,0.125 0.884,0.066 C 0.388,3.313 0.758,3.068 1.035,2.661 1.312,2.255 1.405,1.726 1.302,1.074 1.162,0.192 0.811,-0.4 0.24,-0.692 -0.121,-0.876 -0.519,-0.93 -0.946,-0.851 c -0.336,0.062 -0.606,0.186 -0.806,0.361 -0.116,0.101 -0.24,0.259 -0.365,0.474 -0.167,-0.82 -0.25,-1.229 -0.417,-2.049 -0.304,0.061 -0.454,0.092 -0.758,0.157 0.479,2.234 0.718,3.352 1.195,5.586" />
      </g>
      <g
         transform="translate(284.0913,680.0044)"
         id="g129040">
        <path
           inkscape:connector-curvature="0"
           id="path129042"
           style="fill:#12110d;fill-opacity:1;fill-rule:nonzero;stroke:none"
           d="M 0,0 C 0.277,-0.041 0.414,-0.06 0.691,-0.098 0.39,-2.325 0.241,-3.439 -0.06,-5.667 -0.359,-5.626 -0.51,-5.604 -0.81,-5.561 -0.486,-3.336 -0.325,-2.225 0,0" />
      </g>
      <g
         transform="translate(288.3735,676.2637)"
         id="g129044">
        <path
           inkscape:connector-curvature="0"
           id="path129046"
           style="fill:#12110d;fill-opacity:1;fill-rule:nonzero;stroke:none"
           d="M 0,0 C -0.006,0.3 -0.056,0.542 -0.147,0.729 -0.317,1.075 -0.627,1.268 -1.082,1.311 -1.408,1.342 -1.69,1.255 -1.937,1.052 -2.183,0.848 -2.334,0.573 -2.388,0.226 -1.434,0.119 -0.956,0.074 0,0 M -0.13,1.624 C 0.139,1.465 0.34,1.273 0.473,1.046 0.601,0.83 0.672,0.574 0.707,0.304 0.731,0.118 0.738,-0.188 0.711,-0.601 c -1.273,0.086 -1.907,0.144 -3.176,0.286 -0.033,-0.416 0.037,-0.761 0.206,-1.033 0.169,-0.271 0.463,-0.429 0.878,-0.468 0.387,-0.037 0.713,0.055 0.958,0.274 0.14,0.125 0.243,0.281 0.31,0.458 C 0.178,-1.107 0.325,-1.118 0.616,-1.138 0.587,-1.287 0.511,-1.45 0.389,-1.626 0.267,-1.803 0.132,-1.945 -0.01,-2.052 c -0.24,-0.181 -0.537,-0.299 -0.876,-0.343 -0.182,-0.023 -0.39,-0.027 -0.617,-0.006 -0.556,0.053 -1.005,0.29 -1.344,0.703 -0.34,0.412 -0.466,0.951 -0.384,1.615 0.08,0.652 0.332,1.16 0.747,1.525 0.415,0.365 0.914,0.517 1.505,0.461 0.297,-0.028 0.58,-0.12 0.849,-0.279" />
      </g>
      <g
         transform="translate(290.3442,679.0059)"
         id="g129048">
        <path
           inkscape:connector-curvature="0"
           id="path129050"
           style="fill:#12110d;fill-opacity:1;fill-rule:nonzero;stroke:none"
           d="M 0,0 C 0.283,-0.015 0.423,-0.02 0.706,-0.032 0.687,-0.489 0.681,-0.717 0.661,-1.174 0.932,-1.186 1.067,-1.191 1.338,-1.2 1.331,-1.425 1.325,-1.537 1.318,-1.762 1.045,-1.753 0.91,-1.748 0.637,-1.737 0.592,-2.806 0.569,-3.34 0.524,-4.409 0.519,-4.551 0.567,-4.65 0.669,-4.703 0.726,-4.732 0.824,-4.75 0.96,-4.754 c 0.035,-0.002 0.074,-0.003 0.115,-0.002 0.041,0 0.092,0.002 0.148,0.006 C 1.216,-4.968 1.212,-5.077 1.205,-5.296 1.117,-5.316 1.025,-5.329 0.933,-5.335 0.839,-5.342 0.738,-5.345 0.629,-5.34 c -0.354,0.014 -0.59,0.108 -0.706,0.278 -0.117,0.171 -0.167,0.388 -0.153,0.65 0.056,1.084 0.083,1.626 0.139,2.709 -0.231,0.013 -0.346,0.018 -0.578,0.033 0.014,0.224 0.02,0.337 0.033,0.562 0.23,-0.014 0.345,-0.021 0.574,-0.033 C -0.037,-0.684 -0.024,-0.457 0,0" />
      </g>
      <g
         transform="translate(297.4585,677.6426)"
         id="g129052">
        <path
           inkscape:connector-curvature="0"
           id="path129054"
           style="fill:#12110d;fill-opacity:1;fill-rule:nonzero;stroke:none"
           d="m 0,0 c 0.312,-0.209 0.515,-0.584 0.608,-1.127 -0.282,-0.017 -0.422,-0.024 -0.705,-0.038 -0.054,0.25 -0.164,0.454 -0.323,0.614 -0.159,0.16 -0.405,0.234 -0.741,0.223 -0.457,-0.016 -0.776,-0.239 -0.966,-0.671 -0.123,-0.28 -0.184,-0.624 -0.177,-1.031 0.007,-0.41 0.108,-0.753 0.302,-1.029 0.193,-0.276 0.493,-0.409 0.898,-0.396 0.312,0.011 0.558,0.109 0.731,0.289 0.174,0.182 0.284,0.426 0.338,0.732 0.287,0.014 0.431,0.021 0.718,0.038 -0.051,-0.547 -0.235,-0.956 -0.556,-1.224 -0.321,-0.268 -0.746,-0.411 -1.27,-0.428 -0.586,-0.019 -1.062,0.167 -1.414,0.553 -0.351,0.387 -0.526,0.876 -0.53,1.462 -0.005,0.72 0.177,1.28 0.535,1.685 0.358,0.405 0.813,0.615 1.371,0.634 C -0.703,0.302 -0.312,0.208 0,0" />
      </g>
      <g
         transform="translate(301.6567,675.0508)"
         id="g129056">
        <path
           inkscape:connector-curvature="0"
           id="path129058"
           style="fill:#12110d;fill-opacity:1;fill-rule:nonzero;stroke:none"
           d="M 0,0 C 0.145,0.362 0.193,0.754 0.146,1.174 0.104,1.555 0.004,1.856 -0.148,2.08 -0.39,2.433 -0.752,2.584 -1.24,2.539 -1.673,2.499 -1.97,2.314 -2.142,1.978 -2.314,1.642 -2.388,1.25 -2.354,0.797 -2.32,0.363 -2.193,0.008 -1.966,-0.266 -1.739,-0.539 -1.399,-0.657 -0.952,-0.616 -0.462,-0.57 -0.145,-0.363 0,0 M 0.153,2.756 C 0.569,2.449 0.819,1.96 0.902,1.282 0.982,0.627 0.88,0.065 0.583,-0.402 0.287,-0.87 -0.234,-1.146 -0.968,-1.213 c -0.614,-0.057 -1.119,0.097 -1.504,0.451 -0.386,0.354 -0.594,0.853 -0.635,1.494 -0.044,0.686 0.105,1.245 0.436,1.677 0.331,0.433 0.792,0.674 1.394,0.73 0.541,0.051 1.015,-0.076 1.43,-0.383" />
      </g>
      <g
         transform="translate(304.3882,675.3291)"
         id="g129060">
        <path
           inkscape:connector-curvature="0"
           id="path129062"
           style="fill:#12110d;fill-opacity:1;fill-rule:nonzero;stroke:none"
           d="M 0,0 C 0.242,-0.264 0.586,-0.364 1.026,-0.294 1.369,-0.239 1.629,-0.055 1.802,0.252 1.975,0.56 2.015,0.966 1.926,1.471 1.836,1.981 1.657,2.339 1.397,2.546 1.138,2.754 0.85,2.833 0.529,2.782 0.172,2.725 -0.095,2.549 -0.279,2.255 -0.464,1.96 -0.523,1.559 -0.451,1.048 -0.39,0.614 -0.242,0.264 0,0 M 1.137,3.29 C 1.274,3.235 1.442,3.125 1.637,2.965 1.493,3.781 1.421,4.19 1.277,5.005 1.542,5.052 1.675,5.076 1.939,5.125 2.353,2.907 2.557,1.797 2.967,-0.42 2.698,-0.47 2.563,-0.494 2.294,-0.542 2.255,-0.317 2.236,-0.205 2.197,0.02 2.068,-0.259 1.892,-0.475 1.674,-0.625 1.455,-0.775 1.195,-0.875 0.888,-0.923 0.393,-1 -0.064,-0.871 -0.478,-0.54 c -0.411,0.331 -0.657,0.813 -0.739,1.446 -0.077,0.592 0.016,1.124 0.272,1.6 0.256,0.477 0.669,0.757 1.247,0.848 0.32,0.05 0.596,0.029 0.835,-0.064" />
      </g>
      <g
         transform="translate(310.98,676.6685)"
         id="g129064">
        <path
           inkscape:connector-curvature="0"
           id="path129066"
           style="fill:#12110d;fill-opacity:1;fill-rule:nonzero;stroke:none"
           d="M 0,0 C 0.096,0.378 0.089,0.772 -0.012,1.183 -0.103,1.554 -0.238,1.841 -0.419,2.043 -0.705,2.362 -1.085,2.463 -1.564,2.354 -1.99,2.258 -2.266,2.035 -2.395,1.679 -2.523,1.323 -2.542,0.924 -2.449,0.48 -2.36,0.054 -2.19,-0.28 -1.928,-0.522 -1.666,-0.763 -1.312,-0.836 -0.872,-0.736 -0.39,-0.627 -0.097,-0.379 0,0 M -0.204,2.753 C 0.25,2.503 0.562,2.051 0.732,1.39 0.896,0.75 0.869,0.178 0.633,-0.324 0.396,-0.827 -0.088,-1.168 -0.812,-1.331 c -0.604,-0.136 -1.125,-0.051 -1.555,0.25 -0.43,0.301 -0.702,0.769 -0.826,1.399 -0.133,0.675 -0.055,1.25 0.218,1.722 0.274,0.472 0.703,0.772 1.295,0.906 0.532,0.121 1.022,0.056 1.476,-0.193" />
      </g>
      <g
         transform="translate(312.0815,680.1831)"
         id="g129068">
        <path
           inkscape:connector-curvature="0"
           id="path129070"
           style="fill:#12110d;fill-opacity:1;fill-rule:nonzero;stroke:none"
           d="M 0,0 C 0.264,0.071 0.395,0.107 0.658,0.181 0.722,-0.043 0.751,-0.156 0.814,-0.38 0.946,-0.094 1.106,0.131 1.295,0.294 1.483,0.458 1.71,0.581 1.976,0.661 2.558,0.837 3.009,0.769 3.338,0.449 3.519,0.274 3.676,-0.009 3.804,-0.402 c 0.325,-1 0.485,-1.499 0.81,-2.499 C 4.318,-2.997 4.17,-3.046 3.873,-3.139 3.564,-2.153 3.408,-1.66 3.1,-0.674 3.025,-0.436 2.928,-0.255 2.809,-0.133 2.608,0.073 2.348,0.125 2.023,0.028 1.858,-0.021 1.729,-0.079 1.633,-0.14 1.46,-0.25 1.318,-0.407 1.22,-0.61 1.141,-0.773 1.104,-0.929 1.108,-1.077 1.112,-1.226 1.146,-1.43 1.219,-1.687 1.451,-2.514 1.568,-2.926 1.801,-3.753 1.508,-3.835 1.362,-3.877 1.068,-3.957 0.641,-2.375 0.429,-1.583 0,0" />
      </g>
      <g
         transform="translate(274.8247,654.51528)"
         id="g129072">
        <path
           inkscape:connector-curvature="0"
           id="path129074"
           style="fill:#12110d;fill-opacity:1;fill-rule:nonzero;stroke:none"
           d="m 0,0 c 0.12,-0.156 0.287,-0.267 0.498,-0.33 0.258,-0.077 0.524,-0.095 0.798,-0.057 0.458,0.064 0.74,0.302 0.851,0.709 0.059,0.214 0.09,0.32 0.149,0.533 C 2.194,0.828 2.068,0.816 1.92,0.82 1.772,0.824 1.63,0.839 1.493,0.862 1.313,0.892 1.224,0.907 1.044,0.938 0.773,0.983 0.562,0.992 0.41,0.964 0.154,0.917 -0.016,0.771 -0.094,0.521 -0.152,0.332 -0.121,0.158 0,0 M 2.043,1.338 C 2.212,1.312 2.341,1.346 2.426,1.439 2.474,1.49 2.512,1.57 2.542,1.681 2.604,1.908 2.564,2.096 2.423,2.246 2.282,2.396 2.054,2.516 1.738,2.607 1.374,2.714 1.087,2.698 0.878,2.559 0.761,2.482 0.657,2.347 0.568,2.152 0.305,2.233 0.173,2.274 -0.09,2.359 0.077,2.836 0.354,3.117 0.729,3.208 1.104,3.299 1.499,3.283 1.916,3.162 2.4,3.021 2.771,2.825 3.028,2.565 3.283,2.306 3.358,1.989 3.261,1.614 3.022,0.7 2.906,0.245 2.668,-0.669 2.65,-0.738 2.648,-0.799 2.67,-0.85 2.69,-0.899 2.75,-0.936 2.853,-0.962 2.884,-0.97 2.921,-0.979 2.963,-0.985 3.005,-0.992 3.053,-0.998 3.101,-1.003 3.051,-1.2 3.025,-1.299 2.976,-1.497 c -0.124,0 -0.218,0.004 -0.28,0.013 -0.063,0.008 -0.146,0.026 -0.252,0.053 -0.256,0.067 -0.419,0.199 -0.49,0.392 -0.037,0.103 -0.029,0.4 -0.029,0.4 C 1.906,-0.627 1.469,-0.867 1.15,-0.917 0.83,-0.967 0.499,-0.942 0.159,-0.84 c -0.409,0.123 -0.708,0.34 -0.895,0.641 -0.188,0.301 -0.223,0.616 -0.117,0.945 0.118,0.361 0.332,0.6 0.642,0.721 0.31,0.121 0.667,0.143 1.079,0.069 0.47,-0.084 0.705,-0.123 1.175,-0.198" />
      </g>
      <g
         transform="translate(279.4956,656.84148)"
         id="g129076">
        <path
           inkscape:connector-curvature="0"
           id="path129078"
           style="fill:#12110d;fill-opacity:1;fill-rule:nonzero;stroke:none"
           d="m 0,0 c 0.277,-0.067 0.416,-0.101 0.693,-0.164 -0.051,-0.227 -0.079,-0.34 -0.131,-0.567 0.212,0.158 0.396,0.269 0.551,0.328 0.265,0.1 0.545,0.119 0.84,0.058 0.333,-0.069 0.588,-0.198 0.762,-0.396 0.098,-0.113 0.227,-0.457 0.234,-0.459 0.041,-0.011 0.416,0.311 0.648,0.377 0.231,0.067 0.476,0.077 0.741,0.033 0.565,-0.094 0.919,-0.348 1.067,-0.772 0.08,-0.229 0.098,-0.521 0.046,-0.88 -0.155,-1.08 -0.234,-1.62 -0.389,-2.7 -0.315,0.045 -0.472,0.07 -0.787,0.119 0.176,1.125 0.265,1.688 0.441,2.813 0.042,0.269 10e-4,0.466 -0.124,0.589 C 4.467,-1.498 4.299,-1.42 4.096,-1.386 3.816,-1.338 3.56,-1.384 3.324,-1.526 3.09,-1.667 2.933,-1.947 2.855,-2.363 2.681,-3.3 2.595,-3.768 2.42,-4.705 c -0.307,0.057 -0.462,0.086 -0.769,0.147 0.208,1.05 0.313,1.574 0.521,2.623 0.054,0.272 0.06,0.48 0.016,0.617 C 2.12,-1.11 1.937,-0.975 1.642,-0.913 1.374,-0.857 1.11,-0.902 0.847,-1.049 0.583,-1.198 0.389,-1.526 0.271,-2.041 0.077,-2.888 -0.018,-3.313 -0.211,-4.16 c -0.3,0.069 -0.451,0.103 -0.75,0.176 C -0.577,-2.391 -0.384,-1.593 0,0" />
      </g>
      <g
         transform="translate(286.1831,655.59488)"
         id="g129080">
        <path
           inkscape:connector-curvature="0"
           id="path129082"
           style="fill:#12110d;fill-opacity:1;fill-rule:nonzero;stroke:none"
           d="M 0,0 C 0.289,-0.037 0.435,-0.054 0.724,-0.087 0.538,-1.708 0.443,-2.518 0.258,-4.138 -0.051,-4.103 -0.203,-4.084 -0.511,-4.045 -0.306,-2.427 -0.205,-1.618 0,0 M 0.195,1.53 C 0.477,1.494 0.617,1.477 0.899,1.445 0.864,1.135 0.849,0.979 0.813,0.669 0.528,0.702 0.386,0.72 0.101,0.756 0.14,1.065 0.156,1.22 0.195,1.53" />
      </g>
      <g
         transform="translate(287.9878,655.41428)"
         id="g129084">
        <path
           inkscape:connector-curvature="0"
           id="path129086"
           style="fill:#12110d;fill-opacity:1;fill-rule:nonzero;stroke:none"
           d="m 0,0 c 0.271,-0.026 0.405,-0.04 0.677,-0.062 -0.02,-0.232 -0.031,-0.348 -0.05,-0.58 0.223,0.223 0.453,0.375 0.685,0.463 0.233,0.087 0.483,0.122 0.758,0.105 0.602,-0.037 0.999,-0.258 1.196,-0.672 0.108,-0.226 0.155,-0.547 0.138,-0.961 -0.042,-1.05 -0.069,-1.574 -0.111,-2.624 -0.31,0.012 -0.462,0.019 -0.772,0.036 0.054,1.031 0.081,1.546 0.134,2.578 0.013,0.249 -0.013,0.453 -0.083,0.61 C 2.456,-0.846 2.23,-0.706 1.895,-0.684 1.724,-0.672 1.583,-0.681 1.471,-0.705 1.272,-0.748 1.091,-0.846 0.928,-1.001 0.796,-1.127 0.705,-1.258 0.656,-1.398 0.607,-1.538 0.57,-1.744 0.548,-2.011 0.475,-2.866 0.438,-3.293 0.366,-4.149 0.062,-4.123 -0.092,-4.108 -0.396,-4.079 -0.238,-2.447 -0.158,-1.631 0,0" />
      </g>
      <g
         transform="translate(295.2065,652.00948)"
         id="g129088">
        <path
           inkscape:connector-curvature="0"
           id="path129090"
           style="fill:#12110d;fill-opacity:1;fill-rule:nonzero;stroke:none"
           d="M 0,0 C 0.176,0.348 0.257,0.734 0.247,1.157 0.238,1.54 0.166,1.849 0.033,2.085 -0.177,2.458 -0.525,2.639 -1.016,2.637 -1.451,2.635 -1.768,2.478 -1.971,2.158 -2.174,1.839 -2.28,1.454 -2.287,1.001 -2.294,0.565 -2.201,0.2 -1.997,-0.093 -1.793,-0.386 -1.463,-0.533 -1.011,-0.531 -0.515,-0.529 -0.177,-0.35 0,0 M 0.394,2.732 C 0.781,2.392 0.99,1.881 1.016,1.199 1.04,0.54 0.89,-0.011 0.551,-0.452 0.212,-0.892 -0.335,-1.123 -1.08,-1.125 c -0.622,-0.002 -1.114,0.197 -1.47,0.584 -0.354,0.388 -0.516,0.903 -0.499,1.546 0.019,0.687 0.219,1.231 0.59,1.631 0.371,0.401 0.854,0.598 1.46,0.601 0.544,0.003 1.005,-0.164 1.393,-0.505" />
      </g>
      <g
         transform="translate(300.4067,651.97528)"
         id="g129092">
        <path
           inkscape:connector-curvature="0"
           id="path129094"
           style="fill:#12110d;fill-opacity:1;fill-rule:nonzero;stroke:none"
           d="M 0,0 C 0.171,-0.098 0.366,-0.136 0.583,-0.112 0.849,-0.083 1.1,0.003 1.333,0.144 1.728,0.38 1.895,0.708 1.84,1.128 1.812,1.348 1.799,1.457 1.77,1.677 1.687,1.612 1.576,1.553 1.439,1.5 1.303,1.446 1.165,1.404 1.031,1.373 0.855,1.331 0.768,1.31 0.592,1.269 0.327,1.206 0.13,1.131 0.003,1.047 -0.213,0.905 -0.31,0.705 -0.284,0.445 -0.265,0.248 -0.171,0.099 0,0 M 1.354,2.023 C 1.52,2.065 1.618,2.149 1.66,2.266 1.684,2.33 1.691,2.42 1.677,2.535 1.646,2.768 1.535,2.924 1.348,3.008 1.16,3.091 0.905,3.112 0.582,3.075 0.208,3.032 -0.044,2.908 -0.182,2.698 -0.259,2.583 -0.302,2.417 -0.308,2.203 -0.579,2.176 -0.716,2.164 -0.987,2.14 -1.02,2.645 -0.879,3.01 -0.571,3.239 -0.264,3.468 0.102,3.606 0.531,3.656 1.027,3.713 1.445,3.675 1.78,3.535 2.112,3.396 2.308,3.134 2.362,2.75 2.496,1.815 2.563,1.349 2.696,0.414 2.706,0.344 2.732,0.289 2.771,0.25 2.809,0.211 2.877,0.2 2.98,0.215 3.014,0.22 3.053,0.228 3.095,0.238 3.135,0.248 3.175,0.26 3.222,0.274 3.252,0.073 3.273,-0.027 3.304,-0.229 3.19,-0.276 3.102,-0.309 3.04,-0.325 2.979,-0.342 2.894,-0.359 2.787,-0.374 2.525,-0.411 2.323,-0.353 2.186,-0.203 2.112,-0.123 2.006,0.157 2.006,0.157 1.984,0.16 1.677,-0.234 1.403,-0.403 1.129,-0.573 0.817,-0.676 0.468,-0.713 c -0.42,-0.045 -0.776,0.037 -1.062,0.243 -0.285,0.204 -0.44,0.482 -0.469,0.827 -0.033,0.378 0.07,0.683 0.304,0.914 0.237,0.231 0.554,0.39 0.958,0.481 0.462,0.104 0.697,0.158 1.155,0.271" />
      </g>
      <g
         transform="translate(306.605,656.22868)"
         id="g129096">
        <path
           inkscape:connector-curvature="0"
           id="path129098"
           style="fill:#12110d;fill-opacity:1;fill-rule:nonzero;stroke:none"
           d="m 0,0 c 0.343,-0.158 0.604,-0.495 0.783,-1.016 -0.279,-0.061 -0.422,-0.09 -0.701,-0.149 -0.093,0.239 -0.232,0.423 -0.416,0.556 -0.184,0.133 -0.439,0.168 -0.772,0.104 -0.454,-0.086 -0.739,-0.355 -0.864,-0.811 -0.08,-0.295 -0.087,-0.644 -0.018,-1.045 0.069,-0.405 0.22,-0.729 0.457,-0.972 0.235,-0.244 0.559,-0.328 0.963,-0.251 0.31,0.059 0.539,0.192 0.683,0.398 0.146,0.207 0.221,0.466 0.227,0.776 0.285,0.059 0.429,0.09 0.714,0.153 0.035,-0.549 -0.086,-0.981 -0.367,-1.297 -0.28,-0.315 -0.684,-0.527 -1.207,-0.625 -0.586,-0.11 -1.092,0.001 -1.503,0.33 -0.412,0.328 -0.657,0.786 -0.749,1.365 -0.112,0.711 -0.017,1.291 0.28,1.746 0.295,0.455 0.715,0.733 1.268,0.838 C -0.749,0.19 -0.343,0.157 0,0" />
      </g>
      <g
         transform="translate(307.7983,656.69598)"
         id="g129100">
        <path
           inkscape:connector-curvature="0"
           id="path129102"
           style="fill:#12110d;fill-opacity:1;fill-rule:nonzero;stroke:none"
           d="M 0,0 C 0.285,0.066 0.429,0.102 0.714,0.171 1.102,-1.414 1.294,-2.207 1.682,-3.791 1.378,-3.865 1.229,-3.902 0.924,-3.973 0.555,-2.384 0.369,-1.589 0,0 M -0.348,1.502 C -0.069,1.567 0.07,1.6 0.348,1.668 0.422,1.365 0.459,1.213 0.533,0.91 0.252,0.841 0.11,0.81 -0.172,0.744 -0.242,1.048 -0.277,1.198 -0.348,1.502" />
      </g>
      <g
         transform="translate(311.1382,654.26438)"
         id="g129104">
        <path
           inkscape:connector-curvature="0"
           id="path129106"
           style="fill:#12110d;fill-opacity:1;fill-rule:nonzero;stroke:none"
           d="M 0,0 C 0.276,-0.231 0.634,-0.285 1.069,-0.157 1.408,-0.058 1.645,0.159 1.78,0.487 1.915,0.815 1.903,1.224 1.75,1.713 1.596,2.207 1.374,2.54 1.087,2.711 0.8,2.882 0.501,2.922 0.187,2.83 -0.164,2.728 -0.415,2.52 -0.563,2.204 -0.712,1.888 -0.719,1.482 -0.584,0.984 -0.469,0.561 -0.276,0.231 0,0 M 0.731,3.413 C 0.877,3.376 1.055,3.292 1.27,3.158 1.022,3.949 0.9,4.343 0.653,5.134 0.912,5.215 1.041,5.256 1.299,5.34 1.996,3.194 2.344,2.121 3.041,-0.025 2.776,-0.111 2.646,-0.153 2.38,-0.236 2.312,-0.018 2.278,0.091 2.21,0.309 2.116,0.015 1.966,-0.223 1.765,-0.4 1.562,-0.579 1.31,-0.712 1.006,-0.8 c -0.49,-0.142 -0.968,-0.073 -1.424,0.202 -0.455,0.276 -0.76,0.725 -0.919,1.343 -0.149,0.578 -0.121,1.12 0.076,1.625 0.198,0.505 0.579,0.835 1.148,0.999 0.314,0.091 0.593,0.105 0.844,0.044" />
      </g>
    </g>
    <text
       style="font-variant:normal;font-weight:bold;font-stretch:normal;font-size:2.76418996px;font-family:Helvetica;-inkscape-font-specification:Helvetica-Bold;writing-mode:lr-tb;fill:#12110d;fill-opacity:1;fill-rule:nonzero;stroke:none;stroke-width:0.35277775"
       id="text129108"
       x="-51.122356"
       y="176.35568">
      <tspan
         style="stroke-width:0.35277775"
         x="-51.122356 -50.20187 -48.206127 -46.210392 -44.214649 -43.446198 -42.525734 -41.450455 -39.913555 -38.22464 -36.687763 -35.15086 -34.075603 -33.307156 -31.61824 -30.697754 -29.008839 -26.551474"
         y="176.35568"
         sodipodi:role="line"
         id="tspan129110">tRNA transcriptome</tspan>
    </text>
    <g
       id="g129112"
       transform="matrix(0.35277777,0,0,-0.35277777,-141.8436,375.79157)">
      <g
         id="g129114"
         clip-path="url(#clipPath129116)">
        <g
           id="g129120"
           transform="translate(273.6626,588.9229)">
          <path
             d="M 0,0 C 0.303,0.095 0.454,0.143 0.758,0.235 0.89,-0.203 0.957,-0.422 1.089,-0.86 1.37,-0.775 1.51,-0.734 1.791,-0.652 1.854,-0.869 1.885,-0.978 1.947,-1.194 1.668,-1.275 1.53,-1.315 1.252,-1.399 c 0.31,-1.024 0.462,-1.537 0.771,-2.56 0.041,-0.137 0.12,-0.213 0.23,-0.231 0.062,-0.01 0.162,0.004 0.289,0.042 0.033,0.01 0.068,0.02 0.106,0.033 0.039,0.013 0.082,0.032 0.132,0.053 0.061,-0.21 0.092,-0.315 0.153,-0.525 C 2.859,-4.633 2.78,-4.673 2.697,-4.709 2.613,-4.744 2.524,-4.775 2.424,-4.806 2.1,-4.903 1.856,-4.892 1.692,-4.771 1.527,-4.65 1.405,-4.466 1.326,-4.215 1,-3.18 0.838,-2.663 0.512,-1.628 0.276,-1.702 0.158,-1.739 -0.077,-1.815 c -0.069,0.214 -0.105,0.322 -0.174,0.536 0.237,0.077 0.356,0.114 0.594,0.189 C 0.205,-0.654 0.138,-0.437 0,0"
             style="fill:#12110d;fill-opacity:1;fill-rule:nonzero;stroke:none"
             id="path129122"
             inkscape:connector-curvature="0" />
        </g>
        <g
           id="g129124"
           transform="translate(279.3081,588.187)">
          <path
             d="M 0,0 C 0.371,0.085 0.65,0.22 0.838,0.406 1.025,0.593 1.084,0.868 1.007,1.232 0.924,1.624 0.709,1.862 0.368,1.934 0.186,1.972 -0.044,1.959 -0.323,1.896 -1.12,1.713 -1.518,1.615 -2.31,1.408 -2.115,0.665 -2.018,0.294 -1.824,-0.449 -1.095,-0.259 -0.733,-0.169 0,0 M -3.318,1.816 C -2.19,2.126 -1.623,2.27 -0.486,2.53 -0.019,2.637 0.387,2.66 0.715,2.601 1.341,2.489 1.712,2.109 1.837,1.477 1.902,1.146 1.877,0.86 1.77,0.62 1.662,0.379 1.249,-0.015 1.249,-0.015 1.254,-0.034 1.7,-0.131 1.848,-0.25 c 0.146,-0.119 0.257,-0.338 0.336,-0.656 0.07,-0.293 0.106,-0.44 0.175,-0.733 0.05,-0.209 0.098,-0.36 0.147,-0.456 0.083,-0.164 0.189,-0.262 0.32,-0.289 0.01,-0.05 0.013,-0.075 0.023,-0.125 C 2.465,-2.583 2.276,-2.622 1.894,-2.702 1.857,-2.66 1.823,-2.604 1.791,-2.533 1.759,-2.462 1.717,-2.318 1.661,-2.106 1.564,-1.744 1.517,-1.562 1.419,-1.199 1.324,-0.844 1.133,-0.631 0.844,-0.568 0.681,-0.533 0.436,-0.552 0.115,-0.626 -0.599,-0.791 -0.956,-0.88 -1.666,-1.065 c 0.243,-0.933 0.365,-1.398 0.608,-2.331 -0.309,-0.08 -0.465,-0.123 -0.774,-0.207 -0.595,2.168 -0.892,3.251 -1.486,5.419"
             style="fill:#12110d;fill-opacity:1;fill-rule:nonzero;stroke:none"
             id="path129126"
             inkscape:connector-curvature="0" />
        </g>
        <g
           id="g129128"
           transform="translate(282.1851,591.3989)">
          <path
             d="M 0,0 C 0.402,0.071 0.604,0.106 1.007,0.171 2.556,-1.419 3.292,-2.235 4.68,-3.904 4.474,-2.1 4.371,-1.199 4.164,0.605 4.492,0.643 4.655,0.662 4.983,0.695 5.213,-1.541 5.326,-2.659 5.555,-4.895 5.2,-4.931 5.022,-4.952 4.668,-4.993 3.279,-3.329 2.545,-2.514 0.993,-0.931 1.288,-2.721 1.434,-3.615 1.729,-5.405 1.429,-5.455 1.28,-5.481 0.981,-5.534 0.59,-3.321 0.393,-2.213 0,0"
             style="fill:#12110d;fill-opacity:1;fill-rule:nonzero;stroke:none"
             id="path129130"
             inkscape:connector-curvature="0" />
        </g>
        <g
           id="g129132"
           transform="translate(291.9595,589.0962)">
          <path
             d="M 0,0 C -0.407,0.98 -0.616,1.469 -1.051,2.443 -1.405,1.432 -1.577,0.925 -1.902,-0.091 -1.143,-0.043 -0.761,-0.025 0,0 m -1.542,3.252 c 0.39,0.021 0.584,0.031 0.974,0.047 C 0.447,1.09 0.917,-0.025 1.78,-2.268 1.433,-2.271 1.261,-2.272 0.913,-2.279 c -0.258,0.668 -0.39,1.001 -0.66,1.667 -0.942,-0.029 -1.414,-0.051 -2.356,-0.114 -0.214,-0.689 -0.32,-1.033 -0.522,-1.724 -0.324,-0.025 -0.486,-0.038 -0.811,-0.068 0.679,2.318 1.058,3.473 1.894,5.77"
             style="fill:#12110d;fill-opacity:1;fill-rule:nonzero;stroke:none"
             id="path129134"
             inkscape:connector-curvature="0" />
        </g>
        <g
           id="g129136"
           transform="translate(299.3306,589.8208)">
          <path
             d="m 0,0 c -0.209,0.262 -0.489,0.406 -0.843,0.429 -0.529,0.034 -0.905,-0.173 -1.121,-0.617 -0.113,-0.237 -0.179,-0.553 -0.197,-0.945 -0.022,-0.461 0.061,-0.817 0.246,-1.068 0.184,-0.251 0.438,-0.384 0.768,-0.405 0.515,-0.033 0.897,0.161 1.144,0.588 0.139,0.241 0.221,0.531 0.249,0.867 C 0.288,-0.646 0.207,-0.261 0,0 M -0.035,0.743 C 0.101,0.646 0.235,0.503 0.369,0.321 0.387,0.527 0.395,0.629 0.412,0.835 0.693,0.812 0.833,0.799 1.114,0.772 0.975,-0.711 0.905,-1.454 0.766,-2.938 0.717,-3.456 0.6,-3.857 0.415,-4.143 0.075,-4.67 -0.489,-4.899 -1.288,-4.849 c -0.445,0.029 -0.816,0.149 -1.11,0.36 -0.297,0.211 -0.456,0.524 -0.476,0.946 0.289,-0.011 0.433,-0.015 0.721,-0.029 0.025,-0.185 0.085,-0.331 0.181,-0.436 0.151,-0.161 0.394,-0.251 0.734,-0.273 0.535,-0.034 0.9,0.124 1.097,0.481 0.117,0.211 0.235,1.16 0.235,1.16 -0.012,0.005 -0.347,-0.338 -0.556,-0.424 -0.209,-0.088 -0.475,-0.119 -0.805,-0.099 -0.459,0.029 -0.853,0.206 -1.186,0.536 -0.333,0.329 -0.491,0.857 -0.466,1.583 0.023,0.686 0.225,1.214 0.608,1.584 0.384,0.369 0.842,0.539 1.365,0.506 0.354,-0.023 0.662,-0.125 0.911,-0.303"
             style="fill:#12110d;fill-opacity:1;fill-rule:nonzero;stroke:none"
             id="path129138"
             inkscape:connector-curvature="0" />
        </g>
        <g
           id="g129140"
           transform="translate(304.396,588.3979)">
          <path
             d="M 0,0 C 0.017,0.3 -0.016,0.547 -0.098,0.74 -0.249,1.099 -0.565,1.316 -1.043,1.383 -1.387,1.431 -1.689,1.354 -1.95,1.157 -2.211,0.959 -2.367,0.686 -2.423,0.338 -1.452,0.222 -0.967,0.153 0,0 M -0.019,1.631 C 0.258,1.451 0.457,1.24 0.577,1 0.692,0.771 0.739,0.51 0.75,0.238 0.757,0.049 0.732,-0.256 0.663,-0.663 c -1.264,0.216 -1.896,0.307 -3.167,0.46 -0.035,-0.416 0.028,-0.76 0.189,-1.034 0.159,-0.274 0.434,-0.436 0.832,-0.492 0.372,-0.051 0.69,0.021 0.944,0.222 0.145,0.116 0.26,0.264 0.341,0.435 0.285,-0.045 0.427,-0.069 0.712,-0.117 -0.045,-0.145 -0.137,-0.301 -0.272,-0.465 -0.135,-0.164 -0.278,-0.294 -0.423,-0.39 -0.246,-0.163 -0.537,-0.259 -0.861,-0.285 -0.174,-0.014 -0.368,-0.008 -0.583,0.021 -0.522,0.073 -0.942,0.312 -1.267,0.723 -0.324,0.411 -0.457,0.948 -0.384,1.613 0.07,0.653 0.32,1.165 0.755,1.528 0.435,0.361 0.977,0.503 1.608,0.414 0.318,-0.045 0.617,-0.158 0.894,-0.339"
             style="fill:#12110d;fill-opacity:1;fill-rule:nonzero;stroke:none"
             id="path129142"
             inkscape:connector-curvature="0" />
        </g>
        <g
           id="g129144"
           transform="translate(306.3979,589.8008)">
          <path
             d="M 0,0 C 0.286,-0.053 0.431,-0.082 0.717,-0.138 L 0.604,-0.709 c 0.256,0.194 0.513,0.318 0.771,0.372 0.258,0.053 0.533,0.05 0.823,-0.014 0.634,-0.14 1.014,-0.442 1.14,-0.89 C 3.406,-1.485 3.393,-1.808 3.295,-2.21 3.046,-3.231 2.921,-3.741 2.672,-4.762 2.387,-4.693 2.246,-4.66 1.96,-4.593 c 0.232,1.006 0.347,1.509 0.579,2.515 0.057,0.244 0.065,0.451 0.02,0.618 C 2.483,-1.181 2.271,-1.002 1.925,-0.927 1.747,-0.889 1.597,-0.876 1.477,-0.884 1.263,-0.897 1.06,-0.968 0.873,-1.102 0.723,-1.21 0.616,-1.331 0.552,-1.464 0.486,-1.599 0.427,-1.796 0.375,-2.059 0.209,-2.901 0.127,-3.322 -0.039,-4.165 -0.321,-4.109 -0.463,-4.083 -0.746,-4.03 -0.447,-2.418 -0.3,-1.612 0,0"
             style="fill:#12110d;fill-opacity:1;fill-rule:nonzero;stroke:none"
             id="path129146"
             inkscape:connector-curvature="0" />
        </g>
        <g
           id="g129148"
           transform="translate(313.6196,586.2397)">
          <path
             d="M 0,0 C 0.061,0.294 0.062,0.543 0.008,0.747 -0.093,1.125 -0.375,1.385 -0.842,1.521 -1.177,1.619 -1.492,1.588 -1.78,1.431 -2.068,1.273 -2.259,1.025 -2.365,0.689 -1.415,0.432 -0.942,0.294 0,0 M 0.215,1.617 C 0.465,1.398 0.634,1.16 0.719,0.905 0.801,0.662 0.812,0.395 0.782,0.125 0.762,-0.062 0.695,-0.361 0.567,-0.754 c -1.229,0.399 -1.847,0.583 -3.09,0.92 -0.096,-0.406 -0.084,-0.758 0.035,-1.052 0.119,-0.295 0.373,-0.494 0.761,-0.608 0.363,-0.105 0.692,-0.081 0.974,0.082 0.161,0.093 0.297,0.224 0.401,0.381 0.279,-0.086 0.416,-0.131 0.694,-0.221 -0.065,-0.137 -0.179,-0.279 -0.338,-0.422 -0.158,-0.143 -0.319,-0.25 -0.478,-0.323 -0.268,-0.124 -0.571,-0.177 -0.898,-0.155 -0.177,0.011 -0.369,0.046 -0.578,0.106 -0.512,0.149 -0.895,0.446 -1.158,0.901 -0.265,0.455 -0.321,1.005 -0.154,1.653 0.164,0.637 0.485,1.106 0.971,1.401 0.486,0.295 1.045,0.355 1.662,0.174 0.312,-0.09 0.594,-0.246 0.844,-0.466"
             style="fill:#12110d;fill-opacity:1;fill-rule:nonzero;stroke:none"
             id="path129150"
             inkscape:connector-curvature="0" />
        </g>
        <g
           id="g129152"
           transform="translate(256.4751,602.8667)">
          <path
             d="m 0,0 c 0.179,-0.063 0.367,-0.065 0.565,-0.003 0.241,0.075 0.458,0.2 0.652,0.376 0.326,0.294 0.431,0.643 0.31,1.048 C 1.463,1.633 1.431,1.738 1.368,1.95 1.298,1.874 1.202,1.798 1.079,1.723 0.956,1.647 0.832,1.585 0.708,1.531 0.547,1.459 0.465,1.423 0.304,1.351 0.063,1.241 -0.108,1.132 -0.212,1.025 -0.389,0.844 -0.439,0.627 -0.36,0.378 -0.3,0.189 -0.18,0.064 0,0 M 0.904,2.226 C 1.058,2.294 1.145,2.391 1.168,2.513 1.181,2.581 1.173,2.671 1.14,2.782 1.072,3.007 0.937,3.145 0.737,3.196 0.536,3.247 0.278,3.223 -0.039,3.125 -0.405,3.013 -0.638,2.838 -0.731,2.604 -0.785,2.475 -0.791,2.304 -0.752,2.093 -1.013,2.01 -1.144,1.97 -1.404,1.886 c -0.142,0.485 -0.083,0.875 0.178,1.166 0.261,0.291 0.605,0.503 1.03,0.635 C 0.298,3.839 0.727,3.873 1.086,3.788 1.443,3.704 1.677,3.473 1.786,3.101 2.052,2.195 2.186,1.742 2.451,0.836 2.471,0.768 2.503,0.718 2.545,0.684 2.587,0.651 2.653,0.646 2.748,0.674 2.778,0.683 2.812,0.696 2.849,0.711 2.886,0.726 2.926,0.744 2.967,0.763 3.024,0.567 3.052,0.469 3.109,0.273 3.01,0.213 2.934,0.17 2.88,0.147 2.827,0.124 2.752,0.1 2.655,0.071 2.419,0.002 2.224,0.03 2.071,0.16 1.99,0.228 1.843,0.486 1.843,0.486 c -0.02,0 -0.24,-0.43 -0.462,-0.638 -0.222,-0.21 -0.488,-0.362 -0.801,-0.46 -0.377,-0.118 -0.717,-0.105 -1.027,0.037 -0.309,0.143 -0.518,0.378 -0.625,0.707 -0.117,0.361 -0.091,0.68 0.084,0.955 0.174,0.276 0.448,0.499 0.823,0.667 0.427,0.191 0.64,0.285 1.069,0.472"
             style="fill:#12110d;fill-opacity:1;fill-rule:nonzero;stroke:none"
             id="path129154"
             inkscape:connector-curvature="0" />
        </g>
        <g
           id="g129156"
           transform="translate(259.1318,607.2944)">
          <path
             d="m 0,0 c 0.27,0.076 0.405,0.114 0.674,0.189 0.063,-0.224 0.091,-0.338 0.154,-0.563 0.134,0.287 0.3,0.512 0.497,0.673 C 1.521,0.461 1.757,0.58 2.032,0.652 2.633,0.812 3.092,0.719 3.403,0.38 3.574,0.195 3.708,-0.099 3.809,-0.5 4.068,-1.519 4.198,-2.029 4.456,-3.048 4.175,-3.119 4.035,-3.155 3.754,-3.228 3.495,-2.229 3.366,-1.727 3.106,-0.728 3.043,-0.485 2.955,-0.299 2.84,-0.171 2.65,0.043 2.387,0.104 2.057,0.017 1.889,-0.028 1.755,-0.083 1.657,-0.142 1.48,-0.249 1.336,-0.403 1.235,-0.605 1.154,-0.769 1.114,-0.924 1.117,-1.072 1.121,-1.221 1.161,-1.425 1.232,-1.683 1.461,-2.51 1.574,-2.924 1.803,-3.751 1.528,-3.827 1.391,-3.866 1.117,-3.943 0.669,-2.367 0.447,-1.577 0,0"
             style="fill:#12110d;fill-opacity:1;fill-rule:nonzero;stroke:none"
             id="path129158"
             inkscape:connector-curvature="0" />
        </g>
        <g
           id="g129160"
           transform="translate(263.5073,609.6265)">
          <path
             d="m 0,0 c 0.291,0.071 0.436,0.105 0.728,0.175 0.105,-0.445 0.16,-0.667 0.265,-1.112 0.272,0.065 0.406,0.097 0.679,0.16 0.051,-0.22 0.075,-0.33 0.126,-0.549 -0.271,-0.063 -0.405,-0.094 -0.676,-0.158 0.247,-1.041 0.372,-1.561 0.619,-2.602 0.033,-0.139 0.104,-0.22 0.211,-0.244 0.061,-0.014 0.155,-0.007 0.281,0.022 0.034,0.008 0.072,0.017 0.11,0.028 0.038,0.01 0.079,0.025 0.129,0.044 C 2.521,-4.449 2.545,-4.557 2.594,-4.77 2.52,-4.811 2.442,-4.844 2.359,-4.875 2.275,-4.905 2.185,-4.933 2.085,-4.956 1.762,-5.032 1.523,-5.004 1.369,-4.873 1.215,-4.741 1.106,-4.548 1.044,-4.293 0.787,-3.239 0.659,-2.712 0.402,-1.658 0.173,-1.713 0.06,-1.741 -0.169,-1.798 c -0.055,0.218 -0.083,0.329 -0.137,0.547 0.23,0.057 0.345,0.085 0.576,0.142 C 0.161,-0.665 0.108,-0.444 0,0"
             style="fill:#12110d;fill-opacity:1;fill-rule:nonzero;stroke:none"
             id="path129162"
             inkscape:connector-curvature="0" />
        </g>
        <g
           id="g129164"
           transform="translate(265.8989,608.9937)">
          <path
             d="M 0,0 C 0.291,0.066 0.437,0.099 0.729,0.163 1.078,-1.43 1.254,-2.228 1.604,-3.821 1.321,-3.883 1.182,-3.914 0.899,-3.978 0.541,-2.387 0.359,-1.591 0,0 m -0.337,1.504 c 0.295,0.067 0.44,0.1 0.734,0.165 C 0.464,1.364 0.5,1.212 0.567,0.907 0.274,0.843 0.125,0.809 -0.168,0.743 -0.236,1.047 -0.269,1.2 -0.337,1.504"
             style="fill:#12110d;fill-opacity:1;fill-rule:nonzero;stroke:none"
             id="path129166"
             inkscape:connector-curvature="0" />
        </g>
        <g
           id="g129168"
           transform="translate(270.5767,609.7568)">
          <path
             d="M 0,0 C 0.344,-0.164 0.594,-0.512 0.753,-1.04 0.476,-1.091 0.339,-1.116 0.062,-1.168 c -0.089,0.239 -0.225,0.428 -0.408,0.564 -0.182,0.135 -0.443,0.169 -0.778,0.104 -0.456,-0.09 -0.74,-0.368 -0.85,-0.827 -0.071,-0.298 -0.063,-0.646 0.019,-1.045 0.083,-0.401 0.242,-0.722 0.476,-0.96 0.232,-0.239 0.536,-0.318 0.914,-0.244 0.29,0.057 0.501,0.187 0.638,0.39 0.138,0.203 0.214,0.459 0.223,0.769 0.274,0.051 0.41,0.076 0.684,0.126 C 1,-2.839 0.877,-3.266 0.612,-3.571 0.348,-3.876 -0.023,-4.073 -0.505,-4.168 c -0.541,-0.107 -1.012,-0.006 -1.415,0.31 -0.403,0.316 -0.667,0.76 -0.789,1.333 -0.149,0.704 -0.087,1.29 0.194,1.758 0.282,0.468 0.709,0.758 1.275,0.869 C -0.757,0.197 -0.344,0.163 0,0"
             style="fill:#12110d;fill-opacity:1;fill-rule:nonzero;stroke:none"
             id="path129170"
             inkscape:connector-curvature="0" />
        </g>
        <g
           id="g129172"
           transform="translate(274.9487,607.5488)">
          <path
             d="M 0,0 C 0.119,0.367 0.147,0.759 0.083,1.177 0.025,1.556 -0.083,1.853 -0.246,2.07 -0.503,2.412 -0.881,2.545 -1.371,2.465 -1.806,2.394 -2.095,2.182 -2.237,1.832 -2.38,1.482 -2.41,1.083 -2.333,0.636 -2.259,0.207 -2.104,-0.133 -1.861,-0.387 -1.619,-0.64 -1.286,-0.731 -0.867,-0.663 -0.407,-0.588 -0.119,-0.368 0,0 M 0.03,2.759 C 0.462,2.469 0.728,1.984 0.827,1.309 0.923,0.656 0.836,0.092 0.574,-0.383 0.312,-0.858 -0.158,-1.148 -0.839,-1.259 c -0.568,-0.093 -1.05,0.016 -1.45,0.333 -0.401,0.316 -0.66,0.791 -0.774,1.423 -0.121,0.677 -0.039,1.249 0.253,1.713 0.292,0.466 0.748,0.749 1.363,0.849 0.551,0.09 1.045,-0.01 1.477,-0.3"
             style="fill:#12110d;fill-opacity:1;fill-rule:nonzero;stroke:none"
             id="path129174"
             inkscape:connector-curvature="0" />
        </g>
        <g
           id="g129176"
           transform="translate(277.5542,607.8579)">
          <path
             d="m 0,0 c 0.229,-0.268 0.555,-0.376 0.973,-0.323 0.325,0.041 0.571,0.21 0.749,0.507 0.176,0.297 0.237,0.7 0.177,1.21 C 1.839,1.908 1.685,2.277 1.435,2.497 1.185,2.717 0.898,2.806 0.573,2.765 0.211,2.719 -0.066,2.552 -0.256,2.26 -0.445,1.967 -0.502,1.564 -0.433,1.054 -0.373,0.619 -0.229,0.268 0,0 M 1.21,3.25 C 1.348,3.189 1.509,3.073 1.694,2.902 1.598,3.725 1.551,4.136 1.454,4.958 1.736,4.992 1.878,5.008 2.16,5.04 2.41,2.798 2.537,1.677 2.787,-0.565 2.534,-0.593 2.407,-0.607 2.154,-0.637 2.128,-0.411 2.114,-0.297 2.088,-0.07 1.953,-0.341 1.781,-0.545 1.572,-0.683 1.362,-0.822 1.115,-0.911 0.828,-0.947 0.365,-1.006 -0.062,-0.869 -0.455,-0.536 -0.848,-0.203 -1.09,0.279 -1.18,0.911 -1.264,1.501 -1.181,2.035 -0.923,2.512 -0.665,2.99 -0.236,3.269 0.358,3.345 0.687,3.387 0.972,3.354 1.21,3.25"
             style="fill:#12110d;fill-opacity:1;fill-rule:nonzero;stroke:none"
             id="path129178"
             inkscape:connector-curvature="0" />
        </g>
        <g
           id="g129180"
           transform="translate(283.9106,608.6089)">
          <path
             d="M 0,0 C 0.145,0.358 0.201,0.748 0.167,1.169 0.137,1.551 0.052,1.855 -0.095,2.083 -0.326,2.443 -0.69,2.603 -1.185,2.559 -1.622,2.52 -1.928,2.328 -2.095,1.989 -2.262,1.65 -2.32,1.255 -2.275,0.804 -2.232,0.371 -2.1,0.02 -1.877,-0.251 -1.654,-0.521 -1.331,-0.637 -0.909,-0.599 -0.446,-0.557 -0.145,-0.359 0,0 M 0.228,2.75 C 0.637,2.43 0.864,1.927 0.915,1.247 0.964,0.588 0.839,0.032 0.545,-0.423 0.25,-0.878 -0.237,-1.134 -0.923,-1.196 c -0.572,-0.052 -1.042,0.095 -1.418,0.44 -0.377,0.345 -0.6,0.834 -0.668,1.473 -0.072,0.684 0.052,1.25 0.375,1.692 0.324,0.443 0.799,0.693 1.417,0.748 0.555,0.05 1.035,-0.087 1.445,-0.407"
             style="fill:#12110d;fill-opacity:1;fill-rule:nonzero;stroke:none"
             id="path129182"
             inkscape:connector-curvature="0" />
        </g>
        <g
           id="g129184"
           transform="translate(285.5757,611.8745)">
          <path
             d="M 0,0 C 0.277,0.019 0.416,0.026 0.693,0.043 0.708,-0.189 0.716,-0.305 0.73,-0.537 0.92,-0.285 1.125,-0.101 1.349,0.017 1.572,0.134 1.825,0.2 2.106,0.214 2.723,0.245 3.147,0.06 3.379,-0.336 3.507,-0.553 3.578,-0.868 3.595,-1.281 3.637,-2.332 3.658,-2.858 3.699,-3.908 3.412,-3.919 3.267,-3.925 2.979,-3.938 2.934,-2.906 2.91,-2.39 2.863,-1.358 2.852,-1.109 2.804,-0.908 2.72,-0.759 2.579,-0.51 2.339,-0.395 2,-0.412 1.828,-0.421 1.687,-0.445 1.579,-0.483 1.386,-0.551 1.215,-0.672 1.075,-0.848 0.963,-0.991 0.893,-1.136 0.865,-1.281 0.838,-1.428 0.831,-1.635 0.848,-1.902 0.9,-2.759 0.929,-3.187 0.98,-4.044 0.698,-4.061 0.558,-4.071 0.275,-4.09 0.166,-2.455 0.109,-1.635 0,0"
             style="fill:#12110d;fill-opacity:1;fill-rule:nonzero;stroke:none"
             id="path129186"
             inkscape:connector-curvature="0" />
        </g>
        <g
           id="g129188"
           transform="translate(292.4976,612.1304)">
          <path
             d="M 0,0 C 0.297,0.004 0.442,0.006 0.739,0.008 0.751,-1.624 0.758,-2.439 0.769,-4.07 0.481,-4.072 0.339,-4.074 0.052,-4.078 0.031,-2.447 0.021,-1.631 0,0 M -0.021,1.543 C 0.278,1.547 0.431,1.548 0.73,1.55 0.732,1.238 0.733,1.081 0.735,0.769 0.437,0.767 0.289,0.765 -0.01,0.761 -0.014,1.073 -0.018,1.231 -0.021,1.543"
             style="fill:#12110d;fill-opacity:1;fill-rule:nonzero;stroke:none"
             id="path129190"
             inkscape:connector-curvature="0" />
        </g>
        <g
           id="g129192"
           transform="translate(294.7612,609.3462)">
          <path
             d="m 0,0 c 0.02,-0.229 0.08,-0.406 0.179,-0.528 0.18,-0.224 0.495,-0.337 0.945,-0.343 0.268,-0.004 0.505,0.048 0.711,0.154 0.206,0.108 0.313,0.277 0.318,0.509 C 2.157,-0.033 2.074,0.107 1.913,0.199 1.811,0.257 1.605,0.325 1.297,0.403 1.066,0.462 0.952,0.492 0.721,0.55 0.353,0.641 0.079,0.74 -0.096,0.846 c -0.309,0.189 -0.472,0.446 -0.472,0.775 0,0.388 0.149,0.701 0.45,0.94 C 0.182,2.8 0.589,2.917 1.096,2.91 1.759,2.901 2.235,2.709 2.517,2.34 2.694,2.107 2.773,1.856 2.762,1.591 2.488,1.598 2.354,1.602 2.08,1.607 2.069,1.763 2.016,1.913 1.913,2.033 1.759,2.215 1.449,2.313 1.027,2.318 0.746,2.322 0.535,2.274 0.39,2.176 0.244,2.078 0.169,1.948 0.168,1.785 0.167,1.607 0.264,1.464 0.449,1.356 0.558,1.293 0.718,1.233 0.929,1.183 1.122,1.136 1.221,1.112 1.414,1.064 1.938,0.936 2.287,0.812 2.463,0.695 2.738,0.512 2.871,0.232 2.86,-0.145 2.851,-0.51 2.695,-0.821 2.4,-1.079 2.105,-1.338 1.665,-1.46 1.078,-1.453 0.446,-1.444 0.004,-1.305 -0.26,-1.027 -0.523,-0.749 -0.669,-0.406 -0.687,0.002 -0.413,0.002 -0.274,0.001 0,0"
             style="fill:#12110d;fill-opacity:1;fill-rule:nonzero;stroke:none"
             id="path129194"
             inkscape:connector-curvature="0" />
        </g>
        <g
           id="g129196"
           transform="translate(301.0112,608.8403)">
          <path
             d="M 0,0 C 0.191,0.335 0.299,0.712 0.323,1.135 0.345,1.517 0.302,1.831 0.187,2.077 0.008,2.465 -0.331,2.672 -0.826,2.695 -1.265,2.716 -1.592,2.569 -1.803,2.256 -2.014,1.943 -2.129,1.56 -2.146,1.107 c -0.016,-0.435 0.07,-0.802 0.253,-1.1 0.184,-0.298 0.485,-0.456 0.908,-0.476 C -0.521,-0.491 -0.192,-0.336 0,0 M 0.6,2.693 C 0.961,2.32 1.12,1.791 1.077,1.11 1.035,0.451 0.834,-0.083 0.48,-0.494 0.127,-0.905 -0.393,-1.09 -1.079,-1.058 c -0.573,0.027 -1.018,0.235 -1.343,0.627 -0.325,0.393 -0.481,0.909 -0.461,1.551 0.022,0.687 0.221,1.231 0.601,1.625 0.381,0.395 0.884,0.578 1.504,0.549 C -0.223,3.268 0.238,3.066 0.6,2.693"
             style="fill:#12110d;fill-opacity:1;fill-rule:nonzero;stroke:none"
             id="path129198"
             inkscape:connector-curvature="0" />
        </g>
        <g
           id="g129200"
           transform="translate(303.6274,608.3218)">
          <path
             d="m 0,0 c 0.141,-0.125 0.315,-0.196 0.521,-0.213 0.249,-0.02 0.493,0.017 0.735,0.108 0.409,0.152 0.635,0.435 0.673,0.856 0.019,0.221 0.03,0.33 0.05,0.551 C 1.888,1.256 1.771,1.223 1.631,1.199 1.489,1.175 1.352,1.163 1.219,1.158 1.044,1.152 0.956,1.147 0.781,1.141 0.521,1.128 0.32,1.092 0.185,1.031 -0.045,0.929 -0.169,0.746 -0.188,0.485 -0.203,0.287 -0.14,0.125 0,0 M 1.655,1.731 C 1.822,1.737 1.937,1.796 2.003,1.9 2.04,1.958 2.065,2.043 2.076,2.158 2.098,2.393 2.025,2.572 1.86,2.693 1.694,2.815 1.448,2.891 1.121,2.918 0.744,2.949 0.469,2.871 0.296,2.689 0.199,2.589 0.13,2.434 0.087,2.224 -0.183,2.244 -0.317,2.253 -0.587,2.272 -0.538,2.776 -0.343,3.116 0.004,3.289 0.351,3.462 0.747,3.533 1.187,3.496 1.695,3.454 2.102,3.324 2.4,3.112 2.696,2.901 2.826,2.6 2.789,2.214 2.698,1.274 2.651,0.804 2.561,-0.136 2.554,-0.207 2.563,-0.266 2.589,-0.312 2.614,-0.358 2.678,-0.386 2.773,-0.396 2.806,-0.398 2.842,-0.4 2.881,-0.4 c 0.039,0 0.084,0.002 0.13,0.004 C 2.99,-0.598 2.977,-0.699 2.956,-0.902 2.844,-0.921 2.758,-0.932 2.7,-0.933 2.644,-0.935 2.566,-0.932 2.468,-0.922 2.225,-0.899 2.051,-0.799 1.959,-0.623 1.911,-0.53 1.875,-0.233 1.875,-0.233 1.857,-0.227 1.493,-0.542 1.213,-0.653 0.933,-0.765 0.63,-0.809 0.307,-0.783 c -0.389,0.031 -0.696,0.168 -0.927,0.415 -0.232,0.248 -0.335,0.545 -0.312,0.89 0.027,0.379 0.169,0.666 0.431,0.857 C -0.239,1.57 0.094,1.674 0.5,1.69 0.963,1.709 1.192,1.716 1.655,1.731"
             style="fill:#12110d;fill-opacity:1;fill-rule:nonzero;stroke:none"
             id="path129202"
             inkscape:connector-curvature="0" />
        </g>
        <g
           id="g129204"
           transform="translate(310.5356,610.8916)">
          <path
             d="m 0,0 c 0.276,-0.262 0.404,-0.67 0.393,-1.221 -0.28,0.037 -0.418,0.056 -0.698,0.092 -0.01,0.255 -0.08,0.474 -0.212,0.659 -0.131,0.184 -0.365,0.3 -0.703,0.341 -0.461,0.055 -0.816,-0.123 -1.06,-0.525 -0.158,-0.262 -0.26,-0.597 -0.304,-1.002 -0.045,-0.407 0.007,-0.761 0.154,-1.059 0.148,-0.299 0.411,-0.468 0.792,-0.514 0.292,-0.034 0.534,0.022 0.728,0.174 0.191,0.15 0.341,0.372 0.444,0.664 0.277,-0.035 0.416,-0.054 0.693,-0.091 -0.151,-0.528 -0.399,-0.894 -0.745,-1.104 -0.345,-0.209 -0.756,-0.283 -1.243,-0.226 -0.547,0.065 -0.962,0.308 -1.247,0.732 -0.285,0.425 -0.399,0.93 -0.339,1.513 0.075,0.715 0.315,1.252 0.725,1.61 0.41,0.359 0.904,0.505 1.475,0.437 C -0.66,0.422 -0.276,0.261 0,0"
             style="fill:#12110d;fill-opacity:1;fill-rule:nonzero;stroke:none"
             id="path129206"
             inkscape:connector-curvature="0" />
        </g>
        <g
           id="g129208"
           transform="translate(314.647,610.2935)">
          <path
             d="m 0,0 c 0.268,-0.271 0.387,-0.683 0.357,-1.233 -0.278,0.046 -0.418,0.068 -0.696,0.113 -0.003,0.256 -0.065,0.479 -0.191,0.668 -0.126,0.189 -0.358,0.312 -0.694,0.363 -0.459,0.07 -0.817,-0.098 -1.074,-0.491 -0.167,-0.256 -0.283,-0.587 -0.341,-0.99 -0.057,-0.407 -0.017,-0.762 0.12,-1.065 0.138,-0.303 0.398,-0.481 0.778,-0.538 0.291,-0.045 0.536,0.005 0.734,0.15 0.196,0.144 0.354,0.36 0.467,0.648 0.275,-0.044 0.412,-0.066 0.687,-0.112 -0.167,-0.523 -0.426,-0.881 -0.779,-1.079 -0.352,-0.198 -0.766,-0.258 -1.251,-0.185 -0.545,0.083 -0.952,0.337 -1.223,0.771 -0.272,0.434 -0.369,0.941 -0.29,1.522 0.098,0.713 0.355,1.243 0.777,1.588 0.422,0.345 0.92,0.475 1.488,0.389 C -0.645,0.444 -0.269,0.27 0,0"
             style="fill:#12110d;fill-opacity:1;fill-rule:nonzero;stroke:none"
             id="path129210"
             inkscape:connector-curvature="0" />
        </g>
        <g
           id="g129212"
           transform="translate(318.5269,608.0708)">
          <path
             d="M 0,0 C 0.028,0.299 0.008,0.548 -0.062,0.743 -0.193,1.105 -0.487,1.331 -0.944,1.416 -1.271,1.477 -1.565,1.414 -1.827,1.229 -2.088,1.043 -2.255,0.779 -2.328,0.435 -1.396,0.27 -0.931,0.183 0,0 M 0.053,1.63 C 0.311,1.441 0.49,1.226 0.596,0.984 0.696,0.753 0.739,0.491 0.739,0.217 c 0,-0.189 -0.036,-0.493 -0.118,-0.898 -1.223,0.247 -1.834,0.364 -3.06,0.58 -0.06,-0.413 -0.019,-0.76 0.123,-1.042 0.141,-0.281 0.406,-0.457 0.795,-0.529 0.364,-0.068 0.676,-0.007 0.933,0.186 0.148,0.111 0.265,0.254 0.352,0.422 C 0.04,-1.119 0.179,-1.147 0.455,-1.203 0.406,-1.347 0.313,-1.498 0.175,-1.659 0.036,-1.82 -0.11,-1.945 -0.256,-2.036 c -0.25,-0.156 -0.54,-0.24 -0.861,-0.254 -0.172,-0.007 -0.363,0.007 -0.574,0.046 -0.512,0.095 -0.914,0.357 -1.209,0.785 -0.295,0.428 -0.39,0.97 -0.278,1.629 0.111,0.648 0.386,1.144 0.826,1.483 0.441,0.341 0.964,0.457 1.565,0.345 0.303,-0.057 0.582,-0.179 0.84,-0.368"
             style="fill:#12110d;fill-opacity:1;fill-rule:nonzero;stroke:none"
             id="path129214"
             inkscape:connector-curvature="0" />
        </g>
        <g
           id="g129216"
           transform="translate(322.4155,605.6968)">
          <path
             d="M 0,0 C 0.276,0.211 0.478,0.579 0.6,1.1 0.674,1.418 0.69,1.702 0.646,1.952 0.562,2.432 0.278,2.735 -0.216,2.846 -0.712,2.957 -1.104,2.796 -1.387,2.371 -1.538,2.144 -1.654,1.836 -1.737,1.452 -1.804,1.143 -1.812,0.87 -1.763,0.632 -1.669,0.181 -1.385,-0.1 -0.903,-0.208 -0.577,-0.282 -0.276,-0.211 0,0 M -1.97,3.723 C -1.688,3.664 -1.55,3.634 -1.269,3.573 -1.314,3.361 -1.336,3.256 -1.382,3.044 -1.199,3.195 -1.01,3.3 -0.82,3.364 -0.548,3.456 -0.244,3.472 0.083,3.398 0.566,3.289 0.938,3.019 1.193,2.593 1.447,2.167 1.494,1.632 1.34,0.99 1.131,0.123 0.742,-0.441 0.184,-0.702 c -0.355,-0.166 -0.73,-0.203 -1.125,-0.113 -0.312,0.07 -0.559,0.196 -0.743,0.373 -0.106,0.101 -0.216,0.259 -0.33,0.474 -0.175,-0.818 -0.265,-1.227 -0.441,-2.045 -0.274,0.059 -0.411,0.088 -0.686,0.145 0.469,2.236 0.703,3.354 1.171,5.591"
             style="fill:#12110d;fill-opacity:1;fill-rule:nonzero;stroke:none"
             id="path129218"
             inkscape:connector-curvature="0" />
        </g>
        <g
           id="g129220"
           transform="translate(325.4585,609.4644)">
          <path
             d="M 0,0 C 0.291,-0.072 0.436,-0.109 0.727,-0.184 0.613,-0.627 0.556,-0.849 0.442,-1.292 0.713,-1.361 0.849,-1.395 1.119,-1.466 1.062,-1.684 1.036,-1.793 0.979,-2.011 0.71,-1.94 0.573,-1.906 0.304,-1.837 0.039,-2.874 -0.095,-3.391 -0.358,-4.428 c -0.036,-0.138 -0.006,-0.245 0.077,-0.316 0.047,-0.04 0.133,-0.076 0.259,-0.109 0.033,-0.008 0.069,-0.018 0.108,-0.026 0.039,-0.008 0.086,-0.016 0.139,-0.022 -0.055,-0.212 -0.083,-0.318 -0.139,-0.53 -0.085,-0.002 -0.171,0.005 -0.26,0.016 -0.088,0.013 -0.18,0.03 -0.28,0.056 -0.32,0.082 -0.522,0.219 -0.597,0.407 -0.075,0.188 -0.081,0.409 -0.017,0.664 0.261,1.053 0.393,1.58 0.656,2.633 -0.229,0.057 -0.342,0.084 -0.571,0.14 0.053,0.219 0.077,0.328 0.13,0.547 0.231,-0.056 0.348,-0.084 0.578,-0.141 C -0.165,-0.666 -0.11,-0.444 0,0"
             style="fill:#12110d;fill-opacity:1;fill-rule:nonzero;stroke:none"
             id="path129222"
             inkscape:connector-curvature="0" />
        </g>
        <g
           id="g129224"
           transform="translate(329.0376,604.0728)">
          <path
             d="M 0,0 C 0.264,0.283 0.457,0.627 0.575,1.033 0.683,1.4 0.709,1.715 0.652,1.981 0.562,2.399 0.274,2.679 -0.206,2.814 -0.633,2.935 -0.986,2.866 -1.265,2.609 -1.543,2.352 -1.739,2.005 -1.858,1.567 c -0.115,-0.42 -0.114,-0.796 0,-1.129 0.114,-0.332 0.376,-0.556 0.787,-0.671 C -0.62,-0.36 -0.265,-0.283 0,0 M 1.198,2.486 C 1.47,2.04 1.505,1.49 1.31,0.836 1.121,0.204 0.803,-0.271 0.362,-0.59 c -0.44,-0.319 -0.992,-0.383 -1.66,-0.196 -0.558,0.157 -0.95,0.46 -1.182,0.917 -0.232,0.456 -0.267,0.996 -0.102,1.618 0.176,0.664 0.493,1.149 0.956,1.446 0.463,0.298 1,0.363 1.603,0.193 0.541,-0.153 0.95,-0.455 1.221,-0.902"
             style="fill:#12110d;fill-opacity:1;fill-rule:nonzero;stroke:none"
             id="path129226"
             inkscape:connector-curvature="0" />
        </g>
        <g
           id="g129228"
           transform="translate(331.7925,606.519)">
          <path
             d="M 0,0 C 0.269,-0.082 0.402,-0.124 0.67,-0.207 0.585,-0.478 0.543,-0.612 0.459,-0.882 0.555,-0.768 0.74,-0.65 1.013,-0.53 1.286,-0.408 1.562,-0.392 1.841,-0.482 1.854,-0.486 1.875,-0.496 1.904,-0.508 1.936,-0.521 1.99,-0.542 2.063,-0.575 1.974,-0.851 1.927,-0.99 1.837,-1.266 1.798,-1.245 1.763,-1.229 1.729,-1.214 1.693,-1.201 1.656,-1.186 1.614,-1.172 1.262,-1.059 0.957,-1.081 0.701,-1.233 0.443,-1.387 0.273,-1.602 0.187,-1.879 c -0.282,-0.9 -0.419,-1.351 -0.702,-2.25 -0.273,0.085 -0.41,0.128 -0.683,0.212 C -0.717,-2.35 -0.481,-1.567 0,0"
             style="fill:#12110d;fill-opacity:1;fill-rule:nonzero;stroke:none"
             id="path129230"
             inkscape:connector-curvature="0" />
        </g>
        <g
           id="g129232"
           transform="translate(262.269,625.1362)">
          <path
             d="m 0,0 c 0.18,-0.063 0.367,-0.064 0.565,-0.003 0.243,0.075 0.458,0.2 0.654,0.375 0.329,0.294 0.44,0.642 0.32,1.048 C 1.477,1.632 1.441,1.738 1.379,1.951 1.309,1.874 1.211,1.798 1.087,1.724 0.963,1.649 0.837,1.585 0.713,1.531 0.55,1.459 0.472,1.424 0.31,1.352 0.066,1.243 -0.104,1.133 -0.21,1.026 -0.388,0.845 -0.44,0.628 -0.361,0.378 -0.302,0.189 -0.18,0.064 0,0 M 0.916,2.227 C 1.071,2.294 1.157,2.393 1.181,2.515 1.193,2.583 1.186,2.672 1.153,2.783 1.087,3.008 0.953,3.146 0.751,3.197 0.549,3.248 0.29,3.226 -0.029,3.128 -0.398,3.015 -0.634,2.84 -0.729,2.606 -0.783,2.477 -0.788,2.306 -0.75,2.095 -1.013,2.012 -1.145,1.97 -1.406,1.885 c -0.143,0.486 -0.082,0.876 0.181,1.168 0.264,0.291 0.611,0.506 1.04,0.637 0.498,0.153 0.929,0.185 1.291,0.1 C 1.466,3.705 1.7,3.472 1.808,3.099 2.069,2.192 2.2,1.738 2.462,0.831 2.481,0.762 2.513,0.711 2.555,0.677 2.596,0.645 2.664,0.644 2.759,0.671 2.789,0.68 2.822,0.688 2.859,0.703 2.896,0.718 2.936,0.737 2.978,0.756 3.033,0.56 3.061,0.462 3.116,0.267 3.018,0.207 2.941,0.164 2.888,0.141 2.834,0.118 2.759,0.092 2.662,0.064 2.426,-0.004 2.229,0.027 2.076,0.157 1.995,0.226 1.852,0.484 1.852,0.484 1.832,0.484 1.605,0.056 1.383,-0.152 1.16,-0.361 0.893,-0.515 0.578,-0.612 0.2,-0.729 -0.141,-0.715 -0.451,-0.573 c -0.311,0.143 -0.518,0.377 -0.624,0.706 -0.117,0.361 -0.09,0.678 0.086,0.953 0.176,0.276 0.448,0.502 0.825,0.669 0.43,0.192 0.648,0.285 1.08,0.472"
             style="fill:#12110d;fill-opacity:1;fill-rule:nonzero;stroke:none"
             id="path129234"
             inkscape:connector-curvature="0" />
        </g>
        <g
           id="g129236"
           transform="translate(264.9644,629.5591)">
          <path
             d="M 0,0 C 0.283,0.078 0.426,0.117 0.709,0.193 0.77,-0.031 0.799,-0.145 0.859,-0.37 0.976,-0.129 1.092,0.055 1.207,0.18 1.402,0.392 1.652,0.537 1.954,0.614 2.295,0.702 2.587,0.693 2.834,0.588 2.974,0.528 3.241,0.273 3.25,0.274 3.293,0.282 3.508,0.729 3.699,0.883 3.891,1.038 4.122,1.146 4.393,1.208 4.971,1.342 5.409,1.236 5.702,0.894 5.86,0.708 5.977,0.439 6.054,0.085 6.287,-0.98 6.402,-1.513 6.636,-2.579 6.347,-2.643 6.203,-2.674 5.914,-2.739 5.663,-1.628 5.537,-1.074 5.286,0.037 5.226,0.303 5.113,0.47 4.949,0.537 4.785,0.604 4.6,0.614 4.395,0.566 4.113,0.501 3.89,0.355 3.729,0.129 3.569,-0.095 3.541,-0.415 3.642,-0.825 3.867,-1.751 3.979,-2.214 4.205,-3.141 3.923,-3.209 3.781,-3.245 3.5,-3.315 3.239,-2.278 3.11,-1.758 2.85,-0.721 2.782,-0.452 2.699,-0.262 2.6,-0.158 2.447,0 2.216,0.043 1.919,-0.034 1.649,-0.104 1.431,-0.266 1.262,-0.519 1.094,-0.772 1.077,-1.154 1.214,-1.665 1.439,-2.504 1.555,-2.922 1.78,-3.762 1.504,-3.836 1.365,-3.874 1.09,-3.95 0.653,-2.37 0.437,-1.58 0,0"
             style="fill:#12110d;fill-opacity:1;fill-rule:nonzero;stroke:none"
             id="path129238"
             inkscape:connector-curvature="0" />
        </g>
        <g
           id="g129240"
           transform="translate(271.7935,631.1909)">
          <path
             d="M 0,0 C 0.295,0.062 0.443,0.092 0.738,0.151 1.06,-1.448 1.221,-2.248 1.542,-3.847 1.258,-3.904 1.116,-3.933 0.833,-3.992 0.5,-2.395 0.333,-1.597 0,0 M -0.312,1.509 C -0.013,1.571 0.137,1.602 0.436,1.662 0.497,1.356 0.525,1.204 0.587,0.898 0.29,0.838 0.144,0.808 -0.153,0.746 -0.217,1.052 -0.248,1.204 -0.312,1.509"
             style="fill:#12110d;fill-opacity:1;fill-rule:nonzero;stroke:none"
             id="path129242"
             inkscape:connector-curvature="0" />
        </g>
        <g
           id="g129244"
           transform="translate(273.6265,631.5762)">
          <path
             d="M 0,0 C 0.276,0.053 0.412,0.079 0.688,0.129 0.73,-0.1 0.751,-0.215 0.793,-0.444 0.953,-0.17 1.14,0.039 1.351,0.183 1.562,0.326 1.807,0.421 2.088,0.469 2.703,0.574 3.151,0.44 3.43,0.074 3.583,-0.126 3.694,-0.43 3.759,-0.839 3.922,-1.878 3.999,-2.397 4.162,-3.436 3.877,-3.48 3.732,-3.502 3.447,-3.549 3.28,-2.53 3.198,-2.021 3.031,-1.001 2.991,-0.755 2.921,-0.562 2.818,-0.425 2.648,-0.193 2.395,-0.106 2.057,-0.164 1.885,-0.193 1.746,-0.236 1.642,-0.287 1.456,-0.377 1.296,-0.518 1.177,-0.71 1.081,-0.866 1.03,-1.018 1.02,-1.166 1.01,-1.315 1.03,-1.52 1.078,-1.783 1.233,-2.627 1.31,-3.05 1.465,-3.895 1.185,-3.946 1.045,-3.972 0.765,-4.025 0.458,-2.415 0.307,-1.61 0,0"
             style="fill:#12110d;fill-opacity:1;fill-rule:nonzero;stroke:none"
             id="path129246"
             inkscape:connector-curvature="0" />
        </g>
        <g
           id="g129248"
           transform="translate(281.311,629.605)">
          <path
             d="M 0,0 C 0.131,0.363 0.172,0.755 0.122,1.175 0.077,1.556 -0.024,1.856 -0.181,2.078 -0.428,2.428 -0.8,2.572 -1.295,2.507 -1.734,2.45 -2.032,2.247 -2.188,1.901 -2.343,1.555 -2.386,1.159 -2.322,0.71 c 0.061,-0.431 0.211,-0.777 0.446,-1.039 0.235,-0.26 0.561,-0.361 0.982,-0.306 C -0.431,-0.574 -0.132,-0.364 0,0 M 0.123,2.756 C 0.548,2.452 0.795,1.959 0.871,1.28 0.944,0.624 0.84,0.065 0.562,-0.401 0.283,-0.867 -0.197,-1.141 -0.882,-1.23 c -0.572,-0.076 -1.051,0.047 -1.443,0.376 -0.393,0.328 -0.639,0.809 -0.734,1.444 -0.101,0.681 0,1.251 0.308,1.707 0.309,0.457 0.776,0.727 1.398,0.808 0.558,0.073 1.051,-0.044 1.476,-0.349"
             style="fill:#12110d;fill-opacity:1;fill-rule:nonzero;stroke:none"
             id="path129250"
             inkscape:connector-curvature="0" />
        </g>
        <g
           id="g129252"
           transform="translate(286.2368,629.7397)">
          <path
             d="m 0,0 c 0.159,-0.103 0.34,-0.146 0.544,-0.132 0.25,0.017 0.491,0.09 0.718,0.215 C 1.645,0.294 1.827,0.606 1.803,1.029 1.79,1.25 1.784,1.362 1.771,1.583 1.687,1.524 1.573,1.472 1.437,1.428 1.302,1.383 1.168,1.35 1.036,1.326 0.863,1.294 0.779,1.278 0.606,1.245 0.348,1.194 0.153,1.127 0.028,1.047 -0.184,0.911 -0.279,0.713 -0.259,0.452 -0.243,0.254 -0.159,0.104 0,0 M 1.385,1.957 C 1.55,1.988 1.659,2.063 1.709,2.175 1.737,2.238 1.75,2.328 1.743,2.443 1.729,2.678 1.632,2.844 1.448,2.939 1.265,3.035 1.007,3.073 0.677,3.051 0.295,3.025 0.032,2.908 -0.112,2.702 -0.193,2.588 -0.239,2.426 -0.25,2.211 -0.521,2.191 -0.657,2.181 -0.928,2.159 -0.957,2.664 -0.811,3.029 -0.491,3.252 -0.172,3.476 0.212,3.604 0.656,3.634 1.169,3.668 1.595,3.601 1.924,3.435 2.251,3.27 2.423,2.989 2.442,2.602 2.49,1.659 2.513,1.189 2.561,0.247 2.564,0.175 2.582,0.117 2.614,0.074 2.646,0.033 2.713,0.015 2.811,0.02 2.842,0.021 2.879,0.024 2.919,0.03 2.957,0.036 2.999,0.044 3.044,0.053 3.054,-0.15 3.058,-0.252 3.067,-0.455 2.958,-0.49 2.876,-0.514 2.818,-0.523 2.761,-0.534 2.681,-0.541 2.581,-0.546 2.337,-0.558 2.156,-0.484 2.038,-0.323 1.976,-0.238 1.895,0.048 1.895,0.048 1.876,0.052 1.562,-0.314 1.3,-0.465 1.037,-0.618 0.745,-0.706 0.421,-0.729 c -0.39,-0.027 -0.715,0.064 -0.982,0.274 -0.265,0.209 -0.415,0.486 -0.444,0.83 -0.032,0.379 0.069,0.684 0.3,0.912 0.232,0.229 0.546,0.381 0.946,0.458 0.457,0.088 0.685,0.129 1.144,0.212"
             style="fill:#12110d;fill-opacity:1;fill-rule:nonzero;stroke:none"
             id="path129254"
             inkscape:connector-curvature="0" />
        </g>
        <g
           id="g129256"
           transform="translate(292.7261,633.2856)">
          <path
             d="M 0,0 C 0.312,-0.221 0.5,-0.605 0.566,-1.152 0.284,-1.155 0.144,-1.156 -0.139,-1.16 c -0.046,0.251 -0.148,0.46 -0.305,0.624 -0.158,0.164 -0.408,0.243 -0.75,0.234 -0.467,-0.011 -0.794,-0.237 -0.981,-0.671 -0.12,-0.281 -0.169,-0.625 -0.154,-1.031 0.015,-0.41 0.113,-0.753 0.303,-1.027 0.188,-0.275 0.474,-0.404 0.859,-0.395 0.296,0.008 0.528,0.099 0.697,0.275 0.17,0.176 0.289,0.416 0.351,0.719 0.279,0.004 0.418,0.006 0.697,0.008 -0.075,-0.543 -0.271,-0.941 -0.583,-1.197 -0.311,-0.255 -0.713,-0.388 -1.202,-0.4 -0.55,-0.014 -0.992,0.167 -1.336,0.545 -0.344,0.379 -0.532,0.861 -0.557,1.447 -0.03,0.719 0.129,1.286 0.486,1.7 0.355,0.414 0.827,0.629 1.405,0.642 C -0.715,0.325 -0.312,0.22 0,0"
             style="fill:#12110d;fill-opacity:1;fill-rule:nonzero;stroke:none"
             id="path129258"
             inkscape:connector-curvature="0" />
        </g>
        <g
           id="g129260"
           transform="translate(294.019,633.4937)">
          <path
             d="M 0,0 C 0.299,0 0.449,0 0.748,-0.002 0.739,-1.633 0.735,-2.449 0.727,-4.08 0.438,-4.079 0.292,-4.079 0.004,-4.079 0.002,-2.448 0.002,-1.631 0,0 m -0.002,1.543 c 0.304,0 0.454,0 0.758,-0.002 C 0.754,1.229 0.753,1.073 0.751,0.761 0.449,0.763 0.299,0.763 -0.003,0.763 c 0,0.312 0.001,0.468 0.001,0.78"
             style="fill:#12110d;fill-opacity:1;fill-rule:nonzero;stroke:none"
             id="path129262"
             inkscape:connector-curvature="0" />
        </g>
        <g
           id="g129264"
           transform="translate(296.5698,630.2871)">
          <path
             d="M 0,0 C 0.186,-0.3 0.486,-0.455 0.908,-0.468 1.236,-0.479 1.51,-0.35 1.732,-0.085 1.955,0.181 2.08,0.568 2.102,1.081 2.123,1.598 2.025,1.986 1.812,2.242 1.6,2.499 1.327,2.635 0.998,2.645 0.631,2.657 0.331,2.531 0.099,2.271 -0.134,2.012 -0.255,1.623 -0.266,1.107 -0.274,0.669 -0.186,0.3 0,0 M 1.709,3.023 C 1.836,2.941 1.979,2.801 2.137,2.603 2.171,3.43 2.189,3.844 2.224,4.671 2.51,4.66 2.651,4.653 2.938,4.639 2.829,2.386 2.776,1.259 2.668,-0.995 c -0.255,0.013 -0.382,0.02 -0.637,0.031 0.01,0.228 0.013,0.341 0.023,0.569 C 1.878,-0.641 1.678,-0.815 1.449,-0.918 1.22,-1.022 0.96,-1.069 0.67,-1.061 c -0.468,0.014 -0.867,0.214 -1.204,0.603 -0.336,0.39 -0.503,0.902 -0.495,1.54 0.008,0.596 0.172,1.112 0.502,1.543 0.33,0.432 0.801,0.642 1.405,0.624 C 1.212,3.238 1.489,3.163 1.709,3.023"
             style="fill:#12110d;fill-opacity:1;fill-rule:nonzero;stroke:none"
             id="path129266"
             inkscape:connector-curvature="0" />
        </g>
        <g
           id="g129268"
           transform="translate(302.854,633.1479)">
          <path
             d="M 0,0 C 0.299,-0.024 0.446,-0.037 0.745,-0.062 0.604,-1.688 0.535,-2.5 0.395,-4.126 0.107,-4.101 -0.037,-4.088 -0.324,-4.065 -0.195,-2.439 -0.13,-1.626 0,0 M 0.119,1.538 C 0.422,1.514 0.574,1.501 0.877,1.475 0.851,1.164 0.839,1.009 0.812,0.698 0.511,0.724 0.36,0.736 0.06,0.76 0.084,1.071 0.095,1.227 0.119,1.538"
             style="fill:#12110d;fill-opacity:1;fill-rule:nonzero;stroke:none"
             id="path129270"
             inkscape:connector-curvature="0" />
        </g>
        <g
           id="g129272"
           transform="translate(304.8638,630.1616)">
          <path
             d="m 0,0 c -0.002,-0.23 0.041,-0.41 0.128,-0.542 0.16,-0.24 0.466,-0.382 0.916,-0.432 0.268,-0.03 0.508,-0.003 0.725,0.082 0.216,0.087 0.338,0.245 0.367,0.475 0.021,0.174 -0.045,0.322 -0.198,0.43 C 1.842,0.081 1.641,0.168 1.339,0.276 1.114,0.357 1,0.398 0.774,0.478 0.413,0.604 0.148,0.729 -0.017,0.852 -0.309,1.069 -0.445,1.342 -0.414,1.67 -0.377,2.056 -0.196,2.352 0.128,2.56 0.452,2.769 0.87,2.848 1.38,2.792 2.046,2.718 2.505,2.478 2.751,2.083 2.906,1.833 2.964,1.576 2.927,1.312 2.653,1.347 2.517,1.365 2.243,1.398 2.247,1.554 2.204,1.708 2.113,1.838 1.976,2.035 1.679,2.162 1.255,2.208 0.974,2.24 0.752,2.213 0.596,2.129 0.439,2.046 0.355,1.923 0.339,1.761 0.32,1.584 0.401,1.432 0.578,1.306 0.681,1.232 0.838,1.159 1.046,1.088 1.236,1.022 1.33,0.991 1.52,0.924 2.033,0.745 2.371,0.586 2.535,0.452 2.793,0.242 2.896,-0.05 2.849,-0.424 2.802,-0.786 2.618,-1.081 2.298,-1.308 1.978,-1.536 1.525,-1.614 0.939,-1.549 c -0.63,0.07 -1.063,0.253 -1.299,0.554 -0.237,0.3 -0.347,0.655 -0.327,1.063 C -0.412,0.042 -0.274,0.028 0,0"
             style="fill:#12110d;fill-opacity:1;fill-rule:nonzero;stroke:none"
             id="path129274"
             inkscape:connector-curvature="0" />
        </g>
        <g
           id="g129276"
           transform="translate(311.0737,629.0298)">
          <path
             d="M 0,0 C 0.227,0.312 0.373,0.676 0.441,1.094 0.503,1.472 0.491,1.789 0.402,2.046 0.262,2.451 -0.057,2.692 -0.551,2.767 -0.989,2.833 -1.331,2.72 -1.576,2.431 -1.821,2.141 -1.975,1.772 -2.037,1.324 -2.098,0.893 -2.051,0.52 -1.896,0.204 -1.742,-0.111 -1.455,-0.3 -1.034,-0.364 -0.572,-0.435 -0.228,-0.313 0,0 M 0.883,2.614 C 1.207,2.204 1.31,1.661 1.194,0.988 1.083,0.337 0.827,-0.172 0.43,-0.543 0.032,-0.914 -0.505,-1.042 -1.188,-0.939 c -0.572,0.086 -0.996,0.337 -1.283,0.761 -0.286,0.424 -0.39,0.953 -0.305,1.59 0.09,0.682 0.344,1.202 0.766,1.555 0.422,0.353 0.948,0.484 1.569,0.39 0.556,-0.085 1,-0.334 1.324,-0.743"
             style="fill:#12110d;fill-opacity:1;fill-rule:nonzero;stroke:none"
             id="path129278"
             inkscape:connector-curvature="0" />
        </g>
        <g
           id="g129280"
           transform="translate(313.8394,632.8936)">
          <path
             d="M 0,0 C 0.297,-0.054 0.446,-0.081 0.743,-0.136 0.659,-0.586 0.614,-0.811 0.53,-1.26 0.807,-1.312 0.943,-1.338 1.219,-1.392 1.176,-1.612 1.158,-1.723 1.115,-1.944 0.841,-1.891 0.702,-1.865 0.428,-1.813 0.23,-2.864 0.132,-3.39 -0.065,-4.442 -0.092,-4.582 -0.057,-4.686 0.031,-4.752 0.08,-4.789 0.169,-4.82 0.297,-4.845 0.331,-4.851 0.368,-4.858 0.408,-4.864 0.446,-4.87 0.49,-4.874 0.543,-4.877 0.501,-5.092 0.481,-5.2 0.439,-5.415 c -0.084,-0.008 -0.168,-0.006 -0.257,0 -0.089,0.008 -0.186,0.02 -0.286,0.04 -0.327,0.061 -0.532,0.182 -0.62,0.365 -0.088,0.183 -0.11,0.404 -0.063,0.662 0.193,1.068 0.292,1.602 0.484,2.67 -0.233,0.042 -0.347,0.062 -0.581,0.103 0.039,0.222 0.056,0.332 0.095,0.554 0.234,-0.041 0.351,-0.061 0.585,-0.104 C -0.123,-0.674 -0.081,-0.45 0,0"
             style="fill:#12110d;fill-opacity:1;fill-rule:nonzero;stroke:none"
             id="path129282"
             inkscape:connector-curvature="0" />
        </g>
        <g
           id="g129284"
           transform="translate(318.479,630.7812)">
          <path
             d="M 0,0 C 0.319,-0.073 0.479,-0.109 0.798,-0.184 0.638,-0.416 0.271,-0.946 -0.28,-1.78 -0.695,-2.408 -1.034,-2.922 -1.302,-3.317 -1.931,-4.248 -2.346,-4.811 -2.557,-5 c -0.211,-0.189 -0.512,-0.243 -0.909,-0.162 -0.097,0.02 -0.173,0.04 -0.222,0.058 -0.05,0.018 -0.109,0.044 -0.182,0.08 0.05,0.246 0.071,0.368 0.121,0.614 0.114,-0.056 0.195,-0.093 0.248,-0.112 0.053,-0.019 0.101,-0.031 0.142,-0.04 0.127,-0.025 0.227,-0.025 0.296,0.004 0.067,0.028 0.126,0.068 0.18,0.12 0.017,0.018 0.085,0.11 0.202,0.276 0.118,0.167 0.205,0.293 0.26,0.375 -0.262,1.781 -0.404,2.671 -0.717,4.453 C -2.809,0.601 -2.645,0.568 -2.316,0.5 -2.122,-0.902 -2.03,-1.603 -1.864,-3.004 -1.132,-1.797 -0.76,-1.196 0,0"
             style="fill:#12110d;fill-opacity:1;fill-rule:nonzero;stroke:none"
             id="path129286"
             inkscape:connector-curvature="0" />
        </g>
        <g
           id="g129288"
           transform="translate(321.7085,626.6528)">
          <path
             d="M 0,0 C 0.286,0.202 0.499,0.561 0.64,1.077 0.726,1.393 0.751,1.677 0.716,1.929 0.648,2.413 0.367,2.726 -0.128,2.854 -0.625,2.983 -1.025,2.837 -1.323,2.419 -1.482,2.196 -1.609,1.893 -1.704,1.512 -1.78,1.205 -1.796,0.933 -1.754,0.693 -1.674,0.237 -1.394,-0.05 -0.914,-0.175 -0.589,-0.259 -0.286,-0.202 0,0 M -1.873,3.79 C -1.592,3.722 -1.451,3.688 -1.17,3.618 -1.223,3.407 -1.246,3.303 -1.299,3.092 c 0.19,0.145 0.384,0.244 0.577,0.302 0.278,0.083 0.583,0.089 0.911,0.003 C 0.676,3.27 1.045,2.986 1.287,2.55 1.529,2.115 1.559,1.578 1.381,0.942 1.141,0.082 0.73,-0.466 0.161,-0.707 -0.2,-0.859 -0.577,-0.885 -0.972,-0.782 c -0.311,0.081 -0.556,0.217 -0.734,0.398 -0.104,0.105 -0.212,0.268 -0.32,0.487 -0.202,-0.813 -0.3,-1.219 -0.501,-2.032 -0.273,0.068 -0.41,0.1 -0.683,0.166 0.535,2.221 0.802,3.332 1.337,5.553"
             style="fill:#12110d;fill-opacity:1;fill-rule:nonzero;stroke:none"
             id="path129290"
             inkscape:connector-curvature="0" />
        </g>
        <g
           id="g129292"
           transform="translate(326.7944,626.7383)">
          <path
             d="M 0,0 C 0.062,0.293 0.065,0.542 0.016,0.746 -0.076,1.122 -0.345,1.381 -0.796,1.519 -1.117,1.617 -1.422,1.588 -1.705,1.434 -1.987,1.279 -2.184,1.034 -2.296,0.701 -1.375,0.431 -0.916,0.291 0,0 M 0.229,1.613 C 0.468,1.396 0.63,1.159 0.709,0.907 0.785,0.665 0.794,0.399 0.763,0.127 0.741,-0.06 0.675,-0.357 0.547,-0.75 c -1.201,0.39 -1.805,0.576 -3.015,0.93 -0.105,-0.404 -0.1,-0.754 0.011,-1.05 0.112,-0.296 0.357,-0.5 0.74,-0.616 0.357,-0.109 0.68,-0.084 0.96,0.077 0.16,0.093 0.294,0.22 0.399,0.377 0.271,-0.086 0.409,-0.13 0.68,-0.218 -0.064,-0.137 -0.176,-0.275 -0.334,-0.419 -0.157,-0.143 -0.315,-0.252 -0.472,-0.326 -0.268,-0.124 -0.57,-0.177 -0.893,-0.153 -0.175,0.013 -0.365,0.05 -0.571,0.113 -0.504,0.153 -0.877,0.457 -1.127,0.916 -0.249,0.459 -0.287,1.008 -0.104,1.652 0.18,0.632 0.508,1.094 0.989,1.382 0.481,0.288 1.021,0.343 1.615,0.162 0.299,-0.092 0.566,-0.247 0.804,-0.464"
             style="fill:#12110d;fill-opacity:1;fill-rule:nonzero;stroke:none"
             id="path129294"
             inkscape:connector-curvature="0" />
        </g>
      </g>
    </g>
  </g>
</svg>
