<?xml version="1.0" encoding="UTF-8" standalone="no"?>
<!-- Created with Inkscape (http://www.inkscape.org/) -->

<svg
   xmlns:dc="http://purl.org/dc/elements/1.1/"
   xmlns:cc="http://creativecommons.org/ns#"
   xmlns:rdf="http://www.w3.org/1999/02/22-rdf-syntax-ns#"
   xmlns:svg="http://www.w3.org/2000/svg"
   xmlns="http://www.w3.org/2000/svg"
   xmlns:sodipodi="http://sodipodi.sourceforge.net/DTD/sodipodi-0.dtd"
   xmlns:inkscape="http://www.inkscape.org/namespaces/inkscape"
   width="45.078625mm"
   height="19.06217mm"
   viewBox="0 0 45.078625 19.06217"
   id="svg23560"
   version="1.1"
   inkscape:version="0.91+devel+osxmenu r12911"
   sodipodi:docname="legend-1.svg">
  <defs
     id="defs23562">
    <clipPath
       id="clipPath4161"
       clipPathUnits="userSpaceOnUse">
      <path
         inkscape:connector-curvature="0"
         id="path4163"
         d="m 86,178 423,0 0,484 -423,0 0,-484 z" />
    </clipPath>
    <clipPath
       id="clipPath23360"
       clipPathUnits="userSpaceOnUse">
      <path
         inkscape:connector-curvature="0"
         id="path23362"
         d="m 86,178 423,0 0,484 -423,0 0,-484 z" />
    </clipPath>
    <clipPath
       id="clipPath23364"
       clipPathUnits="userSpaceOnUse">
      <path
         inkscape:connector-curvature="0"
         id="path23366"
         d="m 86,178 423,0 0,484 -423,0 0,-484 z" />
    </clipPath>
    <clipPath
       id="clipPath23368"
       clipPathUnits="userSpaceOnUse">
      <path
         inkscape:connector-curvature="0"
         id="path23370"
         d="m 86,178 423,0 0,484 -423,0 0,-484 z" />
    </clipPath>
    <clipPath
       id="clipPath23372"
       clipPathUnits="userSpaceOnUse">
      <path
         inkscape:connector-curvature="0"
         id="path23374"
         d="m 86,178 423,0 0,484 -423,0 0,-484 z" />
    </clipPath>
    <clipPath
       id="clipPath23376"
       clipPathUnits="userSpaceOnUse">
      <path
         inkscape:connector-curvature="0"
         id="path23378"
         d="m 86,178 423,0 0,484 -423,0 0,-484 z" />
    </clipPath>
    <clipPath
       id="clipPath23380"
       clipPathUnits="userSpaceOnUse">
      <path
         inkscape:connector-curvature="0"
         id="path23382"
         d="m 86,178 423,0 0,484 -423,0 0,-484 z" />
    </clipPath>
    <clipPath
       id="clipPath23384"
       clipPathUnits="userSpaceOnUse">
      <path
         inkscape:connector-curvature="0"
         id="path23386"
         d="m 86,178 423,0 0,484 -423,0 0,-484 z" />
    </clipPath>
    <clipPath
       id="clipPath23388"
       clipPathUnits="userSpaceOnUse">
      <path
         inkscape:connector-curvature="0"
         id="path23390"
         d="m 86,178 423,0 0,484 -423,0 0,-484 z" />
    </clipPath>
    <clipPath
       id="clipPath23392"
       clipPathUnits="userSpaceOnUse">
      <path
         inkscape:connector-curvature="0"
         id="path23394"
         d="m 86,178 423,0 0,484 -423,0 0,-484 z" />
    </clipPath>
    <clipPath
       id="clipPath23396"
       clipPathUnits="userSpaceOnUse">
      <path
         inkscape:connector-curvature="0"
         id="path23398"
         d="m 86,178 423,0 0,484 -423,0 0,-484 z" />
    </clipPath>
    <clipPath
       id="clipPath23400"
       clipPathUnits="userSpaceOnUse">
      <path
         inkscape:connector-curvature="0"
         id="path23402"
         d="m 86,178 423,0 0,484 -423,0 0,-484 z" />
    </clipPath>
    <clipPath
       id="clipPath23404"
       clipPathUnits="userSpaceOnUse">
      <path
         inkscape:connector-curvature="0"
         id="path23406"
         d="m 86,178 423,0 0,484 -423,0 0,-484 z" />
    </clipPath>
    <clipPath
       id="clipPath23408"
       clipPathUnits="userSpaceOnUse">
      <path
         inkscape:connector-curvature="0"
         id="path23410"
         d="m 86,178 423,0 0,484 -423,0 0,-484 z" />
    </clipPath>
    <clipPath
       id="clipPath23412"
       clipPathUnits="userSpaceOnUse">
      <path
         inkscape:connector-curvature="0"
         id="path23414"
         d="m 86,178 423,0 0,484 -423,0 0,-484 z" />
    </clipPath>
    <clipPath
       id="clipPath23416"
       clipPathUnits="userSpaceOnUse">
      <path
         inkscape:connector-curvature="0"
         id="path23418"
         d="m 86,178 423,0 0,484 -423,0 0,-484 z" />
    </clipPath>
    <clipPath
       id="clipPath23420"
       clipPathUnits="userSpaceOnUse">
      <path
         inkscape:connector-curvature="0"
         id="path23422"
         d="m 86,178 423,0 0,484 -423,0 0,-484 z" />
    </clipPath>
    <clipPath
       id="clipPath23424"
       clipPathUnits="userSpaceOnUse">
      <path
         inkscape:connector-curvature="0"
         id="path23426"
         d="m 86,178 423,0 0,484 -423,0 0,-484 z" />
    </clipPath>
    <clipPath
       id="clipPath4161-6"
       clipPathUnits="userSpaceOnUse">
      <path
         inkscape:connector-curvature="0"
         id="path4163-7"
         d="m 86,178 423,0 0,484 -423,0 0,-484 z" />
    </clipPath>
    <clipPath
       id="clipPath24612"
       clipPathUnits="userSpaceOnUse">
      <path
         inkscape:connector-curvature="0"
         id="path24614"
         d="m 86,178 423,0 0,484 -423,0 0,-484 z" />
    </clipPath>
    <clipPath
       id="clipPath24616"
       clipPathUnits="userSpaceOnUse">
      <path
         inkscape:connector-curvature="0"
         id="path24618"
         d="m 86,178 423,0 0,484 -423,0 0,-484 z" />
    </clipPath>
    <clipPath
       id="clipPath24620"
       clipPathUnits="userSpaceOnUse">
      <path
         inkscape:connector-curvature="0"
         id="path24622"
         d="m 86,178 423,0 0,484 -423,0 0,-484 z" />
    </clipPath>
    <clipPath
       id="clipPath24624"
       clipPathUnits="userSpaceOnUse">
      <path
         inkscape:connector-curvature="0"
         id="path24626"
         d="m 86,178 423,0 0,484 -423,0 0,-484 z" />
    </clipPath>
    <clipPath
       id="clipPath24628"
       clipPathUnits="userSpaceOnUse">
      <path
         inkscape:connector-curvature="0"
         id="path24630"
         d="m 86,178 423,0 0,484 -423,0 0,-484 z" />
    </clipPath>
    <clipPath
       id="clipPath24632"
       clipPathUnits="userSpaceOnUse">
      <path
         inkscape:connector-curvature="0"
         id="path24634"
         d="m 86,178 423,0 0,484 -423,0 0,-484 z" />
    </clipPath>
    <clipPath
       id="clipPath24636"
       clipPathUnits="userSpaceOnUse">
      <path
         inkscape:connector-curvature="0"
         id="path24638"
         d="m 86,178 423,0 0,484 -423,0 0,-484 z" />
    </clipPath>
    <clipPath
       id="clipPath24640"
       clipPathUnits="userSpaceOnUse">
      <path
         inkscape:connector-curvature="0"
         id="path24642"
         d="m 86,178 423,0 0,484 -423,0 0,-484 z" />
    </clipPath>
    <clipPath
       id="clipPath24644"
       clipPathUnits="userSpaceOnUse">
      <path
         inkscape:connector-curvature="0"
         id="path24646"
         d="m 86,178 423,0 0,484 -423,0 0,-484 z" />
    </clipPath>
    <clipPath
       id="clipPath24648"
       clipPathUnits="userSpaceOnUse">
      <path
         inkscape:connector-curvature="0"
         id="path24650"
         d="m 86,178 423,0 0,484 -423,0 0,-484 z" />
    </clipPath>
    <clipPath
       id="clipPath24652"
       clipPathUnits="userSpaceOnUse">
      <path
         inkscape:connector-curvature="0"
         id="path24654"
         d="m 86,178 423,0 0,484 -423,0 0,-484 z" />
    </clipPath>
    <clipPath
       id="clipPath24656"
       clipPathUnits="userSpaceOnUse">
      <path
         inkscape:connector-curvature="0"
         id="path24658"
         d="m 86,178 423,0 0,484 -423,0 0,-484 z" />
    </clipPath>
    <clipPath
       id="clipPath24660"
       clipPathUnits="userSpaceOnUse">
      <path
         inkscape:connector-curvature="0"
         id="path24662"
         d="m 86,178 423,0 0,484 -423,0 0,-484 z" />
    </clipPath>
    <clipPath
       id="clipPath24664"
       clipPathUnits="userSpaceOnUse">
      <path
         inkscape:connector-curvature="0"
         id="path24666"
         d="m 86,178 423,0 0,484 -423,0 0,-484 z" />
    </clipPath>
    <clipPath
       id="clipPath24668"
       clipPathUnits="userSpaceOnUse">
      <path
         inkscape:connector-curvature="0"
         id="path24670"
         d="m 86,178 423,0 0,484 -423,0 0,-484 z" />
    </clipPath>
    <clipPath
       id="clipPath24672"
       clipPathUnits="userSpaceOnUse">
      <path
         inkscape:connector-curvature="0"
         id="path24674"
         d="m 86,178 423,0 0,484 -423,0 0,-484 z" />
    </clipPath>
    <clipPath
       id="clipPath24676"
       clipPathUnits="userSpaceOnUse">
      <path
         inkscape:connector-curvature="0"
         id="path24678"
         d="m 86,178 423,0 0,484 -423,0 0,-484 z" />
    </clipPath>
  </defs>
  <sodipodi:namedview
     id="base"
     pagecolor="#ffffff"
     bordercolor="#666666"
     borderopacity="1.0"
     inkscape:pageopacity="0.0"
     inkscape:pageshadow="2"
     inkscape:zoom="1.979899"
     inkscape:cx="37.248155"
     inkscape:cy="42.255749"
     inkscape:document-units="mm"
     inkscape:current-layer="layer1"
     showgrid="false"
     fit-margin-top="0"
     fit-margin-left="0"
     fit-margin-right="0"
     fit-margin-bottom="0"
     inkscape:window-width="1280"
     inkscape:window-height="756"
     inkscape:window-x="1920"
     inkscape:window-y="22"
     inkscape:window-maximized="0" />
  <metadata
     id="metadata23565">
    <rdf:RDF>
      <cc:Work
         rdf:about="">
        <dc:format>image/svg+xml</dc:format>
        <dc:type
           rdf:resource="http://purl.org/dc/dcmitype/StillImage" />
        <dc:title></dc:title>
      </cc:Work>
    </rdf:RDF>
  </metadata>
  <g
     inkscape:label="Layer 1"
     inkscape:groupmode="layer"
     id="layer1"
     transform="translate(-45.855163,-113.53614)">
    <g
       id="g24580"
       transform="translate(-20.870961,8.5019314)">
      <g
         style="fill:#429eb6;fill-opacity:1;stroke:#000000;stroke-width:11.37353897;stroke-miterlimit:10;stroke-dasharray:none;stroke-opacity:1"
         transform="matrix(0.00879344,0,0,-0.00879344,66.888122,122.68757)"
         id="g12687"
         clip-path="url(#clipPath4161)">
        <g
           style="fill:#429eb6;fill-opacity:1;stroke:#000000;stroke-width:11.37353897;stroke-miterlimit:10;stroke-dasharray:none;stroke-opacity:1"
           id="g12689">
          <g
             style="fill:#429eb6;fill-opacity:1;stroke:#000000;stroke-width:11.37353897;stroke-miterlimit:10;stroke-dasharray:none;stroke-opacity:1"
             id="g12691"
             transform="translate(0,842)">
            <path
               inkscape:connector-curvature="0"
               id="path12693"
               d="m 284,-664.8418 c -29.03008,0 -52.68555,23.65547 -52.68555,52.68555 0,20.38337 11.91666,38.06689 29.15235,46.27148 l -0.13282,103.77344 0,0.0156 c 0.009,1.99669 -0.48241,2.88593 -0.76953,3.19531 -0.28711,0.30938 -0.65281,0.69127 -2.63867,0.59961 l -0.13672,-0.006 -73.29492,0.13476 c -8.93903,-15.78728 -25.95664,-26.5135 -45.49414,-26.5135 -29.03008,0 -52.685547,23.65547 -52.685547,52.68555 0,29.03008 23.655467,52.68555 52.685547,52.68555 20.35355,0 37.9479,-11.61165 46.54688,-28.33594 l 72.09179,0.33594 c 1.34724,0.006 1.9041,0.36073 2.20899,0.64843 0.30412,0.28699 0.54697,0.6309 0.56836,1.625 l 0.91796,150.83008 11.3711,-0.0703 -0.91797,-150.94531 0,-0.041 c -0.0737,-3.6251 -1.51266,-7.19562 -4.13477,-9.66992 -2.62165,-2.47386 -6.23487,-3.73072 -9.96093,-3.74805 l -0.002,0 -79.375,-0.37109 -1.46875,3.50781 c -6.03197,14.4007 -20.68122,24.86328 -37.8457,24.86328 -22.88392,0 -41.314453,-18.43053 -41.314453,-41.31445 0,-22.88392 18.430533,-41.31445 41.314453,-41.31445 16.46177,0 30.59102,9.59853 37.05078,23.26367 l 1.54102,3.26367 80.08203,-0.14844 -0.27149,-0.006 c 4.36214,0.20134 8.68741,-1.19598 11.49805,-4.22461 2.81064,-3.02862 3.82261,-7.03616 3.80469,-10.98046 l 0.14258,-111.25196 -3.67774,-1.39258 c -14.81074,-5.60958 -25.48437,-20.25892 -25.48437,-37.36523 0,-22.88392 18.43053,-41.31445 41.31445,-41.31445 22.88392,0 41.31445,18.43053 41.31445,41.31445 0,16.46624 -9.57556,30.6493 -23.58789,37.58789 l -3.14648,1.55859 -0.51172,111.13672 0,0.004 c -0.005,1.62199 0.18254,3.44951 1.45703,5.33008 1.27449,1.88057 3.82573,3.10173 5.71289,3.22656 3.77432,0.24965 5.79875,-1.17745 8.25,-2.58594 4.90251,-2.81698 10.57781,-7.27354 16.61133,-11.48828 6.03352,-4.21474 12.39084,-8.084 17.0332,-9.52734 2.32118,-0.72168 4.08797,-0.80306 5.12305,-0.57032 1.00705,0.22645 1.57593,0.53048 2.45703,1.89258 0.4245,0.74655 0.51661,1.27582 0.19727,2.5918 -0.33057,1.36222 -1.30927,3.36411 -2.89844,5.57227 -3.17834,4.41631 -8.59161,9.55568 -13.78125,14.24414 -5.18964,4.68845 -10.0096,8.57705 -13.0332,12.94726 -0.75591,1.09256 -1.46626,2.25445 -1.87305,3.94531 -0.4068,1.69087 -0.22586,4.31607 1.16211,6.21875 1.38796,1.90268 3.23795,2.69195 4.80664,3.11524 1.56868,0.42329 3.09596,0.53995 4.83398,0.54883 l 85.29297,0.44531 1.49024,-3.45313 c 5.723,-13.27203 19.77763,-22.89843 36.23828,-22.89843 22.88392,0 41.31445,18.43053 41.31445,41.31445 0,22.88392 -18.43053,41.31445 -41.31445,41.31445 -17.16336,0 -31.76654,-10.46005 -37.45117,-24.76562 l -1.4375,-3.62305 -3.89844,0.0371 c -31.29085,0.28947 -70.52841,0.23457 -101.89649,0.35156 -3.89333,0 -7.79775,1.46649 -10.43945,4.37696 -2.6417,2.91046 -3.79241,6.96066 -3.53711,11.08203 l -0.01,-0.35156 0,202.33203 11.37109,0 0,-202.50782 -0.01,-0.17578 c -0.1077,-1.73863 0.30092,-2.39884 0.60547,-2.73437 0.30455,-0.33554 0.73286,-0.65039 2.01953,-0.65039 l 0.0117,0 0.01,0 c 30.22483,-0.11281 67.59519,-0.0823 98.40625,-0.33985 8.32419,16.76058 25.93416,28.33985 46.25586,28.33985 29.03007,0 52.68554,-23.65547 52.68554,-52.68555 0,-29.03008 -23.65547,-52.68555 -52.68554,-52.68555 -19.4595,0 -36.47573,10.61911 -44.86719,26.31446 l -73.94531,-0.38672 c 2.08792,-2.02106 4.66928,-4.4133 7.51953,-6.98828 5.28798,-4.7773 11.15752,-10.16257 15.38672,-16.03907 2.1146,-2.93824 3.86982,-6.02682 4.7207,-9.5332 0.85088,-3.50638 0.56938,-7.63757 -1.47656,-11.11523 l -0.0449,-0.0781 -0.0488,-0.0762 c -2.28143,-3.61161 -5.86868,-6.14164 -9.64258,-6.99023 -3.7739,-0.8486 -7.47432,-0.28905 -10.99219,0.80468 -7.03573,2.18747 -13.84256,6.64445 -20.16992,11.06446 -5.56879,3.8901 -10.52733,7.56876 -14.125,9.85156 l 0.45703,-99.35547 c 15.9571,-9.2896 26.76563,-26.34719 26.76563,-45.94336 0,-29.03008 -23.65547,-52.68555 -52.68555,-52.68555 z"
               style="color:#000000;font-style:normal;font-variant:normal;font-weight:normal;font-stretch:normal;font-size:medium;line-height:normal;font-family:sans-serif;text-indent:0;text-align:start;text-decoration:none;text-decoration-line:none;text-decoration-style:solid;text-decoration-color:#000000;letter-spacing:normal;word-spacing:normal;text-transform:none;direction:ltr;block-progression:tb;writing-mode:lr-tb;baseline-shift:baseline;text-anchor:start;white-space:normal;shape-padding:0;clip-rule:nonzero;display:inline;overflow:visible;visibility:visible;opacity:1;isolation:auto;mix-blend-mode:normal;color-interpolation:sRGB;color-interpolation-filters:linearRGB;solid-color:#000000;solid-opacity:1;fill:#429eb6;fill-opacity:1;fill-rule:nonzero;stroke:none;stroke-width:11.37353897;stroke-linecap:butt;stroke-linejoin:miter;stroke-miterlimit:10;stroke-dasharray:none;stroke-dashoffset:0;stroke-opacity:1;color-rendering:auto;image-rendering:auto;shape-rendering:auto;text-rendering:auto;enable-background:accumulate" />
          </g>
        </g>
      </g>
      <g
         clip-path="url(#clipPath4161)"
         id="g12773"
         transform="matrix(0.00879344,0,0,-0.00879344,66.191915,125.66161)"
         style="fill:#f3b5fb;fill-opacity:1;stroke:#000000;stroke-width:11.37211704;stroke-miterlimit:10;stroke-dasharray:none;stroke-opacity:1">
        <g
           id="g12775"
           style="fill:#f3b5fb;fill-opacity:1;stroke:#000000;stroke-width:11.37211704;stroke-miterlimit:10;stroke-dasharray:none;stroke-opacity:1">
          <g
             transform="translate(0,842)"
             id="g12777"
             style="fill:#f3b5fb;fill-opacity:1;stroke:#000000;stroke-width:11.37211704;stroke-miterlimit:10;stroke-dasharray:none;stroke-opacity:1">
            <path
               style="color:#000000;font-style:normal;font-variant:normal;font-weight:normal;font-stretch:normal;font-size:medium;line-height:normal;font-family:sans-serif;text-indent:0;text-align:start;text-decoration:none;text-decoration-line:none;text-decoration-style:solid;text-decoration-color:#000000;letter-spacing:normal;word-spacing:normal;text-transform:none;direction:ltr;block-progression:tb;writing-mode:lr-tb;baseline-shift:baseline;text-anchor:start;white-space:normal;shape-padding:0;clip-rule:nonzero;display:inline;overflow:visible;visibility:visible;opacity:1;isolation:auto;mix-blend-mode:normal;color-interpolation:sRGB;color-interpolation-filters:linearRGB;solid-color:#000000;solid-opacity:1;fill:#f3b5fb;fill-opacity:1;fill-rule:nonzero;stroke:none;stroke-width:11.37211704;stroke-linecap:butt;stroke-linejoin:miter;stroke-miterlimit:10;stroke-dasharray:none;stroke-dashoffset:0;stroke-opacity:1;color-rendering:auto;image-rendering:auto;shape-rendering:auto;text-rendering:auto;enable-background:accumulate"
               d="m 284,-664.8418 c -29.03008,0 -52.68555,23.65547 -52.68555,52.68555 0,20.38337 11.91666,38.06689 29.15235,46.27148 l -0.13282,103.77344 0,0.0156 c 0.009,1.99669 -0.48241,2.88593 -0.76953,3.19531 -0.28711,0.30938 -0.65281,0.69127 -2.63867,0.59961 l -0.13672,-0.006 -73.29492,0.13476 c -8.93903,-15.78728 -25.95664,-26.5135 -45.49414,-26.5135 -29.03008,0 -52.685547,23.65547 -52.685547,52.68555 0,29.03008 23.655467,52.68555 52.685547,52.68555 20.35355,0 37.9479,-11.61165 46.54688,-28.33594 l 72.09179,0.33594 c 1.34724,0.006 1.9041,0.36073 2.20899,0.64843 0.30412,0.28699 0.54697,0.6309 0.56836,1.625 l 0.91796,150.83008 11.3711,-0.0703 -0.91797,-150.94531 0,-0.041 c -0.0737,-3.6251 -1.51266,-7.19562 -4.13477,-9.66992 -2.62165,-2.47386 -6.23487,-3.73072 -9.96093,-3.74805 l -0.002,0 -79.375,-0.37109 -1.46875,3.50781 c -6.03197,14.4007 -20.68122,24.86328 -37.8457,24.86328 -22.88392,0 -41.314453,-18.43053 -41.314453,-41.31445 0,-22.88392 18.430533,-41.31445 41.314453,-41.31445 16.46177,0 30.59102,9.59853 37.05078,23.26367 l 1.54102,3.26367 80.08203,-0.14844 -0.27149,-0.006 c 4.36214,0.20134 8.68741,-1.19598 11.49805,-4.22461 2.81064,-3.02862 3.82261,-7.03616 3.80469,-10.98046 l 0.14258,-111.25196 -3.67774,-1.39258 c -14.81074,-5.60958 -25.48437,-20.25892 -25.48437,-37.36523 0,-22.88392 18.43053,-41.31445 41.31445,-41.31445 22.88392,0 41.31445,18.43053 41.31445,41.31445 0,16.46624 -9.57556,30.6493 -23.58789,37.58789 l -3.14648,1.55859 -0.51172,111.13672 0,0.004 c -0.005,1.62199 0.18254,3.44951 1.45703,5.33008 1.27449,1.88057 3.82573,3.10173 5.71289,3.22656 3.77432,0.24965 5.79875,-1.17745 8.25,-2.58594 4.90251,-2.81698 10.57781,-7.27354 16.61133,-11.48828 6.03352,-4.21474 12.39084,-8.084 17.0332,-9.52734 2.32118,-0.72168 4.08797,-0.80306 5.12305,-0.57032 1.00705,0.22645 1.57593,0.53048 2.45703,1.89258 0.4245,0.74655 0.51661,1.27582 0.19727,2.5918 -0.33057,1.36222 -1.30927,3.36411 -2.89844,5.57227 -3.17834,4.41631 -8.59161,9.55568 -13.78125,14.24414 -5.18964,4.68845 -10.0096,8.57705 -13.0332,12.94726 -0.75591,1.09256 -1.46626,2.25445 -1.87305,3.94531 -0.4068,1.69087 -0.22586,4.31607 1.16211,6.21875 1.38796,1.90268 3.23795,2.69195 4.80664,3.11524 1.56868,0.42329 3.09596,0.53995 4.83398,0.54883 l 85.29297,0.44531 1.49024,-3.45313 c 5.723,-13.27203 19.77763,-22.89843 36.23828,-22.89843 22.88392,0 41.31445,18.43053 41.31445,41.31445 0,22.88392 -18.43053,41.31445 -41.31445,41.31445 -17.16336,0 -31.76654,-10.46005 -37.45117,-24.76562 l -1.4375,-3.62305 -3.89844,0.0371 c -31.29085,0.28947 -70.52841,0.23457 -101.89649,0.35156 -3.89333,0 -7.79775,1.46649 -10.43945,4.37696 -2.6417,2.91046 -3.79241,6.96066 -3.53711,11.08203 l -0.01,-0.35156 0,202.33203 11.37109,0 0,-202.50782 -0.01,-0.17578 c -0.1077,-1.73863 0.30092,-2.39884 0.60547,-2.73437 0.30455,-0.33554 0.73286,-0.65039 2.01953,-0.65039 l 0.0117,0 0.01,0 c 30.22483,-0.11281 67.59519,-0.0823 98.40625,-0.33985 8.32419,16.76058 25.93416,28.33985 46.25586,28.33985 29.03007,0 52.68554,-23.65547 52.68554,-52.68555 0,-29.03008 -23.65547,-52.68555 -52.68554,-52.68555 -19.4595,0 -36.47573,10.61911 -44.86719,26.31446 l -73.94531,-0.38672 c 2.08792,-2.02106 4.66928,-4.4133 7.51953,-6.98828 5.28798,-4.7773 11.15752,-10.16257 15.38672,-16.03907 2.1146,-2.93824 3.86982,-6.02682 4.7207,-9.5332 0.85088,-3.50638 0.56938,-7.63757 -1.47656,-11.11523 l -0.0449,-0.0781 -0.0488,-0.0762 c -2.28143,-3.61161 -5.86868,-6.14164 -9.64258,-6.99023 -3.7739,-0.8486 -7.47432,-0.28905 -10.99219,0.80468 -7.03573,2.18747 -13.84256,6.64445 -20.16992,11.06446 -5.56879,3.8901 -10.52733,7.56876 -14.125,9.85156 l 0.45703,-99.35547 c 15.9571,-9.2896 26.76563,-26.34719 26.76563,-45.94336 0,-29.03008 -23.65547,-52.68555 -52.68555,-52.68555 z"
               id="path12779"
               inkscape:connector-curvature="0" />
          </g>
        </g>
      </g>
      <g
         style="fill:#4db966;fill-opacity:1;stroke:#000000;stroke-width:11.37211704;stroke-miterlimit:10;stroke-dasharray:none;stroke-opacity:1"
         transform="matrix(0.00879344,0,0,-0.00879344,68.870527,124.46397)"
         id="g12859"
         clip-path="url(#clipPath4161)">
        <g
           style="fill:#4db966;fill-opacity:1;stroke:#000000;stroke-width:11.37211704;stroke-miterlimit:10;stroke-dasharray:none;stroke-opacity:1"
           id="g12861">
          <g
             style="fill:#4db966;fill-opacity:1;stroke:#000000;stroke-width:11.37211704;stroke-miterlimit:10;stroke-dasharray:none;stroke-opacity:1"
             id="g12863"
             transform="translate(0,842)">
            <path
               inkscape:connector-curvature="0"
               id="path12865"
               d="m 284,-664.8418 c -29.03008,0 -52.68555,23.65547 -52.68555,52.68555 0,20.38337 11.91666,38.06689 29.15235,46.27148 l -0.13282,103.77344 0,0.0156 c 0.009,1.99669 -0.48241,2.88593 -0.76953,3.19531 -0.28711,0.30938 -0.65281,0.69127 -2.63867,0.59961 l -0.13672,-0.006 -73.29492,0.13476 c -8.93903,-15.78728 -25.95664,-26.5135 -45.49414,-26.5135 -29.03008,0 -52.685547,23.65547 -52.685547,52.68555 0,29.03008 23.655467,52.68555 52.685547,52.68555 20.35355,0 37.9479,-11.61165 46.54688,-28.33594 l 72.09179,0.33594 c 1.34724,0.006 1.9041,0.36073 2.20899,0.64843 0.30412,0.28699 0.54697,0.6309 0.56836,1.625 l 0.91796,150.83008 11.3711,-0.0703 -0.91797,-150.94531 0,-0.041 c -0.0737,-3.6251 -1.51266,-7.19562 -4.13477,-9.66992 -2.62165,-2.47386 -6.23487,-3.73072 -9.96093,-3.74805 l -0.002,0 -79.375,-0.37109 -1.46875,3.50781 c -6.03197,14.4007 -20.68122,24.86328 -37.8457,24.86328 -22.88392,0 -41.314453,-18.43053 -41.314453,-41.31445 0,-22.88392 18.430533,-41.31445 41.314453,-41.31445 16.46177,0 30.59102,9.59853 37.05078,23.26367 l 1.54102,3.26367 80.08203,-0.14844 -0.27149,-0.006 c 4.36214,0.20134 8.68741,-1.19598 11.49805,-4.22461 2.81064,-3.02862 3.82261,-7.03616 3.80469,-10.98046 l 0.14258,-111.25196 -3.67774,-1.39258 c -14.81074,-5.60958 -25.48437,-20.25892 -25.48437,-37.36523 0,-22.88392 18.43053,-41.31445 41.31445,-41.31445 22.88392,0 41.31445,18.43053 41.31445,41.31445 0,16.46624 -9.57556,30.6493 -23.58789,37.58789 l -3.14648,1.55859 -0.51172,111.13672 0,0.004 c -0.005,1.62199 0.18254,3.44951 1.45703,5.33008 1.27449,1.88057 3.82573,3.10173 5.71289,3.22656 3.77432,0.24965 5.79875,-1.17745 8.25,-2.58594 4.90251,-2.81698 10.57781,-7.27354 16.61133,-11.48828 6.03352,-4.21474 12.39084,-8.084 17.0332,-9.52734 2.32118,-0.72168 4.08797,-0.80306 5.12305,-0.57032 1.00705,0.22645 1.57593,0.53048 2.45703,1.89258 0.4245,0.74655 0.51661,1.27582 0.19727,2.5918 -0.33057,1.36222 -1.30927,3.36411 -2.89844,5.57227 -3.17834,4.41631 -8.59161,9.55568 -13.78125,14.24414 -5.18964,4.68845 -10.0096,8.57705 -13.0332,12.94726 -0.75591,1.09256 -1.46626,2.25445 -1.87305,3.94531 -0.4068,1.69087 -0.22586,4.31607 1.16211,6.21875 1.38796,1.90268 3.23795,2.69195 4.80664,3.11524 1.56868,0.42329 3.09596,0.53995 4.83398,0.54883 l 85.29297,0.44531 1.49024,-3.45313 c 5.723,-13.27203 19.77763,-22.89843 36.23828,-22.89843 22.88392,0 41.31445,18.43053 41.31445,41.31445 0,22.88392 -18.43053,41.31445 -41.31445,41.31445 -17.16336,0 -31.76654,-10.46005 -37.45117,-24.76562 l -1.4375,-3.62305 -3.89844,0.0371 c -31.29085,0.28947 -70.52841,0.23457 -101.89649,0.35156 -3.89333,0 -7.79775,1.46649 -10.43945,4.37696 -2.6417,2.91046 -3.79241,6.96066 -3.53711,11.08203 l -0.01,-0.35156 0,202.33203 11.37109,0 0,-202.50782 -0.01,-0.17578 c -0.1077,-1.73863 0.30092,-2.39884 0.60547,-2.73437 0.30455,-0.33554 0.73286,-0.65039 2.01953,-0.65039 l 0.0117,0 0.01,0 c 30.22483,-0.11281 67.59519,-0.0823 98.40625,-0.33985 8.32419,16.76058 25.93416,28.33985 46.25586,28.33985 29.03007,0 52.68554,-23.65547 52.68554,-52.68555 0,-29.03008 -23.65547,-52.68555 -52.68554,-52.68555 -19.4595,0 -36.47573,10.61911 -44.86719,26.31446 l -73.94531,-0.38672 c 2.08792,-2.02106 4.66928,-4.4133 7.51953,-6.98828 5.28798,-4.7773 11.15752,-10.16257 15.38672,-16.03907 2.1146,-2.93824 3.86982,-6.02682 4.7207,-9.5332 0.85088,-3.50638 0.56938,-7.63757 -1.47656,-11.11523 l -0.0449,-0.0781 -0.0488,-0.0762 c -2.28143,-3.61161 -5.86868,-6.14164 -9.64258,-6.99023 -3.7739,-0.8486 -7.47432,-0.28905 -10.99219,0.80468 -7.03573,2.18747 -13.84256,6.64445 -20.16992,11.06446 -5.56879,3.8901 -10.52733,7.56876 -14.125,9.85156 l 0.45703,-99.35547 c 15.9571,-9.2896 26.76563,-26.34719 26.76563,-45.94336 0,-29.03008 -23.65547,-52.68555 -52.68555,-52.68555 z"
               style="color:#000000;font-style:normal;font-variant:normal;font-weight:normal;font-stretch:normal;font-size:medium;line-height:normal;font-family:sans-serif;text-indent:0;text-align:start;text-decoration:none;text-decoration-line:none;text-decoration-style:solid;text-decoration-color:#000000;letter-spacing:normal;word-spacing:normal;text-transform:none;direction:ltr;block-progression:tb;writing-mode:lr-tb;baseline-shift:baseline;text-anchor:start;white-space:normal;shape-padding:0;clip-rule:nonzero;display:inline;overflow:visible;visibility:visible;opacity:1;isolation:auto;mix-blend-mode:normal;color-interpolation:sRGB;color-interpolation-filters:linearRGB;solid-color:#000000;solid-opacity:1;fill:#4db966;fill-opacity:1;fill-rule:nonzero;stroke:none;stroke-width:11.37211704;stroke-linecap:butt;stroke-linejoin:miter;stroke-miterlimit:10;stroke-dasharray:none;stroke-dashoffset:0;stroke-opacity:1;color-rendering:auto;image-rendering:auto;shape-rendering:auto;text-rendering:auto;enable-background:accumulate" />
          </g>
        </g>
      </g>
    </g>
    <g
       id="g25381"
       transform="translate(-0.03822145,-1.6711377e-5)">
      <g
         transform="matrix(0.35277777,0,0,0.35277777,66.749179,254.13557)"
         style="font-style:normal;font-weight:normal;font-size:14px;line-height:125%;font-family:sans-serif;letter-spacing:0px;word-spacing:0px;fill:#429eb6;fill-opacity:1;stroke:none;stroke-width:0.75px;stroke-linecap:butt;stroke-linejoin:miter;stroke-opacity:1"
         id="g12719">
        <path
           id="path12721"
           style="font-style:normal;font-variant:normal;font-weight:600;font-stretch:normal;font-size:2px;font-family:'Source Code Pro';-inkscape-font-specification:'Source Code Pro Semi-Bold';fill:#429eb6;stroke-width:0.75px"
           d="m -40.12132,-396.00805 -0.046,-0.16 q -0.028,-0.104 -0.058,-0.214 -0.03,-0.11 -0.058,-0.218 l -0.008,0 q -0.028,0.11 -0.058,0.22 -0.028,0.108 -0.058,0.212 l -0.046,0.16 0.332,0 z m 0.052,0.182 -0.436,0 -0.102,0.354 -0.236,0 0.424,-1.308 0.272,0 0.424,1.308 -0.246,0 -0.1,-0.354 z m -1.251219,-0.182 -0.046,-0.16 q -0.028,-0.104 -0.058,-0.214 -0.03,-0.11 -0.058,-0.218 l -0.008,0 q -0.028,0.11 -0.058,0.22 -0.028,0.108 -0.058,0.212 l -0.046,0.16 0.332,0 z m 0.052,0.182 -0.436,0 -0.102,0.354 -0.236,0 0.424,-1.308 0.272,0 0.424,1.308 -0.246,0 -0.1,-0.354 z m -1.251218,-0.182 -0.046,-0.16 q -0.028,-0.104 -0.058,-0.214 -0.03,-0.11 -0.058,-0.218 l -0.008,0 q -0.028,0.11 -0.058,0.22 -0.028,0.108 -0.058,0.212 l -0.046,0.16 0.332,0 z m 0.052,0.182 -0.436,0 -0.102,0.354 -0.236,0 0.424,-1.308 0.272,0 0.424,1.308 -0.246,0 -0.1,-0.354 z m -7.900634,0.027 c -0.567673,0.11252 -1.163155,-0.014 -1.957255,-0.4732 -1.535115,-0.88772 -2.925443,-1.1727 -3.941811,-1.00783 -1.040236,0.16875 -1.418587,0.46332 -1.781322,0.7098 -0.347086,0.23585 -0.601451,0.47838 -0.87739,0.73483 l -0.192617,-0.20703 c 0.05447,-0.0506 0.126398,-0.1009 0.181242,-0.15166 l 0,-1.07608 0.283616,0 0,0.83872 c 0.131788,-0.11362 0.245123,-0.2285 0.405708,-0.34049 l 0,-1.05863 0.283616,0 0,0.88042 c 0.122866,-0.0804 0.232643,-0.15856 0.405708,-0.24115 l 0,-0.98052 0.283616,0 0,0.89028 c 0.111632,-0.0438 0.268535,-0.0958 0.405707,-0.13512 l 0,-0.97508 0.283617,0 0,0.91076 c 0.140188,-0.0125 0.261807,-0.046 0.405707,-0.0713 l 0,-0.92668 0.282859,0 0,0.94413 c 0.126579,-0.008 0.277948,-0.004 0.411566,7e-5 l -0.0059,-1.01472 0.283617,0 0,1.02044 c 0.138232,0.0125 0.261318,0.034 0.405707,0.0587 l 0,-1.00858 0.283617,0 0,1.05532 c 0.130554,0.0294 0.271044,0.0658 0.405707,0.10493 l 0,-1.00327 0.283616,0 0,1.12081 0,7.6e-4 c 0.13144,0.0439 0.271033,0.11446 0.405708,0.16759 l 0,-1.06242 0.283616,0 0,1.12233 c 0.05795,0.0526 0.337113,0.15696 0.406466,0.18572 l 0,-0.92889 0.282858,0 0,1.06401 c 0.150589,0.0605 0.277571,0.1519 0.405708,0.20578 l 0,-0.85877 0.283616,0 0,0.96915 c 0.136934,0.0619 0.284027,0.13774 0.405708,0.17441 l 0,-0.81141 0.282858,0 0,0.88042 c 0.142395,0.0237 0.275218,0.0186 0.406466,0.01 l 0,-0.82052 0.283616,0 0,0.80611 c 0.118197,-0.0259 0.306891,-0.0856 0.405707,-0.16938 l 0,-0.93399 0.283617,0 0,0.83037 c 0.128108,-0.0627 0.264656,-0.14667 0.405708,-0.22722 l 0,-1.01265 0.283616,0 0.0059,0.86801 c 0.10429,-0.0622 0.156154,-0.0959 0.270173,-0.16428 0.04704,-0.0282 0.08371,-0.0361 0.129675,-0.0622 l 0,-1.05636 0.283616,0 0,0.92138 c 0.136739,-0.0678 0.277846,-0.14407 0.405708,-0.19338 l 0,-1.02526 0.282858,0 0,0.92364 c 0.141981,-0.0425 0.272817,-0.0592 0.405708,-0.0804 l 0,-1.02906 0.283616,0 0,0.97294 c 0.140856,-0.008 0.271944,0.0154 0.405707,0.0281 l 0,-0.97825 0.283617,0 0,1.00479 c 0.136425,0.0268 0.272307,0.0691 0.405707,0.113 l 0,-0.95474 0.283617,0 0,1.0518 c 0.150746,0.0627 0.288551,0.13538 0.405707,0.19034 l 0,-0.90848 0.283616,0 0,1.06015 c 0.133744,0.0746 0.287139,0.14806 0.405708,0.21688 l 0,-0.89862 0.282858,0 0,1.03664 c 0.129807,0.0703 0.275755,0.12764 0.406466,0.17848 l 0,-0.8989 0.283616,0 0,0.999 c 0.08639,0.0207 0.153756,0.0428 0.249492,0.0528 l -0.02957,0.2821 c -0.43945,-0.0989 -0.787715,-0.22719 -1.122331,-0.39282 -0.325098,-0.16091 -0.692987,-0.41135 -1.15225,-0.61121 -0.922734,-0.40155 -1.666143,-0.52185 -3.037535,0.3003 -0.697599,0.41821 -1.218199,0.75198 -1.785873,0.8645 z"
           inkscape:connector-curvature="0" />
      </g>
      <g
         transform="matrix(0.35277777,0,0,0.35277777,66.749179,255.75891)"
         style="font-style:normal;font-weight:normal;font-size:14px;line-height:125%;font-family:sans-serif;letter-spacing:0px;word-spacing:0px;fill:#f3b5fb;fill-opacity:1;stroke:none;stroke-width:0.75px;stroke-linecap:butt;stroke-linejoin:miter;stroke-opacity:1"
         id="g12801">
        <path
           id="path12803"
           style="font-style:normal;font-variant:normal;font-weight:600;font-stretch:normal;font-size:2px;font-family:'Source Code Pro';-inkscape-font-specification:'Source Code Pro Semi-Bold';fill:#f3b5fb;stroke-width:0.75px"
           d="m -40.12132,-396.00805 -0.046,-0.16 q -0.028,-0.104 -0.058,-0.214 -0.03,-0.11 -0.058,-0.218 l -0.008,0 q -0.028,0.11 -0.058,0.22 -0.028,0.108 -0.058,0.212 l -0.046,0.16 0.332,0 z m 0.052,0.182 -0.436,0 -0.102,0.354 -0.236,0 0.424,-1.308 0.272,0 0.424,1.308 -0.246,0 -0.1,-0.354 z m -1.251219,-0.182 -0.046,-0.16 q -0.028,-0.104 -0.058,-0.214 -0.03,-0.11 -0.058,-0.218 l -0.008,0 q -0.028,0.11 -0.058,0.22 -0.028,0.108 -0.058,0.212 l -0.046,0.16 0.332,0 z m 0.052,0.182 -0.436,0 -0.102,0.354 -0.236,0 0.424,-1.308 0.272,0 0.424,1.308 -0.246,0 -0.1,-0.354 z m -1.251218,-0.182 -0.046,-0.16 q -0.028,-0.104 -0.058,-0.214 -0.03,-0.11 -0.058,-0.218 l -0.008,0 q -0.028,0.11 -0.058,0.22 -0.028,0.108 -0.058,0.212 l -0.046,0.16 0.332,0 z m 0.052,0.182 -0.436,0 -0.102,0.354 -0.236,0 0.424,-1.308 0.272,0 0.424,1.308 -0.246,0 -0.1,-0.354 z m -7.900634,0.027 c -0.567673,0.11252 -1.163155,-0.014 -1.957255,-0.4732 -1.535115,-0.88772 -2.925443,-1.1727 -3.941811,-1.00783 -1.040236,0.16875 -1.418587,0.46332 -1.781322,0.7098 -0.347086,0.23585 -0.601451,0.47838 -0.87739,0.73483 l -0.192617,-0.20703 c 0.05447,-0.0506 0.126398,-0.1009 0.181242,-0.15166 l 0,-1.07608 0.283616,0 0,0.83872 c 0.131788,-0.11362 0.245123,-0.2285 0.405708,-0.34049 l 0,-1.05863 0.283616,0 0,0.88042 c 0.122866,-0.0804 0.232643,-0.15856 0.405708,-0.24115 l 0,-0.98052 0.283616,0 0,0.89028 c 0.111632,-0.0438 0.268535,-0.0958 0.405707,-0.13512 l 0,-0.97508 0.283617,0 0,0.91076 c 0.140188,-0.0125 0.261807,-0.046 0.405707,-0.0713 l 0,-0.92668 0.282859,0 0,0.94413 c 0.126579,-0.008 0.277948,-0.004 0.411566,7e-5 l -0.0059,-1.01472 0.283617,0 0,1.02044 c 0.138232,0.0125 0.261318,0.034 0.405707,0.0587 l 0,-1.00858 0.283617,0 0,1.05532 c 0.130554,0.0294 0.271044,0.0658 0.405707,0.10493 l 0,-1.00327 0.283616,0 0,1.12081 0,7.6e-4 c 0.13144,0.0439 0.271033,0.11446 0.405708,0.16759 l 0,-1.06242 0.283616,0 0,1.12233 c 0.05795,0.0526 0.337113,0.15696 0.406466,0.18572 l 0,-0.92889 0.282858,0 0,1.06401 c 0.150589,0.0605 0.277571,0.1519 0.405708,0.20578 l 0,-0.85877 0.283616,0 0,0.96915 c 0.136934,0.0619 0.284027,0.13774 0.405708,0.17441 l 0,-0.81141 0.282858,0 0,0.88042 c 0.142395,0.0237 0.275218,0.0186 0.406466,0.01 l 0,-0.82052 0.283616,0 0,0.80611 c 0.118197,-0.0259 0.306891,-0.0856 0.405707,-0.16938 l 0,-0.93399 0.283617,0 0,0.83037 c 0.128108,-0.0627 0.264656,-0.14667 0.405708,-0.22722 l 0,-1.01265 0.283616,0 0.0059,0.86801 c 0.10429,-0.0622 0.156154,-0.0959 0.270173,-0.16428 0.04704,-0.0282 0.08371,-0.0361 0.129675,-0.0622 l 0,-1.05636 0.283616,0 0,0.92138 c 0.136739,-0.0678 0.277846,-0.14407 0.405708,-0.19338 l 0,-1.02526 0.282858,0 0,0.92364 c 0.141981,-0.0425 0.272817,-0.0592 0.405708,-0.0804 l 0,-1.02906 0.283616,0 0,0.97294 c 0.140856,-0.008 0.271944,0.0154 0.405707,0.0281 l 0,-0.97825 0.283617,0 0,1.00479 c 0.136425,0.0268 0.272307,0.0691 0.405707,0.113 l 0,-0.95474 0.283617,0 0,1.0518 c 0.150746,0.0627 0.288551,0.13538 0.405707,0.19034 l 0,-0.90848 0.283616,0 0,1.06015 c 0.133744,0.0746 0.287139,0.14806 0.405708,0.21688 l 0,-0.89862 0.282858,0 0,1.03664 c 0.129807,0.0703 0.275755,0.12764 0.406466,0.17848 l 0,-0.8989 0.283616,0 0,0.999 c 0.08639,0.0207 0.153756,0.0428 0.249492,0.0528 l -0.02957,0.2821 c -0.43945,-0.0989 -0.787715,-0.22719 -1.122331,-0.39282 -0.325098,-0.16091 -0.692987,-0.41135 -1.15225,-0.61121 -0.922734,-0.40155 -1.666143,-0.52185 -3.037535,0.3003 -0.697599,0.41821 -1.218199,0.75198 -1.785873,0.8645 z"
           inkscape:connector-curvature="0" />
      </g>
      <g
         transform="matrix(0.35277777,0,0,0.35277777,66.749179,257.38224)"
         style="font-style:normal;font-weight:normal;font-size:14px;line-height:125%;font-family:sans-serif;letter-spacing:0px;word-spacing:0px;fill:#4db966;fill-opacity:1;stroke:none;stroke-width:0.75px;stroke-linecap:butt;stroke-linejoin:miter;stroke-opacity:1"
         id="g12891">
        <path
           id="path12893"
           style="font-style:normal;font-variant:normal;font-weight:600;font-stretch:normal;font-size:2px;font-family:'Source Code Pro';-inkscape-font-specification:'Source Code Pro Semi-Bold';fill:#4db966;stroke-width:0.75px"
           d="m -40.12132,-396.00805 -0.046,-0.16 q -0.028,-0.104 -0.058,-0.214 -0.03,-0.11 -0.058,-0.218 l -0.008,0 q -0.028,0.11 -0.058,0.22 -0.028,0.108 -0.058,0.212 l -0.046,0.16 0.332,0 z m 0.052,0.182 -0.436,0 -0.102,0.354 -0.236,0 0.424,-1.308 0.272,0 0.424,1.308 -0.246,0 -0.1,-0.354 z m -1.251219,-0.182 -0.046,-0.16 q -0.028,-0.104 -0.058,-0.214 -0.03,-0.11 -0.058,-0.218 l -0.008,0 q -0.028,0.11 -0.058,0.22 -0.028,0.108 -0.058,0.212 l -0.046,0.16 0.332,0 z m 0.052,0.182 -0.436,0 -0.102,0.354 -0.236,0 0.424,-1.308 0.272,0 0.424,1.308 -0.246,0 -0.1,-0.354 z m -1.251218,-0.182 -0.046,-0.16 q -0.028,-0.104 -0.058,-0.214 -0.03,-0.11 -0.058,-0.218 l -0.008,0 q -0.028,0.11 -0.058,0.22 -0.028,0.108 -0.058,0.212 l -0.046,0.16 0.332,0 z m 0.052,0.182 -0.436,0 -0.102,0.354 -0.236,0 0.424,-1.308 0.272,0 0.424,1.308 -0.246,0 -0.1,-0.354 z m -7.900634,0.027 c -0.567673,0.11252 -1.163155,-0.014 -1.957255,-0.4732 -1.535115,-0.88772 -2.925443,-1.1727 -3.941811,-1.00783 -1.040236,0.16875 -1.418587,0.46332 -1.781322,0.7098 -0.347086,0.23585 -0.601451,0.47838 -0.87739,0.73483 l -0.192617,-0.20703 c 0.05447,-0.0506 0.126398,-0.1009 0.181242,-0.15166 l 0,-1.07608 0.283616,0 0,0.83872 c 0.131788,-0.11362 0.245123,-0.2285 0.405708,-0.34049 l 0,-1.05863 0.283616,0 0,0.88042 c 0.122866,-0.0804 0.232643,-0.15856 0.405708,-0.24115 l 0,-0.98052 0.283616,0 0,0.89028 c 0.111632,-0.0438 0.268535,-0.0958 0.405707,-0.13512 l 0,-0.97508 0.283617,0 0,0.91076 c 0.140188,-0.0125 0.261807,-0.046 0.405707,-0.0713 l 0,-0.92668 0.282859,0 0,0.94413 c 0.126579,-0.008 0.277948,-0.004 0.411566,7e-5 l -0.0059,-1.01472 0.283617,0 0,1.02044 c 0.138232,0.0125 0.261318,0.034 0.405707,0.0587 l 0,-1.00858 0.283617,0 0,1.05532 c 0.130554,0.0294 0.271044,0.0658 0.405707,0.10493 l 0,-1.00327 0.283616,0 0,1.12081 0,7.6e-4 c 0.13144,0.0439 0.271033,0.11446 0.405708,0.16759 l 0,-1.06242 0.283616,0 0,1.12233 c 0.05795,0.0526 0.337113,0.15696 0.406466,0.18572 l 0,-0.92889 0.282858,0 0,1.06401 c 0.150589,0.0605 0.277571,0.1519 0.405708,0.20578 l 0,-0.85877 0.283616,0 0,0.96915 c 0.136934,0.0619 0.284027,0.13774 0.405708,0.17441 l 0,-0.81141 0.282858,0 0,0.88042 c 0.142395,0.0237 0.275218,0.0186 0.406466,0.01 l 0,-0.82052 0.283616,0 0,0.80611 c 0.118197,-0.0259 0.306891,-0.0856 0.405707,-0.16938 l 0,-0.93399 0.283617,0 0,0.83037 c 0.128108,-0.0627 0.264656,-0.14667 0.405708,-0.22722 l 0,-1.01265 0.283616,0 0.0059,0.86801 c 0.10429,-0.0622 0.156154,-0.0959 0.270173,-0.16428 0.04704,-0.0282 0.08371,-0.0361 0.129675,-0.0622 l 0,-1.05636 0.283616,0 0,0.92138 c 0.136739,-0.0678 0.277846,-0.14407 0.405708,-0.19338 l 0,-1.02526 0.282858,0 0,0.92364 c 0.141981,-0.0425 0.272817,-0.0592 0.405708,-0.0804 l 0,-1.02906 0.283616,0 0,0.97294 c 0.140856,-0.008 0.271944,0.0154 0.405707,0.0281 l 0,-0.97825 0.283617,0 0,1.00479 c 0.136425,0.0268 0.272307,0.0691 0.405707,0.113 l 0,-0.95474 0.283617,0 0,1.0518 c 0.150746,0.0627 0.288551,0.13538 0.405707,0.19034 l 0,-0.90848 0.283616,0 0,1.06015 c 0.133744,0.0746 0.287139,0.14806 0.405708,0.21688 l 0,-0.89862 0.282858,0 0,1.03664 c 0.129807,0.0703 0.275755,0.12764 0.406466,0.17848 l 0,-0.8989 0.283616,0 0,0.999 c 0.08639,0.0207 0.153756,0.0428 0.249492,0.0528 l -0.02957,0.2821 c -0.43945,-0.0989 -0.787715,-0.22719 -1.122331,-0.39282 -0.325098,-0.16091 -0.692987,-0.41135 -1.15225,-0.61121 -0.922734,-0.40155 -1.666143,-0.52185 -3.037535,0.3003 -0.697599,0.41821 -1.218199,0.75198 -1.785873,0.8645 z"
           inkscape:connector-curvature="0" />
      </g>
    </g>
    <g
       id="g25374"
       transform="translate(-8.0849032,6.7970738)">
      <path
         id="path12725"
         style="font-style:normal;font-variant:normal;font-weight:600;font-stretch:normal;font-size:2px;line-height:125%;font-family:'Source Code Pro';-inkscape-font-specification:'Source Code Pro Semi-Bold';letter-spacing:0px;word-spacing:0px;fill:#00c6fa;fill-opacity:1;stroke:none;stroke-width:0.26458332px;stroke-linecap:butt;stroke-linejoin:miter;stroke-opacity:1"
         d="m 60.641952,114.43232 -0.01623,-0.0564 q -0.0099,-0.0367 -0.02046,-0.0755 -0.01058,-0.0388 -0.02046,-0.0769 l -0.0028,0 q -0.0099,0.0388 -0.02046,0.0776 -0.0099,0.0381 -0.02046,0.0748 l -0.01623,0.0564 0.117122,0 z m 0.01834,0.0642 -0.153811,0 -0.03598,0.12488 -0.08326,0 0.149577,-0.46143 0.09596,0 0.149578,0.46143 -0.08678,0 -0.03528,-0.12488 z m -0.441403,-0.0642 -0.01623,-0.0564 q -0.0099,-0.0367 -0.02046,-0.0755 -0.01058,-0.0388 -0.02046,-0.0769 l -0.0028,0 q -0.0099,0.0388 -0.02046,0.0776 -0.0099,0.0381 -0.02046,0.0748 l -0.01623,0.0564 0.117122,0 z m 0.01835,0.0642 -0.153811,0 -0.03598,0.12488 -0.08326,0 0.149578,-0.46143 0.09595,0 0.149578,0.46143 -0.08678,0 -0.03528,-0.12488 z m -0.441402,-0.0642 -0.01623,-0.0564 q -0.0099,-0.0367 -0.02046,-0.0755 -0.01058,-0.0388 -0.02046,-0.0769 l -0.0028,0 q -0.0099,0.0388 -0.02046,0.0776 -0.0099,0.0381 -0.02046,0.0748 l -0.01623,0.0564 0.117122,0 z m 0.01834,0.0642 -0.153811,0 -0.03598,0.12488 -0.08326,0 0.149578,-0.46143 0.09596,0 0.149577,0.46143 -0.08678,0 -0.03528,-0.12488 z m -2.787168,0.01 c -0.200262,0.0397 -0.410335,-0.005 -0.690476,-0.16693 -0.541554,-0.31317 -1.032031,-0.4137 -1.390583,-0.35554 -0.366972,0.0595 -0.500446,0.16345 -0.628411,0.2504 -0.122444,0.0832 -0.212178,0.16876 -0.309523,0.25923 l -0.06795,-0.073 c 0.01921,-0.0178 0.04459,-0.0356 0.06394,-0.0535 l 0,-0.37961 0.100053,0 0,0.29588 c 0.04649,-0.0401 0.08647,-0.0806 0.143125,-0.12012 l 0,-0.37346 0.100053,0 0,0.31059 c 0.04335,-0.0284 0.08207,-0.0559 0.143125,-0.0851 l 0,-0.3459 0.100053,0 0,0.31407 c 0.03938,-0.0155 0.09473,-0.0338 0.143125,-0.0477 l 0,-0.34399 0.100054,0 0,0.3213 c 0.04945,-0.004 0.09236,-0.0162 0.143124,-0.0252 l 0,-0.32692 0.09979,0 0,0.33307 c 0.04466,-0.003 0.09805,-0.001 0.145192,3e-5 l -0.0021,-0.35797 0.100054,0 0,0.35998 c 0.04877,0.004 0.09219,0.012 0.143125,0.0207 l 0,-0.3558 0.100053,0 0,0.37229 c 0.04606,0.0104 0.09562,0.0232 0.143125,0.037 l 0,-0.35393 0.100053,0 0,0.39539 0,2.7e-4 c 0.04637,0.0155 0.09562,0.0404 0.143125,0.0591 l 0,-0.37479 0.100053,0 0,0.39593 c 0.02044,0.0185 0.118926,0.0554 0.143392,0.0655 l 0,-0.3277 0.09979,0 0,0.37536 c 0.05312,0.0213 0.09792,0.0536 0.143124,0.0726 l 0,-0.30296 0.100054,0 0,0.3419 c 0.04831,0.0218 0.100198,0.0486 0.143124,0.0615 l 0,-0.28625 0.09979,0 0,0.31059 c 0.05023,0.008 0.09709,0.007 0.143393,0.004 l 0,-0.28946 0.100053,0 0,0.28438 c 0.0417,-0.009 0.108264,-0.0302 0.143124,-0.0598 l 0,-0.32949 0.100054,0 0,0.29294 c 0.04519,-0.0221 0.09337,-0.0517 0.143125,-0.0802 l 0,-0.35724 0.100053,0 0.0021,0.30621 c 0.03679,-0.0219 0.05509,-0.0338 0.09531,-0.058 0.01659,-0.01 0.02953,-0.0127 0.04575,-0.0219 l 0,-0.37266 0.100054,0 0,0.32504 c 0.04824,-0.0239 0.09802,-0.0508 0.143124,-0.0682 l 0,-0.36169 0.09979,0 0,0.32584 c 0.05009,-0.015 0.09624,-0.0209 0.143125,-0.0284 l 0,-0.36303 0.100054,0 0,0.34323 c 0.04969,-0.003 0.09593,0.005 0.143124,0.01 l 0,-0.3451 0.100054,0 0,0.35446 c 0.04813,0.009 0.09606,0.0244 0.143124,0.0399 l 0,-0.33681 0.100054,0 0,0.37105 c 0.05318,0.0221 0.101794,0.0478 0.143124,0.0671 l 0,-0.3205 0.100054,0 0,0.374 c 0.04718,0.0263 0.101296,0.0522 0.143125,0.0765 l 0,-0.31701 0.09979,0 0,0.3657 c 0.04579,0.0248 0.09728,0.045 0.143392,0.063 l 0,-0.31712 0.100053,0 0,0.35243 c 0.03048,0.007 0.05424,0.0151 0.08802,0.0186 l -0.01043,0.0995 c -0.155028,-0.0349 -0.277889,-0.0801 -0.395934,-0.13857 -0.114687,-0.0568 -0.24447,-0.14512 -0.406488,-0.21563 -0.32552,-0.14165 -0.587778,-0.18409 -1.071575,0.10594 -0.246097,0.14754 -0.429753,0.26529 -0.630016,0.30498 z"
         inkscape:connector-curvature="0" />
      <g
         id="g12789"
         style="font-style:normal;font-weight:normal;font-size:14px;line-height:125%;font-family:sans-serif;letter-spacing:0px;word-spacing:0px;fill:#de00fb;fill-opacity:1;stroke:none;stroke-width:0.75px;stroke-linecap:butt;stroke-linejoin:miter;stroke-opacity:1"
         transform="matrix(0.35277777,0,0,0.35277777,74.795862,255.7587)">
        <path
           inkscape:connector-curvature="0"
           d="m -40.12132,-396.00805 -0.046,-0.16 q -0.028,-0.104 -0.058,-0.214 -0.03,-0.11 -0.058,-0.218 l -0.008,0 q -0.028,0.11 -0.058,0.22 -0.028,0.108 -0.058,0.212 l -0.046,0.16 0.332,0 z m 0.052,0.182 -0.436,0 -0.102,0.354 -0.236,0 0.424,-1.308 0.272,0 0.424,1.308 -0.246,0 -0.1,-0.354 z m -1.251219,-0.182 -0.046,-0.16 q -0.028,-0.104 -0.058,-0.214 -0.03,-0.11 -0.058,-0.218 l -0.008,0 q -0.028,0.11 -0.058,0.22 -0.028,0.108 -0.058,0.212 l -0.046,0.16 0.332,0 z m 0.052,0.182 -0.436,0 -0.102,0.354 -0.236,0 0.424,-1.308 0.272,0 0.424,1.308 -0.246,0 -0.1,-0.354 z m -1.251218,-0.182 -0.046,-0.16 q -0.028,-0.104 -0.058,-0.214 -0.03,-0.11 -0.058,-0.218 l -0.008,0 q -0.028,0.11 -0.058,0.22 -0.028,0.108 -0.058,0.212 l -0.046,0.16 0.332,0 z m 0.052,0.182 -0.436,0 -0.102,0.354 -0.236,0 0.424,-1.308 0.272,0 0.424,1.308 -0.246,0 -0.1,-0.354 z m -7.900634,0.027 c -0.567673,0.11252 -1.163155,-0.014 -1.957255,-0.4732 -1.535115,-0.88772 -2.925443,-1.1727 -3.941811,-1.00783 -1.040236,0.16875 -1.418587,0.46332 -1.781322,0.7098 -0.347086,0.23585 -0.601451,0.47838 -0.87739,0.73483 l -0.192617,-0.20703 c 0.05447,-0.0506 0.126398,-0.1009 0.181242,-0.15166 l 0,-1.07608 0.283616,0 0,0.83872 c 0.131788,-0.11362 0.245123,-0.2285 0.405708,-0.34049 l 0,-1.05863 0.283616,0 0,0.88042 c 0.122866,-0.0804 0.232643,-0.15856 0.405708,-0.24115 l 0,-0.98052 0.283616,0 0,0.89028 c 0.111632,-0.0438 0.268535,-0.0958 0.405707,-0.13512 l 0,-0.97508 0.283617,0 0,0.91076 c 0.140188,-0.0125 0.261807,-0.046 0.405707,-0.0713 l 0,-0.92668 0.282859,0 0,0.94413 c 0.126579,-0.008 0.277948,-0.004 0.411566,7e-5 l -0.0059,-1.01472 0.283617,0 0,1.02044 c 0.138232,0.0125 0.261318,0.034 0.405707,0.0587 l 0,-1.00858 0.283617,0 0,1.05532 c 0.130554,0.0294 0.271044,0.0658 0.405707,0.10493 l 0,-1.00327 0.283616,0 0,1.12081 0,7.6e-4 c 0.13144,0.0439 0.271033,0.11446 0.405708,0.16759 l 0,-1.06242 0.283616,0 0,1.12233 c 0.05795,0.0526 0.337113,0.15696 0.406466,0.18572 l 0,-0.92889 0.282858,0 0,1.06401 c 0.150589,0.0605 0.277571,0.1519 0.405708,0.20578 l 0,-0.85877 0.283616,0 0,0.96915 c 0.136934,0.0619 0.284027,0.13774 0.405708,0.17441 l 0,-0.81141 0.282858,0 0,0.88042 c 0.142395,0.0237 0.275218,0.0186 0.406466,0.01 l 0,-0.82052 0.283616,0 0,0.80611 c 0.118197,-0.0259 0.306891,-0.0856 0.405707,-0.16938 l 0,-0.93399 0.283617,0 0,0.83037 c 0.128108,-0.0627 0.264656,-0.14667 0.405708,-0.22722 l 0,-1.01265 0.283616,0 0.0059,0.86801 c 0.10429,-0.0622 0.156154,-0.0959 0.270173,-0.16428 0.04704,-0.0282 0.08371,-0.0361 0.129675,-0.0622 l 0,-1.05636 0.283616,0 0,0.92138 c 0.136739,-0.0678 0.277846,-0.14407 0.405708,-0.19338 l 0,-1.02526 0.282858,0 0,0.92364 c 0.141981,-0.0425 0.272817,-0.0592 0.405708,-0.0804 l 0,-1.02906 0.283616,0 0,0.97294 c 0.140856,-0.008 0.271944,0.0154 0.405707,0.0281 l 0,-0.97825 0.283617,0 0,1.00479 c 0.136425,0.0268 0.272307,0.0691 0.405707,0.113 l 0,-0.95474 0.283617,0 0,1.0518 c 0.150746,0.0627 0.288551,0.13538 0.405707,0.19034 l 0,-0.90848 0.283616,0 0,1.06015 c 0.133744,0.0746 0.287139,0.14806 0.405708,0.21688 l 0,-0.89862 0.282858,0 0,1.03664 c 0.129807,0.0703 0.275755,0.12764 0.406466,0.17848 l 0,-0.8989 0.283616,0 0,0.999 c 0.08639,0.0207 0.153756,0.0428 0.249492,0.0528 l -0.02957,0.2821 c -0.43945,-0.0989 -0.787715,-0.22719 -1.122331,-0.39282 -0.325098,-0.16091 -0.692987,-0.41135 -1.15225,-0.61121 -0.922734,-0.40155 -1.666143,-0.52185 -3.037535,0.3003 -0.697599,0.41821 -1.218199,0.75198 -1.785873,0.8645 z"
           style="font-style:normal;font-variant:normal;font-weight:600;font-stretch:normal;font-size:2px;font-family:'Source Code Pro';-inkscape-font-specification:'Source Code Pro Semi-Bold';fill:#de00fb;fill-opacity:1;stroke-width:0.75px"
           id="path12791" />
      </g>
      <g
         transform="matrix(0.35277777,0,0,0.35277777,74.795862,257.38224)"
         style="font-style:normal;font-weight:normal;font-size:14px;line-height:125%;font-family:sans-serif;letter-spacing:0px;word-spacing:0px;fill:#00eb37;fill-opacity:1;stroke:none;stroke-width:0.75px;stroke-linecap:butt;stroke-linejoin:miter;stroke-opacity:1"
         id="g12875">
        <path
           id="path12877"
           style="font-style:normal;font-variant:normal;font-weight:600;font-stretch:normal;font-size:2px;font-family:'Source Code Pro';-inkscape-font-specification:'Source Code Pro Semi-Bold';fill:#00eb37;fill-opacity:1;stroke-width:0.75px"
           d="m -40.12132,-396.00805 -0.046,-0.16 q -0.028,-0.104 -0.058,-0.214 -0.03,-0.11 -0.058,-0.218 l -0.008,0 q -0.028,0.11 -0.058,0.22 -0.028,0.108 -0.058,0.212 l -0.046,0.16 0.332,0 z m 0.052,0.182 -0.436,0 -0.102,0.354 -0.236,0 0.424,-1.308 0.272,0 0.424,1.308 -0.246,0 -0.1,-0.354 z m -1.251219,-0.182 -0.046,-0.16 q -0.028,-0.104 -0.058,-0.214 -0.03,-0.11 -0.058,-0.218 l -0.008,0 q -0.028,0.11 -0.058,0.22 -0.028,0.108 -0.058,0.212 l -0.046,0.16 0.332,0 z m 0.052,0.182 -0.436,0 -0.102,0.354 -0.236,0 0.424,-1.308 0.272,0 0.424,1.308 -0.246,0 -0.1,-0.354 z m -1.251218,-0.182 -0.046,-0.16 q -0.028,-0.104 -0.058,-0.214 -0.03,-0.11 -0.058,-0.218 l -0.008,0 q -0.028,0.11 -0.058,0.22 -0.028,0.108 -0.058,0.212 l -0.046,0.16 0.332,0 z m 0.052,0.182 -0.436,0 -0.102,0.354 -0.236,0 0.424,-1.308 0.272,0 0.424,1.308 -0.246,0 -0.1,-0.354 z m -7.900634,0.027 c -0.567673,0.11252 -1.163155,-0.014 -1.957255,-0.4732 -1.535115,-0.88772 -2.925443,-1.1727 -3.941811,-1.00783 -1.040236,0.16875 -1.418587,0.46332 -1.781322,0.7098 -0.347086,0.23585 -0.601451,0.47838 -0.87739,0.73483 l -0.192617,-0.20703 c 0.05447,-0.0506 0.126398,-0.1009 0.181242,-0.15166 l 0,-1.07608 0.283616,0 0,0.83872 c 0.131788,-0.11362 0.245123,-0.2285 0.405708,-0.34049 l 0,-1.05863 0.283616,0 0,0.88042 c 0.122866,-0.0804 0.232643,-0.15856 0.405708,-0.24115 l 0,-0.98052 0.283616,0 0,0.89028 c 0.111632,-0.0438 0.268535,-0.0958 0.405707,-0.13512 l 0,-0.97508 0.283617,0 0,0.91076 c 0.140188,-0.0125 0.261807,-0.046 0.405707,-0.0713 l 0,-0.92668 0.282859,0 0,0.94413 c 0.126579,-0.008 0.277948,-0.004 0.411566,7e-5 l -0.0059,-1.01472 0.283617,0 0,1.02044 c 0.138232,0.0125 0.261318,0.034 0.405707,0.0587 l 0,-1.00858 0.283617,0 0,1.05532 c 0.130554,0.0294 0.271044,0.0658 0.405707,0.10493 l 0,-1.00327 0.283616,0 0,1.12081 0,7.6e-4 c 0.13144,0.0439 0.271033,0.11446 0.405708,0.16759 l 0,-1.06242 0.283616,0 0,1.12233 c 0.05795,0.0526 0.337113,0.15696 0.406466,0.18572 l 0,-0.92889 0.282858,0 0,1.06401 c 0.150589,0.0605 0.277571,0.1519 0.405708,0.20578 l 0,-0.85877 0.283616,0 0,0.96915 c 0.136934,0.0619 0.284027,0.13774 0.405708,0.17441 l 0,-0.81141 0.282858,0 0,0.88042 c 0.142395,0.0237 0.275218,0.0186 0.406466,0.01 l 0,-0.82052 0.283616,0 0,0.80611 c 0.118197,-0.0259 0.306891,-0.0856 0.405707,-0.16938 l 0,-0.93399 0.283617,0 0,0.83037 c 0.128108,-0.0627 0.264656,-0.14667 0.405708,-0.22722 l 0,-1.01265 0.283616,0 0.0059,0.86801 c 0.10429,-0.0622 0.156154,-0.0959 0.270173,-0.16428 0.04704,-0.0282 0.08371,-0.0361 0.129675,-0.0622 l 0,-1.05636 0.283616,0 0,0.92138 c 0.136739,-0.0678 0.277846,-0.14407 0.405708,-0.19338 l 0,-1.02526 0.282858,0 0,0.92364 c 0.141981,-0.0425 0.272817,-0.0592 0.405708,-0.0804 l 0,-1.02906 0.283616,0 0,0.97294 c 0.140856,-0.008 0.271944,0.0154 0.405707,0.0281 l 0,-0.97825 0.283617,0 0,1.00479 c 0.136425,0.0268 0.272307,0.0691 0.405707,0.113 l 0,-0.95474 0.283617,0 0,1.0518 c 0.150746,0.0627 0.288551,0.13538 0.405707,0.19034 l 0,-0.90848 0.283616,0 0,1.06015 c 0.133744,0.0746 0.287139,0.14806 0.405708,0.21688 l 0,-0.89862 0.282858,0 0,1.03664 c 0.129807,0.0703 0.275755,0.12764 0.406466,0.17848 l 0,-0.8989 0.283616,0 0,0.999 c 0.08639,0.0207 0.153756,0.0428 0.249492,0.0528 l -0.02957,0.2821 c -0.43945,-0.0989 -0.787715,-0.22719 -1.122331,-0.39282 -0.325098,-0.16091 -0.692987,-0.41135 -1.15225,-0.61121 -0.922734,-0.40155 -1.666143,-0.52185 -3.037535,0.3003 -0.697599,0.41821 -1.218199,0.75198 -1.785873,0.8645 z"
           inkscape:connector-curvature="0" />
      </g>
    </g>
    <text
       xml:space="preserve"
       style="font-style:normal;font-variant:normal;font-weight:normal;font-stretch:normal;font-size:2.82222223px;line-height:125%;font-family:'Gill sans';-inkscape-font-specification:'Gill sans';letter-spacing:0px;word-spacing:0px;fill:#000000;fill-opacity:1;stroke:none;stroke-width:0.26458332px;stroke-linecap:butt;stroke-linejoin:miter;stroke-opacity:1"
       x="53.453907"
       y="116.34723"
       id="text25389"
       sodipodi:linespacing="125%"><tspan
         sodipodi:role="line"
         id="tspan25391"
         x="53.453907"
         y="116.34723"
         style="font-style:normal;font-variant:normal;font-weight:normal;font-stretch:normal;font-size:2.82222223px;font-family:'Gill sans';-inkscape-font-specification:'Gill sans';stroke-width:0.26458332px">mRNA codon usage</tspan></text>
    <text
       xml:space="preserve"
       style="font-style:normal;font-variant:normal;font-weight:normal;font-stretch:normal;font-size:2.82222223px;line-height:125%;font-family:'Gill sans';-inkscape-font-specification:'Gill sans';letter-spacing:0px;word-spacing:0px;fill:#000000;fill-opacity:1;stroke:none;stroke-width:0.26458332px;stroke-linecap:butt;stroke-linejoin:miter;stroke-opacity:1"
       x="53.482845"
       y="123.15121"
       id="text25393"
       sodipodi:linespacing="125%"><tspan
         sodipodi:role="line"
         id="tspan25395"
         x="53.482845"
         y="123.15121"
         style="font-style:normal;font-variant:normal;font-weight:normal;font-stretch:normal;font-size:2.82222223px;font-family:'Gill sans';-inkscape-font-specification:'Gill sans';stroke-width:0.26458332px">Cell-specific mRNA codon usage</tspan></text>
    <text
       xml:space="preserve"
       style="font-style:normal;font-variant:normal;font-weight:normal;font-stretch:normal;font-size:2.82222223px;line-height:125%;font-family:'Gill sans';-inkscape-font-specification:'Gill sans';letter-spacing:0px;word-spacing:0px;fill:#000000;fill-opacity:1;stroke:none;stroke-width:0.26458332px;stroke-linecap:butt;stroke-linejoin:miter;stroke-opacity:1"
       x="53.620651"
       y="129.94141"
       id="text25397"
       sodipodi:linespacing="125%"><tspan
         sodipodi:role="line"
         id="tspan25399"
         x="53.620651"
         y="129.94141"
         style="font-style:normal;font-variant:normal;font-weight:normal;font-stretch:normal;font-size:2.82222223px;font-family:'Gill sans';-inkscape-font-specification:'Gill sans';stroke-width:0.26458332px">tRNA anticodon abundance</tspan></text>
  </g>
</svg>
